<?xml version="1.0" encoding="UTF-8" standalone="no"?>
<!DOCTYPE svg PUBLIC "-//W3C//DTD SVG 1.1//EN"
 "http://www.w3.org/Graphics/SVG/1.1/DTD/svg11.dtd">
<!-- Generated by graphviz version 10.0.1 (20240210.2158)
 -->
<!-- Pages: 1 -->
<svg width="949pt" height="306pt"
 viewBox="0.00 0.00 949.28 306.33" xmlns="http://www.w3.org/2000/svg" xmlns:xlink="http://www.w3.org/1999/xlink">
<g id="graph0" class="graph" transform="scale(1 1) rotate(0) translate(4 302.33)">
<polygon fill="white" stroke="none" points="-4,4 -4,-302.33 945.28,-302.33 945.28,4 -4,4"/>
<!-- Wall_N -->
<g id="node1" class="node">
<title>Wall_N</title>
<polygon fill="lightgray" stroke="black" points="43.75,-298.33 0,-298.33 0,-279.83 43.75,-279.83 43.75,-298.33"/>
<text text-anchor="middle" x="21.88" y="-285.78" font-family="Times,serif" font-size="9.00">Wall_N</text>
</g>
<!-- Up -->
<g id="node13" class="node">
<title>Up</title>
<ellipse fill="lightblue" stroke="black" cx="51.88" cy="-213.42" rx="19.27" ry="19.27"/>
<text text-anchor="middle" x="51.88" y="-210.12" font-family="Times,serif" font-size="9.00">Up</text>
</g>
<!-- Wall_N&#45;&gt;Up -->
<g id="edge3" class="edge">
<title>Wall_N&#45;&gt;Up</title>
<path fill="none" stroke="red" stroke-width="3.81" d="M25.43,-279.34C28.77,-271.14 33.98,-258.37 38.89,-246.31"/>
<polygon fill="red" stroke="red" stroke-width="3.81" points="42.08,-247.74 42.61,-237.16 35.6,-245.1 42.08,-247.74"/>
</g>
<!-- Wall_S -->
<g id="node2" class="node">
<title>Wall_S</title>
<polygon fill="lightgray" stroke="black" points="108,-125.86 65.75,-125.86 65.75,-107.36 108,-107.36 108,-125.86"/>
<text text-anchor="middle" x="86.88" y="-113.31" font-family="Times,serif" font-size="9.00">Wall_S</text>
</g>
<!-- Left -->
<g id="node14" class="node">
<title>Left</title>
<ellipse fill="lightblue" stroke="black" cx="86.88" cy="-25.1" rx="21.39" ry="21.39"/>
<text text-anchor="middle" x="86.88" y="-21.8" font-family="Times,serif" font-size="9.00">Left</text>
</g>
<!-- Wall_S&#45;&gt;Left -->
<g id="edge9" class="edge">
<title>Wall_S&#45;&gt;Left</title>
<path fill="none" stroke="red" stroke-width="0.23" d="M86.88,-107.03C86.88,-95.54 86.88,-74.56 86.88,-56.84"/>
<polygon fill="red" stroke="red" stroke-width="0.23" points="90.38,-57.23 86.88,-47.23 83.38,-57.23 90.38,-57.23"/>
</g>
<!-- Right -->
<g id="node16" class="node">
<title>Right</title>
<ellipse fill="lightblue" stroke="black" cx="153.88" cy="-25.1" rx="25.1" ry="25.1"/>
<text text-anchor="middle" x="153.88" y="-21.8" font-family="Times,serif" font-size="9.00">Right</text>
</g>
<!-- Wall_S&#45;&gt;Right -->
<g id="edge1" class="edge">
<title>Wall_S&#45;&gt;Right</title>
<path fill="none" stroke="green" stroke-width="3.47" d="M93.3,-107.03C101.73,-95.76 117.01,-75.36 130.1,-57.86"/>
<polygon fill="green" stroke="green" stroke-width="3.47" points="132.79,-60.11 135.98,-50 127.19,-55.91 132.79,-60.11"/>
</g>
<!-- Wall_E -->
<g id="node3" class="node">
<title>Wall_E</title>
<polygon fill="lightgray" stroke="black" points="104,-298.33 61.75,-298.33 61.75,-279.83 104,-279.83 104,-298.33"/>
<text text-anchor="middle" x="82.88" y="-285.78" font-family="Times,serif" font-size="9.00">Wall_E</text>
</g>
<!-- Wall_E&#45;&gt;Up -->
<g id="edge2" class="edge">
<title>Wall_E&#45;&gt;Up</title>
<path fill="none" stroke="green" stroke-width="4.26" d="M79.2,-279.34C75.72,-271.09 70.3,-258.2 65.2,-246.08"/>
<polygon fill="green" stroke="green" stroke-width="4.26" points="68.76,-244.93 61.44,-237.16 61.88,-247.82 68.76,-244.93"/>
</g>
<!-- Wall_W -->
<g id="node4" class="node">
<title>Wall_W</title>
<polygon fill="lightgray" stroke="black" points="678.5,-298.33 633.25,-298.33 633.25,-279.83 678.5,-279.83 678.5,-298.33"/>
<text text-anchor="middle" x="655.88" y="-285.78" font-family="Times,serif" font-size="9.00">Wall_W</text>
</g>
<!-- Down -->
<g id="node15" class="node">
<title>Down</title>
<ellipse fill="lightblue" stroke="black" cx="622.88" cy="-213.42" rx="27.22" ry="27.22"/>
<text text-anchor="middle" x="622.88" y="-210.12" font-family="Times,serif" font-size="9.00">Down</text>
</g>
<!-- Wall_W&#45;&gt;Down -->
<g id="edge4" class="edge">
<title>Wall_W&#45;&gt;Down</title>
<path fill="none" stroke="green" stroke-width="1.55" d="M651.96,-279.34C648.64,-271.93 643.65,-260.78 638.73,-249.81"/>
<polygon fill="green" stroke="green" stroke-width="1.55" points="641.95,-248.43 634.66,-240.73 635.56,-251.29 641.95,-248.43"/>
</g>
<!-- Tail_N -->
<g id="node5" class="node">
<title>Tail_N</title>
<polygon fill="lightgray" stroke="black" points="802.25,-298.33 761.5,-298.33 761.5,-279.83 802.25,-279.83 802.25,-298.33"/>
<text text-anchor="middle" x="781.88" y="-285.78" font-family="Times,serif" font-size="9.00">Tail_N</text>
</g>
<!-- Tail_S -->
<g id="node6" class="node">
<title>Tail_S</title>
<polygon fill="lightgray" stroke="black" points="487.5,-298.33 448.25,-298.33 448.25,-279.83 487.5,-279.83 487.5,-298.33"/>
<text text-anchor="middle" x="467.88" y="-285.78" font-family="Times,serif" font-size="9.00">Tail_S</text>
</g>
<!-- 162513 -->
<g id="node23" class="node">
<title>162513</title>
<ellipse fill="white" stroke="black" cx="546.88" cy="-213.42" rx="30.41" ry="30.41"/>
<text text-anchor="middle" x="546.88" y="-210.12" font-family="Times,serif" font-size="9.00">162513</text>
</g>
<!-- Tail_S&#45;&gt;162513 -->
<g id="edge12" class="edge">
<title>Tail_S&#45;&gt;162513</title>
<path fill="none" stroke="green" stroke-width="0.32" stroke-dasharray="1,5" d="M477.25,-279.34C487.11,-270.14 503.14,-255.19 517.34,-241.96"/>
<polygon fill="green" stroke="green" stroke-width="0.32" points="519.71,-244.54 524.63,-235.16 514.93,-239.42 519.71,-244.54"/>
</g>
<!-- 185686 -->
<g id="node25" class="node">
<title>185686</title>
<ellipse fill="white" stroke="black" cx="467.88" cy="-213.42" rx="30.41" ry="30.41"/>
<text text-anchor="middle" x="467.88" y="-210.12" font-family="Times,serif" font-size="9.00">185686</text>
</g>
<!-- Tail_S&#45;&gt;185686 -->
<g id="edge22" class="edge">
<title>Tail_S&#45;&gt;185686</title>
<path fill="none" stroke="red" stroke-width="0.68" stroke-dasharray="1,5" d="M467.88,-279.34C467.88,-273.09 467.88,-264.2 467.88,-254.98"/>
<polygon fill="red" stroke="red" stroke-width="0.68" points="471.38,-255.19 467.88,-245.19 464.38,-255.19 471.38,-255.19"/>
</g>
<!-- Tail_E -->
<g id="node7" class="node">
<title>Tail_E</title>
<polygon fill="lightgray" stroke="black" points="284.5,-298.33 245.25,-298.33 245.25,-279.83 284.5,-279.83 284.5,-298.33"/>
<text text-anchor="middle" x="264.88" y="-285.78" font-family="Times,serif" font-size="9.00">Tail_E</text>
</g>
<!-- 188651 -->
<g id="node19" class="node">
<title>188651</title>
<ellipse fill="white" stroke="black" cx="156.88" cy="-213.42" rx="30.41" ry="30.41"/>
<text text-anchor="middle" x="156.88" y="-210.12" font-family="Times,serif" font-size="9.00">188651</text>
</g>
<!-- Tail_E&#45;&gt;188651 -->
<g id="edge25" class="edge">
<title>Tail_E&#45;&gt;188651</title>
<path fill="none" stroke="green" stroke-width="0.36" d="M251.18,-279.49C237.34,-270.73 215.41,-256.65 196.88,-243.83 194.42,-242.13 191.89,-240.35 189.36,-238.54"/>
<polygon fill="green" stroke="green" stroke-width="0.36" points="191.43,-235.72 181.27,-232.69 187.33,-241.39 191.43,-235.72"/>
</g>
<!-- 183438 -->
<g id="node20" class="node">
<title>183438</title>
<ellipse fill="white" stroke="black" cx="235.88" cy="-213.42" rx="30.41" ry="30.41"/>
<text text-anchor="middle" x="235.88" y="-210.12" font-family="Times,serif" font-size="9.00">183438</text>
</g>
<!-- Tail_E&#45;&gt;183438 -->
<g id="edge16" class="edge">
<title>Tail_E&#45;&gt;183438</title>
<path fill="none" stroke="green" stroke-width="0.17" stroke-dasharray="1,5" d="M261.43,-279.34C258.68,-272.34 254.61,-262 250.52,-251.62"/>
<polygon fill="green" stroke="green" stroke-width="0.17" points="253.81,-250.43 246.89,-242.41 247.3,-253 253.81,-250.43"/>
</g>
<!-- 184143 -->
<g id="node21" class="node">
<title>184143</title>
<ellipse fill="white" stroke="black" cx="409.88" cy="-116.61" rx="30.41" ry="30.41"/>
<text text-anchor="middle" x="409.88" y="-113.31" font-family="Times,serif" font-size="9.00">184143</text>
</g>
<!-- Tail_E&#45;&gt;184143 -->
<g id="edge19" class="edge">
<title>Tail_E&#45;&gt;184143</title>
<path fill="none" stroke="green" stroke-width="0.26" d="M267.04,-279.59C272.23,-260.53 286.94,-213.61 312.88,-183.02 329.62,-163.26 353.74,-146.96 373.74,-135.58"/>
<polygon fill="green" stroke="green" stroke-width="0.26" points="375.18,-138.78 382.25,-130.89 371.8,-132.65 375.18,-138.78"/>
</g>
<!-- 183191 -->
<g id="node22" class="node">
<title>183191</title>
<ellipse fill="white" stroke="black" cx="156.88" cy="-116.61" rx="30.41" ry="30.41"/>
<text text-anchor="middle" x="156.88" y="-113.31" font-family="Times,serif" font-size="9.00">183191</text>
</g>
<!-- Tail_E&#45;&gt;183191 -->
<g id="edge14" class="edge">
<title>Tail_E&#45;&gt;183191</title>
<path fill="none" stroke="red" stroke-width="0.28" stroke-dasharray="1,5" d="M244.81,-288.88C211.99,-288.97 147.53,-283.72 117.88,-243.83 97.01,-215.76 114.84,-176.34 132.67,-149.06"/>
<polygon fill="red" stroke="red" stroke-width="0.28" points="135.42,-151.24 138.17,-141.01 129.64,-147.29 135.42,-151.24"/>
</g>
<!-- Tail_E&#45;&gt;185686 -->
<g id="edge20" class="edge">
<title>Tail_E&#45;&gt;185686</title>
<path fill="none" stroke="green" stroke-width="0.4" d="M284.92,-284.62C315.78,-278.84 376.35,-265.64 423.88,-243.83 427.62,-242.11 431.4,-240.09 435.1,-237.93"/>
<polygon fill="green" stroke="green" stroke-width="0.4" points="436.88,-240.94 443.51,-232.67 433.17,-235 436.88,-240.94"/>
</g>
<!-- 159575 -->
<g id="node26" class="node">
<title>159575</title>
<ellipse fill="white" stroke="black" cx="622.88" cy="-116.61" rx="30.41" ry="30.41"/>
<text text-anchor="middle" x="622.88" y="-113.31" font-family="Times,serif" font-size="9.00">159575</text>
</g>
<!-- Tail_E&#45;&gt;159575 -->
<g id="edge11" class="edge">
<title>Tail_E&#45;&gt;159575</title>
<path fill="none" stroke="green" stroke-width="0.16" d="M284.77,-285.28C311.41,-280.68 359.02,-269.33 390.88,-243.83 415.76,-223.91 403.87,-202.77 428.88,-183.02 474.35,-147.08 540.6,-130.39 582.71,-123.01"/>
<polygon fill="green" stroke="green" stroke-width="0.16" points="583.07,-126.49 592.36,-121.4 581.93,-119.59 583.07,-126.49"/>
</g>
<!-- Tail_W -->
<g id="node8" class="node">
<title>Tail_W</title>
<polygon fill="lightgray" stroke="black" points="615,-298.33 572.75,-298.33 572.75,-279.83 615,-279.83 615,-298.33"/>
<text text-anchor="middle" x="593.88" y="-285.78" font-family="Times,serif" font-size="9.00">Tail_W</text>
</g>
<!-- Tail_W&#45;&gt;Down -->
<g id="edge8" class="edge">
<title>Tail_W&#45;&gt;Down</title>
<path fill="none" stroke="green" stroke-width="0.15" d="M597.32,-279.34C600.34,-271.66 604.94,-259.96 609.42,-248.61"/>
<polygon fill="green" stroke="green" stroke-width="0.15" points="612.61,-250.04 613.02,-239.45 606.1,-247.48 612.61,-250.04"/>
</g>
<!-- Tail_W&#45;&gt;162513 -->
<g id="edge10" class="edge">
<title>Tail_W&#45;&gt;162513</title>
<path fill="none" stroke="red" stroke-width="0.33" d="M588.3,-279.34C583.34,-271.56 575.75,-259.68 568.43,-248.19"/>
<polygon fill="red" stroke="red" stroke-width="0.33" points="571.52,-246.53 563.19,-239.99 565.62,-250.3 571.52,-246.53"/>
</g>
<!-- Apple_N -->
<g id="node9" class="node">
<title>Apple_N</title>
<polygon fill="lightgray" stroke="black" points="554.38,-298.33 505.38,-298.33 505.38,-279.83 554.38,-279.83 554.38,-298.33"/>
<text text-anchor="middle" x="529.88" y="-285.78" font-family="Times,serif" font-size="9.00">Apple_N</text>
</g>
<!-- Apple_N&#45;&gt;162513 -->
<g id="edge24" class="edge">
<title>Apple_N&#45;&gt;162513</title>
<path fill="none" stroke="red" stroke-width="0.15" d="M531.89,-279.34C533.42,-272.71 535.64,-263.09 537.91,-253.27"/>
<polygon fill="red" stroke="red" stroke-width="0.15" points="541.27,-254.26 540.11,-243.73 534.45,-252.68 541.27,-254.26"/>
</g>
<!-- Apple_S -->
<g id="node10" class="node">
<title>Apple_S</title>
<polygon fill="lightgray" stroke="black" points="743.62,-298.33 696.12,-298.33 696.12,-279.83 743.62,-279.83 743.62,-298.33"/>
<text text-anchor="middle" x="719.88" y="-285.78" font-family="Times,serif" font-size="9.00">Apple_S</text>
</g>
<!-- Apple_S&#45;&gt;Down -->
<g id="edge5" class="edge">
<title>Apple_S&#45;&gt;Down</title>
<path fill="none" stroke="green" stroke-width="2.27" d="M707.83,-279.39C695.64,-270.55 676.32,-256.42 659.88,-243.83 658.08,-242.46 656.25,-241.04 654.4,-239.6"/>
<polygon fill="green" stroke="green" stroke-width="2.27" points="656.63,-236.9 646.61,-233.48 652.31,-242.41 656.63,-236.9"/>
</g>
<!-- Apple_E -->
<g id="node11" class="node">
<title>Apple_E</title>
<polygon fill="lightgray" stroke="black" points="867.62,-298.33 820.12,-298.33 820.12,-279.83 867.62,-279.83 867.62,-298.33"/>
<text text-anchor="middle" x="843.88" y="-285.78" font-family="Times,serif" font-size="9.00">Apple_E</text>
</g>
<!-- Apple_W -->
<g id="node12" class="node">
<title>Apple_W</title>
<polygon fill="lightgray" stroke="black" points="936.12,-298.33 885.62,-298.33 885.62,-279.83 936.12,-279.83 936.12,-298.33"/>
<text text-anchor="middle" x="910.88" y="-285.78" font-family="Times,serif" font-size="9.00">Apple_W</text>
</g>
<!-- 177153 -->
<g id="node17" class="node">
<title>177153</title>
<ellipse fill="white" stroke="black" cx="910.88" cy="-213.42" rx="30.41" ry="30.41"/>
<text text-anchor="middle" x="910.88" y="-210.12" font-family="Times,serif" font-size="9.00">177153</text>
</g>
<!-- Apple_W&#45;&gt;177153 -->
<g id="edge13" class="edge">
<title>Apple_W&#45;&gt;177153</title>
<path fill="none" stroke="green" stroke-width="0.2" d="M910.88,-279.34C910.88,-272.96 910.88,-263.81 910.88,-254.38"/>
<polygon fill="green" stroke="green" stroke-width="0.2" points="914.38,-254.46 910.88,-244.46 907.38,-254.46 914.38,-254.46"/>
</g>
<!-- Down&#45;&gt;184143 -->
<g id="edge17" class="edge">
<title>Down&#45;&gt;184143</title>
<path fill="none" stroke="red" stroke-width="0.53" d="M602.95,-194.72C597.64,-190.53 591.73,-186.32 585.88,-183.02 541.82,-158.16 486.5,-139.4 449.77,-128.49"/>
<polygon fill="red" stroke="red" stroke-width="0.53" points="450.81,-125.14 440.23,-125.71 448.85,-131.87 450.81,-125.14"/>
</g>
<!-- Down&#45;&gt;159575 -->
<g id="edge6" class="edge">
<title>Down&#45;&gt;159575</title>
<path fill="none" stroke="green" stroke-width="0.33" d="M622.88,-185.76C622.88,-177.08 622.88,-167.25 622.88,-157.81"/>
<polygon fill="green" stroke="green" stroke-width="0.33" points="626.38,-157.9 622.88,-147.9 619.38,-157.9 626.38,-157.9"/>
</g>
<!-- 186338 -->
<g id="node18" class="node">
<title>186338</title>
<ellipse fill="white" stroke="black" cx="351.88" cy="-213.42" rx="30.41" ry="30.41"/>
<text text-anchor="middle" x="351.88" y="-210.12" font-family="Times,serif" font-size="9.00">186338</text>
</g>
<!-- 186338&#45;&gt;184143 -->
<g id="edge23" class="edge">
<title>186338&#45;&gt;184143</title>
<path fill="none" stroke="green" stroke-width="0.33" d="M367.42,-187.01C374.05,-176.17 381.89,-163.36 389.01,-151.72"/>
<polygon fill="green" stroke="green" stroke-width="0.33" points="391.79,-153.88 394.03,-143.52 385.82,-150.22 391.79,-153.88"/>
</g>
<!-- 188651&#45;&gt;183191 -->
<g id="edge26" class="edge">
<title>188651&#45;&gt;183191</title>
<path fill="none" stroke="red" stroke-width="0.29" d="M156.88,-182.68C156.88,-174.74 156.88,-166.03 156.88,-157.63"/>
<polygon fill="red" stroke="red" stroke-width="0.29" points="160.38,-157.68 156.88,-147.68 153.38,-157.68 160.38,-157.68"/>
</g>
<!-- 183191&#45;&gt;Right -->
<g id="edge15" class="edge">
<title>183191&#45;&gt;Right</title>
<path fill="none" stroke="green" stroke-width="0.2" d="M155.88,-85.81C155.61,-77.72 155.31,-68.91 155.03,-60.59"/>
<polygon fill="green" stroke="green" stroke-width="0.2" points="158.53,-60.6 154.7,-50.73 151.54,-60.84 158.53,-60.6"/>
</g>
<!-- 162513&#45;&gt;183191 -->
<g id="edge18" class="edge">
<title>162513&#45;&gt;183191</title>
<path fill="none" stroke="green" stroke-width="0.32" d="M523.84,-192.82C518.54,-189.08 512.73,-185.55 506.88,-183.02 451.52,-159 277.03,-133.57 197.32,-122.86"/>
<polygon fill="green" stroke="green" stroke-width="0.32" points="198.03,-119.42 187.65,-121.57 197.1,-126.36 198.03,-119.42"/>
</g>
<!-- 145075 -->
<g id="node24" class="node">
<title>145075</title>
<ellipse fill="white" stroke="black" cx="698.88" cy="-213.42" rx="30.41" ry="30.41"/>
<text text-anchor="middle" x="698.88" y="-210.12" font-family="Times,serif" font-size="9.00">145075</text>
</g>
<!-- 145075&#45;&gt;159575 -->
<g id="edge7" class="edge">
<title>145075&#45;&gt;159575</title>
<path fill="none" stroke="red" stroke-width="0.38" d="M680.09,-188.98C670.5,-177.02 658.69,-162.29 648.3,-149.32"/>
<polygon fill="red" stroke="red" stroke-width="0.38" points="651.06,-147.17 642.07,-141.56 645.59,-151.55 651.06,-147.17"/>
</g>
<!-- 185686&#45;&gt;184143 -->
<g id="edge21" class="edge">
<title>185686&#45;&gt;184143</title>
<path fill="none" stroke="red" stroke-width="0.22" d="M452.33,-187.01C445.7,-176.17 437.86,-163.36 430.74,-151.72"/>
<polygon fill="red" stroke="red" stroke-width="0.22" points="433.84,-150.08 425.64,-143.38 427.87,-153.73 433.84,-150.08"/>
</g>
</g>
</svg>
