<?xml version="1.0" encoding="utf-8" standalone="no"?>
<!DOCTYPE svg PUBLIC "-//W3C//DTD SVG 1.1//EN"
  "http://www.w3.org/Graphics/SVG/1.1/DTD/svg11.dtd">
<svg xmlns:xlink="http://www.w3.org/1999/xlink" width="460.8pt" height="345.6pt" viewBox="0 0 460.8 345.6" xmlns="http://www.w3.org/2000/svg" version="1.1">
 <metadata>
  <rdf:RDF xmlns:dc="http://purl.org/dc/elements/1.1/" xmlns:cc="http://creativecommons.org/ns#" xmlns:rdf="http://www.w3.org/1999/02/22-rdf-syntax-ns#">
   <cc:Work>
    <dc:type rdf:resource="http://purl.org/dc/dcmitype/StillImage"/>
    <dc:date>2024-04-25T14:59:37.807255</dc:date>
    <dc:format>image/svg+xml</dc:format>
    <dc:creator>
     <cc:Agent>
      <dc:title>Matplotlib v3.5.0, https://matplotlib.org/</dc:title>
     </cc:Agent>
    </dc:creator>
   </cc:Work>
  </rdf:RDF>
 </metadata>
 <defs>
  <style type="text/css">*{stroke-linejoin: round; stroke-linecap: butt}</style>
 </defs>
 <g id="figure_1">
  <g id="patch_1">
   <path d="M 0 345.6 
L 460.8 345.6 
L 460.8 0 
L 0 0 
z
" style="fill: #ffffff"/>
  </g>
  <g id="axes_1">
   <g id="patch_2">
    <path d="M 57.6 307.584 
L 414.72 307.584 
L 414.72 41.472 
L 57.6 41.472 
z
" style="fill: #ffffff"/>
   </g>
   <g id="PolyCollection_1">
    <path d="M 73.832727 54.270657 
L 73.832727 307.584 
L 77.112066 307.584 
L 80.391405 307.584 
L 83.670744 307.584 
L 86.950083 307.584 
L 90.229421 307.584 
L 93.50876 307.584 
L 96.788099 307.584 
L 100.067438 307.584 
L 103.346777 307.584 
L 106.626116 307.584 
L 109.905455 307.584 
L 113.184793 307.584 
L 116.464132 307.584 
L 119.743471 307.584 
L 123.02281 307.584 
L 126.302149 307.584 
L 129.581488 307.584 
L 132.860826 307.584 
L 136.140165 307.584 
L 139.419504 307.584 
L 142.698843 307.584 
L 145.978182 307.584 
L 149.257521 307.584 
L 152.53686 307.584 
L 155.816198 307.584 
L 159.095537 307.584 
L 162.374876 307.584 
L 165.654215 307.584 
L 168.933554 307.584 
L 172.212893 307.584 
L 175.492231 307.584 
L 178.77157 307.584 
L 182.050909 307.584 
L 185.330248 307.584 
L 188.609587 307.584 
L 191.888926 307.584 
L 195.168264 307.584 
L 198.447603 307.584 
L 201.726942 307.584 
L 205.006281 307.584 
L 208.28562 307.584 
L 211.564959 307.584 
L 214.844298 307.584 
L 218.123636 307.584 
L 221.402975 307.584 
L 224.682314 307.584 
L 227.961653 307.584 
L 231.240992 307.584 
L 234.520331 307.584 
L 237.799669 307.584 
L 241.079008 307.584 
L 244.358347 307.584 
L 247.637686 307.584 
L 250.917025 307.584 
L 254.196364 307.584 
L 257.475702 307.584 
L 260.755041 307.584 
L 264.03438 307.584 
L 267.313719 307.584 
L 270.593058 307.584 
L 273.872397 307.584 
L 277.151736 307.584 
L 280.431074 307.584 
L 283.710413 307.584 
L 286.989752 307.584 
L 290.269091 307.584 
L 293.54843 307.584 
L 296.827769 307.584 
L 300.107107 307.584 
L 303.386446 307.584 
L 306.665785 307.584 
L 309.945124 307.584 
L 313.224463 307.584 
L 316.503802 307.584 
L 319.78314 307.584 
L 323.062479 307.584 
L 326.341818 307.584 
L 329.621157 307.584 
L 332.900496 307.584 
L 336.179835 307.584 
L 339.459174 307.584 
L 342.738512 307.584 
L 346.017851 307.584 
L 349.29719 307.584 
L 352.576529 307.584 
L 355.855868 307.584 
L 359.135207 307.584 
L 362.414545 307.584 
L 365.693884 307.584 
L 368.973223 307.584 
L 372.252562 307.584 
L 375.531901 307.584 
L 378.81124 307.584 
L 382.090579 307.584 
L 385.369917 307.584 
L 388.649256 307.584 
L 391.928595 307.584 
L 395.207934 307.584 
L 398.487273 307.584 
L 398.487273 307.584 
L 398.487273 307.584 
L 395.207934 307.584 
L 391.928595 307.584 
L 388.649256 307.584 
L 385.369917 307.584 
L 382.090579 307.584 
L 378.81124 307.584 
L 375.531901 307.584 
L 372.252562 307.584 
L 368.973223 307.584 
L 365.693884 307.584 
L 362.414545 307.584 
L 359.135207 307.584 
L 355.855868 307.584 
L 352.576529 307.584 
L 349.29719 307.584 
L 346.017851 307.584 
L 342.738512 307.584 
L 339.459174 307.584 
L 336.179835 307.584 
L 332.900496 307.584 
L 329.621157 307.584 
L 326.341818 307.584 
L 323.062479 307.584 
L 319.78314 307.584 
L 316.503802 307.584 
L 313.224463 307.584 
L 309.945124 307.584 
L 306.665785 307.584 
L 303.386446 307.584 
L 300.107107 307.584 
L 296.827769 307.584 
L 293.54843 213.098123 
L 290.269091 270.473595 
L 286.989752 282.632636 
L 283.710413 272.246789 
L 280.431074 270.980222 
L 277.151736 289.725409 
L 273.872397 296.1849 
L 270.593058 292.638513 
L 267.313719 287.318933 
L 264.03438 292.765169 
L 260.755041 287.698903 
L 257.475702 283.012606 
L 254.196364 274.399952 
L 250.917025 278.959592 
L 247.637686 293.018483 
L 244.358347 281.239412 
L 241.079008 265.660642 
L 237.799669 231.210027 
L 234.520331 236.909577 
L 231.240992 280.986099 
L 227.961653 253.881571 
L 224.682314 258.821181 
L 221.402975 285.419082 
L 218.123636 266.167268 
L 214.844298 255.908078 
L 211.564959 236.909577 
L 208.28562 263.507478 
L 205.006281 226.017103 
L 201.726942 263.760792 
L 198.447603 291.498603 
L 195.168264 283.012606 
L 191.888926 278.832936 
L 188.609587 223.48397 
L 185.330248 261.227658 
L 182.050909 225.130507 
L 178.77157 226.650387 
L 175.492231 264.014105 
L 172.212893 284.659142 
L 168.933554 269.333685 
L 165.654215 247.168768 
L 162.374876 218.291046 
L 159.095537 216.011226 
L 155.816198 258.061241 
L 152.53686 254.514855 
L 149.257521 167.375064 
L 145.978182 163.195394 
L 142.698843 120.005469 
L 139.419504 247.295424 
L 136.140165 246.915454 
L 132.860826 259.961091 
L 129.581488 261.354315 
L 126.302149 162.435454 
L 123.02281 137.48409 
L 119.743471 158.509097 
L 116.464132 174.847808 
L 113.184793 108.986339 
L 109.905455 204.105499 
L 106.626116 190.806549 
L 103.346777 229.56349 
L 100.067438 122.411946 
L 96.788099 182.573865 
L 93.50876 158.889067 
L 90.229421 202.712276 
L 86.950083 143.436954 
L 83.670744 54.270657 
L 80.391405 54.270657 
L 77.112066 54.270657 
L 73.832727 54.270657 
z
" clip-path="url(#pc212a3ac69)" style="fill: #1f77b4"/>
   </g>
   <g id="PolyCollection_2">
    <path d="M 73.832727 54.270657 
L 73.832727 54.270657 
L 77.112066 54.270657 
L 80.391405 54.270657 
L 83.670744 54.270657 
L 86.950083 143.436954 
L 90.229421 202.712276 
L 93.50876 158.889067 
L 96.788099 182.573865 
L 100.067438 122.411946 
L 103.346777 229.56349 
L 106.626116 190.806549 
L 109.905455 204.105499 
L 113.184793 108.986339 
L 116.464132 174.847808 
L 119.743471 158.509097 
L 123.02281 137.48409 
L 126.302149 162.435454 
L 129.581488 261.354315 
L 132.860826 259.961091 
L 136.140165 246.915454 
L 139.419504 247.295424 
L 142.698843 120.005469 
L 145.978182 163.195394 
L 149.257521 167.375064 
L 152.53686 254.514855 
L 155.816198 258.061241 
L 159.095537 216.011226 
L 162.374876 218.291046 
L 165.654215 247.168768 
L 168.933554 269.333685 
L 172.212893 284.659142 
L 175.492231 264.014105 
L 178.77157 226.650387 
L 182.050909 225.130507 
L 185.330248 261.227658 
L 188.609587 223.48397 
L 191.888926 278.832936 
L 195.168264 283.012606 
L 198.447603 291.498603 
L 201.726942 263.760792 
L 205.006281 226.017103 
L 208.28562 263.507478 
L 211.564959 236.909577 
L 214.844298 255.908078 
L 218.123636 266.167268 
L 221.402975 285.419082 
L 224.682314 258.821181 
L 227.961653 253.881571 
L 231.240992 280.986099 
L 234.520331 236.909577 
L 237.799669 231.210027 
L 241.079008 265.660642 
L 244.358347 281.239412 
L 247.637686 293.018483 
L 250.917025 278.959592 
L 254.196364 274.399952 
L 257.475702 283.012606 
L 260.755041 287.698903 
L 264.03438 292.765169 
L 267.313719 287.318933 
L 270.593058 292.638513 
L 273.872397 296.1849 
L 277.151736 289.725409 
L 280.431074 270.980222 
L 283.710413 272.246789 
L 286.989752 282.632636 
L 290.269091 270.473595 
L 293.54843 213.098123 
L 296.827769 307.584 
L 300.107107 307.584 
L 303.386446 307.584 
L 306.665785 307.584 
L 309.945124 307.584 
L 313.224463 307.584 
L 316.503802 307.584 
L 319.78314 307.584 
L 323.062479 307.584 
L 326.341818 307.584 
L 329.621157 307.584 
L 332.900496 307.584 
L 336.179835 307.584 
L 339.459174 307.584 
L 342.738512 307.584 
L 346.017851 307.584 
L 349.29719 307.584 
L 352.576529 307.584 
L 355.855868 307.584 
L 359.135207 307.584 
L 362.414545 307.584 
L 365.693884 307.584 
L 368.973223 307.584 
L 372.252562 307.584 
L 375.531901 307.584 
L 378.81124 307.584 
L 382.090579 307.584 
L 385.369917 307.584 
L 388.649256 307.584 
L 391.928595 307.584 
L 395.207934 307.584 
L 398.487273 307.584 
L 398.487273 307.584 
L 398.487273 307.584 
L 395.207934 307.584 
L 391.928595 307.584 
L 388.649256 307.584 
L 385.369917 307.584 
L 382.090579 307.584 
L 378.81124 307.584 
L 375.531901 307.584 
L 372.252562 307.584 
L 368.973223 307.584 
L 365.693884 307.584 
L 362.414545 307.584 
L 359.135207 307.584 
L 355.855868 307.584 
L 352.576529 307.584 
L 349.29719 307.584 
L 346.017851 307.584 
L 342.738512 307.584 
L 339.459174 307.584 
L 336.179835 307.584 
L 332.900496 307.584 
L 329.621157 307.584 
L 326.341818 307.584 
L 323.062479 241.089247 
L 319.78314 235.136384 
L 316.503802 260.087748 
L 313.224463 243.749037 
L 309.945124 251.348438 
L 306.665785 216.517853 
L 303.386446 216.137883 
L 300.107107 217.151136 
L 296.827769 230.7034 
L 293.54843 159.269037 
L 290.269091 194.226279 
L 286.989752 263.380822 
L 283.710413 251.221781 
L 280.431074 232.98322 
L 277.151736 252.488348 
L 273.872397 279.086249 
L 270.593058 224.877193 
L 267.313719 241.975844 
L 264.03438 228.550237 
L 260.755041 205.118753 
L 257.475702 242.989097 
L 254.196364 214.111376 
L 250.917025 196.886069 
L 247.637686 220.697523 
L 244.358347 198.785919 
L 241.079008 219.810927 
L 237.799669 195.619502 
L 234.520331 176.114375 
L 231.240992 207.525229 
L 227.961653 193.086369 
L 224.682314 185.106999 
L 221.402975 183.460462 
L 218.123636 180.040732 
L 214.844298 183.460462 
L 211.564959 162.942081 
L 208.28562 183.460462 
L 205.006281 169.908198 
L 201.726942 195.366189 
L 198.447603 230.196774 
L 195.168264 191.566489 
L 191.888926 209.045109 
L 188.609587 168.388318 
L 185.330248 230.7034 
L 182.050909 170.034855 
L 178.77157 170.794795 
L 175.492231 196.379442 
L 172.212893 240.835934 
L 168.933554 219.810927 
L 165.654215 133.431076 
L 162.374876 100.500342 
L 159.095537 172.314675 
L 155.816198 140.270537 
L 152.53686 134.191016 
L 149.257521 74.409067 
L 145.978182 97.840552 
L 142.698843 81.375184 
L 139.419504 157.242531 
L 136.140165 155.722651 
L 132.860826 100.626999 
L 129.581488 93.534225 
L 126.302149 73.902441 
L 123.02281 54.270657 
L 119.743471 54.270657 
L 116.464132 54.270657 
L 113.184793 54.270657 
L 109.905455 54.270657 
L 106.626116 54.270657 
L 103.346777 54.270657 
L 100.067438 54.270657 
L 96.788099 54.270657 
L 93.50876 54.270657 
L 90.229421 54.270657 
L 86.950083 54.270657 
L 83.670744 54.270657 
L 80.391405 54.270657 
L 77.112066 54.270657 
L 73.832727 54.270657 
z
" clip-path="url(#pc212a3ac69)" style="fill: #ff7f0e"/>
   </g>
   <g id="PolyCollection_3">
    <path d="M 73.832727 54.270657 
L 73.832727 54.270657 
L 77.112066 54.270657 
L 80.391405 54.270657 
L 83.670744 54.270657 
L 86.950083 54.270657 
L 90.229421 54.270657 
L 93.50876 54.270657 
L 96.788099 54.270657 
L 100.067438 54.270657 
L 103.346777 54.270657 
L 106.626116 54.270657 
L 109.905455 54.270657 
L 113.184793 54.270657 
L 116.464132 54.270657 
L 119.743471 54.270657 
L 123.02281 54.270657 
L 126.302149 73.902441 
L 129.581488 93.534225 
L 132.860826 100.626999 
L 136.140165 155.722651 
L 139.419504 157.242531 
L 142.698843 81.375184 
L 145.978182 97.840552 
L 149.257521 74.409067 
L 152.53686 134.191016 
L 155.816198 140.270537 
L 159.095537 172.314675 
L 162.374876 100.500342 
L 165.654215 133.431076 
L 168.933554 219.810927 
L 172.212893 240.835934 
L 175.492231 196.379442 
L 178.77157 170.794795 
L 182.050909 170.034855 
L 185.330248 230.7034 
L 188.609587 168.388318 
L 191.888926 209.045109 
L 195.168264 191.566489 
L 198.447603 230.196774 
L 201.726942 195.366189 
L 205.006281 169.908198 
L 208.28562 183.460462 
L 211.564959 162.942081 
L 214.844298 183.460462 
L 218.123636 180.040732 
L 221.402975 183.460462 
L 224.682314 185.106999 
L 227.961653 193.086369 
L 231.240992 207.525229 
L 234.520331 176.114375 
L 237.799669 195.619502 
L 241.079008 219.810927 
L 244.358347 198.785919 
L 247.637686 220.697523 
L 250.917025 196.886069 
L 254.196364 214.111376 
L 257.475702 242.989097 
L 260.755041 205.118753 
L 264.03438 228.550237 
L 267.313719 241.975844 
L 270.593058 224.877193 
L 273.872397 279.086249 
L 277.151736 252.488348 
L 280.431074 232.98322 
L 283.710413 251.221781 
L 286.989752 263.380822 
L 290.269091 194.226279 
L 293.54843 159.269037 
L 296.827769 230.7034 
L 300.107107 217.151136 
L 303.386446 216.137883 
L 306.665785 216.517853 
L 309.945124 251.348438 
L 313.224463 243.749037 
L 316.503802 260.087748 
L 319.78314 235.136384 
L 323.062479 241.089247 
L 326.341818 307.584 
L 329.621157 307.584 
L 332.900496 307.584 
L 336.179835 307.584 
L 339.459174 307.584 
L 342.738512 307.584 
L 346.017851 307.584 
L 349.29719 307.584 
L 352.576529 307.584 
L 355.855868 307.584 
L 359.135207 307.584 
L 362.414545 307.584 
L 365.693884 307.584 
L 368.973223 307.584 
L 372.252562 307.584 
L 375.531901 307.584 
L 378.81124 307.584 
L 382.090579 307.584 
L 385.369917 307.584 
L 388.649256 307.584 
L 391.928595 307.584 
L 395.207934 307.584 
L 398.487273 307.584 
L 398.487273 307.584 
L 398.487273 307.584 
L 395.207934 307.584 
L 391.928595 307.584 
L 388.649256 307.584 
L 385.369917 307.584 
L 382.090579 307.584 
L 378.81124 307.584 
L 375.531901 307.584 
L 372.252562 307.584 
L 368.973223 307.584 
L 365.693884 307.584 
L 362.414545 307.584 
L 359.135207 307.584 
L 355.855868 307.584 
L 352.576529 307.584 
L 349.29719 270.600252 
L 346.017851 278.706279 
L 342.738512 283.012606 
L 339.459174 287.952216 
L 336.179835 288.078873 
L 332.900496 283.519232 
L 329.621157 269.840312 
L 326.341818 278.832936 
L 323.062479 221.710777 
L 319.78314 219.050987 
L 316.503802 217.911076 
L 313.224463 222.72403 
L 309.945124 227.790297 
L 306.665785 208.158513 
L 303.386446 192.833055 
L 300.107107 185.486969 
L 296.827769 181.180642 
L 293.54843 122.538603 
L 290.269091 160.282291 
L 286.989752 142.4237 
L 283.710413 144.070237 
L 280.431074 163.828678 
L 277.151736 179.787418 
L 273.872397 150.656384 
L 270.593058 138.624 
L 267.313719 155.595994 
L 264.03438 172.567988 
L 260.755041 153.696144 
L 257.475702 156.482591 
L 254.196364 149.009847 
L 250.917025 157.495844 
L 247.637686 160.662261 
L 244.358347 132.54448 
L 241.079008 162.562111 
L 237.799669 136.217523 
L 234.520331 130.517973 
L 231.240992 162.815424 
L 227.961653 136.977463 
L 224.682314 146.476714 
L 221.402975 137.357433 
L 218.123636 140.650507 
L 214.844298 126.971586 
L 211.564959 117.219022 
L 208.28562 132.037853 
L 205.006281 102.400192 
L 201.726942 102.273535 
L 198.447603 151.036354 
L 195.168264 114.305919 
L 191.888926 115.319172 
L 188.609587 99.360432 
L 185.330248 180.927328 
L 182.050909 100.753655 
L 178.77157 93.914195 
L 175.492231 127.858183 
L 172.212893 120.385439 
L 168.933554 107.593115 
L 165.654215 68.076234 
L 162.374876 54.270657 
L 159.095537 54.270657 
L 155.816198 54.270657 
L 152.53686 54.270657 
L 149.257521 54.270657 
L 145.978182 54.270657 
L 142.698843 54.397313 
L 139.419504 54.397313 
L 136.140165 54.270657 
L 132.860826 54.270657 
L 129.581488 54.270657 
L 126.302149 54.270657 
L 123.02281 54.270657 
L 119.743471 54.270657 
L 116.464132 54.270657 
L 113.184793 54.270657 
L 109.905455 54.270657 
L 106.626116 54.270657 
L 103.346777 54.270657 
L 100.067438 54.270657 
L 96.788099 54.270657 
L 93.50876 54.270657 
L 90.229421 54.270657 
L 86.950083 54.270657 
L 83.670744 54.270657 
L 80.391405 54.270657 
L 77.112066 54.270657 
L 73.832727 54.270657 
z
" clip-path="url(#pc212a3ac69)" style="fill: #2ca02c"/>
   </g>
   <g id="PolyCollection_4">
    <path d="M 73.832727 54.270657 
L 73.832727 54.270657 
L 77.112066 54.270657 
L 80.391405 54.270657 
L 83.670744 54.270657 
L 86.950083 54.270657 
L 90.229421 54.270657 
L 93.50876 54.270657 
L 96.788099 54.270657 
L 100.067438 54.270657 
L 103.346777 54.270657 
L 106.626116 54.270657 
L 109.905455 54.270657 
L 113.184793 54.270657 
L 116.464132 54.270657 
L 119.743471 54.270657 
L 123.02281 54.270657 
L 126.302149 54.270657 
L 129.581488 54.270657 
L 132.860826 54.270657 
L 136.140165 54.270657 
L 139.419504 54.397313 
L 142.698843 54.397313 
L 145.978182 54.270657 
L 149.257521 54.270657 
L 152.53686 54.270657 
L 155.816198 54.270657 
L 159.095537 54.270657 
L 162.374876 54.270657 
L 165.654215 68.076234 
L 168.933554 107.593115 
L 172.212893 120.385439 
L 175.492231 127.858183 
L 178.77157 93.914195 
L 182.050909 100.753655 
L 185.330248 180.927328 
L 188.609587 99.360432 
L 191.888926 115.319172 
L 195.168264 114.305919 
L 198.447603 151.036354 
L 201.726942 102.273535 
L 205.006281 102.400192 
L 208.28562 132.037853 
L 211.564959 117.219022 
L 214.844298 126.971586 
L 218.123636 140.650507 
L 221.402975 137.357433 
L 224.682314 146.476714 
L 227.961653 136.977463 
L 231.240992 162.815424 
L 234.520331 130.517973 
L 237.799669 136.217523 
L 241.079008 162.562111 
L 244.358347 132.54448 
L 247.637686 160.662261 
L 250.917025 157.495844 
L 254.196364 149.009847 
L 257.475702 156.482591 
L 260.755041 153.696144 
L 264.03438 172.567988 
L 267.313719 155.595994 
L 270.593058 138.624 
L 273.872397 150.656384 
L 277.151736 179.787418 
L 280.431074 163.828678 
L 283.710413 144.070237 
L 286.989752 142.4237 
L 290.269091 160.282291 
L 293.54843 122.538603 
L 296.827769 181.180642 
L 300.107107 185.486969 
L 303.386446 192.833055 
L 306.665785 208.158513 
L 309.945124 227.790297 
L 313.224463 222.72403 
L 316.503802 217.911076 
L 319.78314 219.050987 
L 323.062479 221.710777 
L 326.341818 278.832936 
L 329.621157 269.840312 
L 332.900496 283.519232 
L 336.179835 288.078873 
L 339.459174 287.952216 
L 342.738512 283.012606 
L 346.017851 278.706279 
L 349.29719 270.600252 
L 352.576529 307.584 
L 355.855868 307.584 
L 359.135207 307.584 
L 362.414545 307.584 
L 365.693884 307.584 
L 368.973223 307.584 
L 372.252562 307.584 
L 375.531901 307.584 
L 378.81124 307.584 
L 382.090579 307.584 
L 385.369917 307.584 
L 388.649256 307.584 
L 391.928595 307.584 
L 395.207934 307.584 
L 398.487273 307.584 
L 398.487273 307.584 
L 398.487273 307.584 
L 395.207934 307.584 
L 391.928595 307.584 
L 388.649256 275.666519 
L 385.369917 289.345439 
L 382.090579 300.871196 
L 378.81124 296.94484 
L 375.531901 291.878573 
L 372.252562 285.165769 
L 368.973223 293.778423 
L 365.693884 281.746039 
L 362.414545 296.1849 
L 359.135207 291.245289 
L 355.855868 286.812306 
L 352.576529 291.498603 
L 349.29719 237.669517 
L 346.017851 253.121631 
L 342.738512 249.701901 
L 339.459174 244.762291 
L 336.179835 250.715154 
L 332.900496 266.673895 
L 329.621157 263.380822 
L 326.341818 237.922831 
L 323.062479 193.719652 
L 319.78314 205.752036 
L 316.503802 173.834555 
L 313.224463 172.947958 
L 309.945124 178.520852 
L 306.665785 196.759412 
L 303.386446 152.556234 
L 300.107107 143.310297 
L 296.827769 138.624 
L 293.54843 87.961331 
L 290.269091 123.298543 
L 286.989752 113.419322 
L 283.710413 116.332426 
L 280.431074 133.051106 
L 277.151736 141.410447 
L 273.872397 112.532726 
L 270.593058 102.273535 
L 267.313719 112.532726 
L 264.03438 126.591616 
L 260.755041 105.059982 
L 257.475702 104.553355 
L 254.196364 110.759532 
L 250.917025 111.772786 
L 247.637686 113.039352 
L 244.358347 91.634375 
L 241.079008 120.005469 
L 237.799669 117.598993 
L 234.520331 100.247028 
L 231.240992 109.619622 
L 227.961653 96.700642 
L 224.682314 101.260282 
L 221.402975 86.948078 
L 218.123636 101.893565 
L 214.844298 83.401691 
L 211.564959 81.755154 
L 208.28562 73.522471 
L 205.006281 85.934825 
L 201.726942 82.008468 
L 198.447603 101.766909 
L 195.168264 83.908318 
L 191.888926 75.295664 
L 188.609587 61.490087 
L 185.330248 54.270657 
L 182.050909 54.270657 
L 178.77157 54.397313 
L 175.492231 54.397313 
L 172.212893 54.270657 
L 168.933554 54.270657 
L 165.654215 54.270657 
L 162.374876 54.270657 
L 159.095537 54.270657 
L 155.816198 54.270657 
L 152.53686 54.270657 
L 149.257521 54.270657 
L 145.978182 54.270657 
L 142.698843 54.397313 
L 139.419504 54.397313 
L 136.140165 54.270657 
L 132.860826 54.270657 
L 129.581488 54.270657 
L 126.302149 54.270657 
L 123.02281 54.270657 
L 119.743471 54.270657 
L 116.464132 54.270657 
L 113.184793 54.270657 
L 109.905455 54.270657 
L 106.626116 54.270657 
L 103.346777 54.270657 
L 100.067438 54.270657 
L 96.788099 54.270657 
L 93.50876 54.270657 
L 90.229421 54.270657 
L 86.950083 54.270657 
L 83.670744 54.270657 
L 80.391405 54.270657 
L 77.112066 54.270657 
L 73.832727 54.270657 
z
" clip-path="url(#pc212a3ac69)" style="fill: #d62728"/>
   </g>
   <g id="PolyCollection_5">
    <path d="M 73.832727 54.270657 
L 73.832727 54.270657 
L 77.112066 54.270657 
L 80.391405 54.270657 
L 83.670744 54.270657 
L 86.950083 54.270657 
L 90.229421 54.270657 
L 93.50876 54.270657 
L 96.788099 54.270657 
L 100.067438 54.270657 
L 103.346777 54.270657 
L 106.626116 54.270657 
L 109.905455 54.270657 
L 113.184793 54.270657 
L 116.464132 54.270657 
L 119.743471 54.270657 
L 123.02281 54.270657 
L 126.302149 54.270657 
L 129.581488 54.270657 
L 132.860826 54.270657 
L 136.140165 54.270657 
L 139.419504 54.397313 
L 142.698843 54.397313 
L 145.978182 54.270657 
L 149.257521 54.270657 
L 152.53686 54.270657 
L 155.816198 54.270657 
L 159.095537 54.270657 
L 162.374876 54.270657 
L 165.654215 54.270657 
L 168.933554 54.270657 
L 172.212893 54.270657 
L 175.492231 54.397313 
L 178.77157 54.397313 
L 182.050909 54.270657 
L 185.330248 54.270657 
L 188.609587 61.490087 
L 191.888926 75.295664 
L 195.168264 83.908318 
L 198.447603 101.766909 
L 201.726942 82.008468 
L 205.006281 85.934825 
L 208.28562 73.522471 
L 211.564959 81.755154 
L 214.844298 83.401691 
L 218.123636 101.893565 
L 221.402975 86.948078 
L 224.682314 101.260282 
L 227.961653 96.700642 
L 231.240992 109.619622 
L 234.520331 100.247028 
L 237.799669 117.598993 
L 241.079008 120.005469 
L 244.358347 91.634375 
L 247.637686 113.039352 
L 250.917025 111.772786 
L 254.196364 110.759532 
L 257.475702 104.553355 
L 260.755041 105.059982 
L 264.03438 126.591616 
L 267.313719 112.532726 
L 270.593058 102.273535 
L 273.872397 112.532726 
L 277.151736 141.410447 
L 280.431074 133.051106 
L 283.710413 116.332426 
L 286.989752 113.419322 
L 290.269091 123.298543 
L 293.54843 87.961331 
L 296.827769 138.624 
L 300.107107 143.310297 
L 303.386446 152.556234 
L 306.665785 196.759412 
L 309.945124 178.520852 
L 313.224463 172.947958 
L 316.503802 173.834555 
L 319.78314 205.752036 
L 323.062479 193.719652 
L 326.341818 237.922831 
L 329.621157 263.380822 
L 332.900496 266.673895 
L 336.179835 250.715154 
L 339.459174 244.762291 
L 342.738512 249.701901 
L 346.017851 253.121631 
L 349.29719 237.669517 
L 352.576529 291.498603 
L 355.855868 286.812306 
L 359.135207 291.245289 
L 362.414545 296.1849 
L 365.693884 281.746039 
L 368.973223 293.778423 
L 372.252562 285.165769 
L 375.531901 291.878573 
L 378.81124 296.94484 
L 382.090579 300.871196 
L 385.369917 289.345439 
L 388.649256 275.666519 
L 391.928595 307.584 
L 395.207934 307.584 
L 398.487273 307.584 
L 398.487273 307.584 
L 398.487273 307.584 
L 395.207934 307.584 
L 391.928595 307.584 
L 388.649256 275.666519 
L 385.369917 289.345439 
L 382.090579 300.871196 
L 378.81124 296.94484 
L 375.531901 291.878573 
L 372.252562 285.165769 
L 368.973223 293.778423 
L 365.693884 281.746039 
L 362.414545 296.1849 
L 359.135207 291.245289 
L 355.855868 286.812306 
L 352.576529 291.498603 
L 349.29719 237.669517 
L 346.017851 253.121631 
L 342.738512 249.701901 
L 339.459174 244.762291 
L 336.179835 250.715154 
L 332.900496 266.673895 
L 329.621157 263.380822 
L 326.341818 237.922831 
L 323.062479 193.719652 
L 319.78314 205.752036 
L 316.503802 173.834555 
L 313.224463 172.947958 
L 309.945124 178.520852 
L 306.665785 173.201271 
L 303.386446 123.171886 
L 300.107107 102.273535 
L 296.827769 86.948078 
L 293.54843 77.828798 
L 290.269091 74.915694 
L 286.989752 69.976084 
L 283.710413 64.529847 
L 280.431074 79.601991 
L 277.151736 73.142501 
L 273.872397 70.356054 
L 270.593058 58.197013 
L 267.313719 54.270657 
L 264.03438 54.270657 
L 260.755041 54.270657 
L 257.475702 54.270657 
L 254.196364 54.270657 
L 250.917025 54.144 
L 247.637686 54.144 
L 244.358347 54.270657 
L 241.079008 54.270657 
L 237.799669 54.270657 
L 234.520331 54.144 
L 231.240992 54.270657 
L 227.961653 54.270657 
L 224.682314 54.397313 
L 221.402975 54.270657 
L 218.123636 54.397313 
L 214.844298 54.397313 
L 211.564959 54.270657 
L 208.28562 54.397313 
L 205.006281 54.397313 
L 201.726942 54.397313 
L 198.447603 54.270657 
L 195.168264 54.144 
L 191.888926 54.270657 
L 188.609587 54.397313 
L 185.330248 54.270657 
L 182.050909 54.270657 
L 178.77157 54.397313 
L 175.492231 54.397313 
L 172.212893 54.270657 
L 168.933554 54.270657 
L 165.654215 54.270657 
L 162.374876 54.270657 
L 159.095537 54.270657 
L 155.816198 54.270657 
L 152.53686 54.270657 
L 149.257521 54.270657 
L 145.978182 54.270657 
L 142.698843 54.397313 
L 139.419504 54.397313 
L 136.140165 54.270657 
L 132.860826 54.270657 
L 129.581488 54.270657 
L 126.302149 54.270657 
L 123.02281 54.270657 
L 119.743471 54.270657 
L 116.464132 54.270657 
L 113.184793 54.270657 
L 109.905455 54.270657 
L 106.626116 54.270657 
L 103.346777 54.270657 
L 100.067438 54.270657 
L 96.788099 54.270657 
L 93.50876 54.270657 
L 90.229421 54.270657 
L 86.950083 54.270657 
L 83.670744 54.270657 
L 80.391405 54.270657 
L 77.112066 54.270657 
L 73.832727 54.270657 
z
" clip-path="url(#pc212a3ac69)" style="fill: #9467bd"/>
   </g>
   <g id="PolyCollection_6">
    <path d="M 73.832727 54.270657 
L 73.832727 54.270657 
L 77.112066 54.270657 
L 80.391405 54.270657 
L 83.670744 54.270657 
L 86.950083 54.270657 
L 90.229421 54.270657 
L 93.50876 54.270657 
L 96.788099 54.270657 
L 100.067438 54.270657 
L 103.346777 54.270657 
L 106.626116 54.270657 
L 109.905455 54.270657 
L 113.184793 54.270657 
L 116.464132 54.270657 
L 119.743471 54.270657 
L 123.02281 54.270657 
L 126.302149 54.270657 
L 129.581488 54.270657 
L 132.860826 54.270657 
L 136.140165 54.270657 
L 139.419504 54.397313 
L 142.698843 54.397313 
L 145.978182 54.270657 
L 149.257521 54.270657 
L 152.53686 54.270657 
L 155.816198 54.270657 
L 159.095537 54.270657 
L 162.374876 54.270657 
L 165.654215 54.270657 
L 168.933554 54.270657 
L 172.212893 54.270657 
L 175.492231 54.397313 
L 178.77157 54.397313 
L 182.050909 54.270657 
L 185.330248 54.270657 
L 188.609587 54.397313 
L 191.888926 54.270657 
L 195.168264 54.144 
L 198.447603 54.270657 
L 201.726942 54.397313 
L 205.006281 54.397313 
L 208.28562 54.397313 
L 211.564959 54.270657 
L 214.844298 54.397313 
L 218.123636 54.397313 
L 221.402975 54.270657 
L 224.682314 54.397313 
L 227.961653 54.270657 
L 231.240992 54.270657 
L 234.520331 54.144 
L 237.799669 54.270657 
L 241.079008 54.270657 
L 244.358347 54.270657 
L 247.637686 54.144 
L 250.917025 54.144 
L 254.196364 54.270657 
L 257.475702 54.270657 
L 260.755041 54.270657 
L 264.03438 54.270657 
L 267.313719 54.270657 
L 270.593058 58.197013 
L 273.872397 70.356054 
L 277.151736 73.142501 
L 280.431074 79.601991 
L 283.710413 64.529847 
L 286.989752 69.976084 
L 290.269091 74.915694 
L 293.54843 77.828798 
L 296.827769 86.948078 
L 300.107107 102.273535 
L 303.386446 123.171886 
L 306.665785 173.201271 
L 309.945124 178.520852 
L 313.224463 172.947958 
L 316.503802 173.834555 
L 319.78314 205.752036 
L 323.062479 193.719652 
L 326.341818 237.922831 
L 329.621157 263.380822 
L 332.900496 266.673895 
L 336.179835 250.715154 
L 339.459174 244.762291 
L 342.738512 249.701901 
L 346.017851 253.121631 
L 349.29719 237.669517 
L 352.576529 291.498603 
L 355.855868 286.812306 
L 359.135207 291.245289 
L 362.414545 296.1849 
L 365.693884 281.746039 
L 368.973223 293.778423 
L 372.252562 285.165769 
L 375.531901 291.878573 
L 378.81124 296.94484 
L 382.090579 300.871196 
L 385.369917 289.345439 
L 388.649256 275.666519 
L 391.928595 307.584 
L 395.207934 307.584 
L 398.487273 307.584 
L 398.487273 284.532486 
L 398.487273 284.532486 
L 395.207934 296.56487 
L 391.928595 287.952216 
L 388.649256 255.908078 
L 385.369917 264.394075 
L 382.090579 269.333685 
L 378.81124 254.514855 
L 375.531901 284.785799 
L 372.252562 274.399952 
L 368.973223 249.321931 
L 365.693884 210.56499 
L 362.414545 238.302801 
L 359.135207 247.042111 
L 355.855868 259.834435 
L 352.576529 263.507478 
L 349.29719 216.64451 
L 346.017851 236.149637 
L 342.738512 208.031856 
L 339.459174 232.349937 
L 336.179835 194.352936 
L 332.900496 214.618003 
L 329.621157 227.28367 
L 326.341818 194.352936 
L 323.062479 165.348558 
L 319.78314 188.020102 
L 316.503802 152.682891 
L 313.224463 141.537103 
L 309.945124 145.210147 
L 306.665785 152.176264 
L 303.386446 80.741901 
L 300.107107 64.909817 
L 296.827769 56.550477 
L 293.54843 54.397313 
L 290.269091 54.270657 
L 286.989752 54.397313 
L 283.710413 54.397313 
L 280.431074 54.270657 
L 277.151736 54.270657 
L 273.872397 54.397313 
L 270.593058 54.270657 
L 267.313719 54.270657 
L 264.03438 54.270657 
L 260.755041 54.270657 
L 257.475702 54.270657 
L 254.196364 54.270657 
L 250.917025 54.144 
L 247.637686 54.144 
L 244.358347 54.270657 
L 241.079008 54.270657 
L 237.799669 54.270657 
L 234.520331 54.144 
L 231.240992 54.270657 
L 227.961653 54.270657 
L 224.682314 54.397313 
L 221.402975 54.270657 
L 218.123636 54.397313 
L 214.844298 54.397313 
L 211.564959 54.270657 
L 208.28562 54.397313 
L 205.006281 54.397313 
L 201.726942 54.397313 
L 198.447603 54.270657 
L 195.168264 54.144 
L 191.888926 54.270657 
L 188.609587 54.397313 
L 185.330248 54.270657 
L 182.050909 54.270657 
L 178.77157 54.397313 
L 175.492231 54.397313 
L 172.212893 54.270657 
L 168.933554 54.270657 
L 165.654215 54.270657 
L 162.374876 54.270657 
L 159.095537 54.270657 
L 155.816198 54.270657 
L 152.53686 54.270657 
L 149.257521 54.270657 
L 145.978182 54.270657 
L 142.698843 54.397313 
L 139.419504 54.397313 
L 136.140165 54.270657 
L 132.860826 54.270657 
L 129.581488 54.270657 
L 126.302149 54.270657 
L 123.02281 54.270657 
L 119.743471 54.270657 
L 116.464132 54.270657 
L 113.184793 54.270657 
L 109.905455 54.270657 
L 106.626116 54.270657 
L 103.346777 54.270657 
L 100.067438 54.270657 
L 96.788099 54.270657 
L 93.50876 54.270657 
L 90.229421 54.270657 
L 86.950083 54.270657 
L 83.670744 54.270657 
L 80.391405 54.270657 
L 77.112066 54.270657 
L 73.832727 54.270657 
z
" clip-path="url(#pc212a3ac69)" style="fill: #8c564b"/>
   </g>
   <g id="PolyCollection_7">
    <path d="M 73.832727 54.270657 
L 73.832727 54.270657 
L 77.112066 54.270657 
L 80.391405 54.270657 
L 83.670744 54.270657 
L 86.950083 54.270657 
L 90.229421 54.270657 
L 93.50876 54.270657 
L 96.788099 54.270657 
L 100.067438 54.270657 
L 103.346777 54.270657 
L 106.626116 54.270657 
L 109.905455 54.270657 
L 113.184793 54.270657 
L 116.464132 54.270657 
L 119.743471 54.270657 
L 123.02281 54.270657 
L 126.302149 54.270657 
L 129.581488 54.270657 
L 132.860826 54.270657 
L 136.140165 54.270657 
L 139.419504 54.397313 
L 142.698843 54.397313 
L 145.978182 54.270657 
L 149.257521 54.270657 
L 152.53686 54.270657 
L 155.816198 54.270657 
L 159.095537 54.270657 
L 162.374876 54.270657 
L 165.654215 54.270657 
L 168.933554 54.270657 
L 172.212893 54.270657 
L 175.492231 54.397313 
L 178.77157 54.397313 
L 182.050909 54.270657 
L 185.330248 54.270657 
L 188.609587 54.397313 
L 191.888926 54.270657 
L 195.168264 54.144 
L 198.447603 54.270657 
L 201.726942 54.397313 
L 205.006281 54.397313 
L 208.28562 54.397313 
L 211.564959 54.270657 
L 214.844298 54.397313 
L 218.123636 54.397313 
L 221.402975 54.270657 
L 224.682314 54.397313 
L 227.961653 54.270657 
L 231.240992 54.270657 
L 234.520331 54.144 
L 237.799669 54.270657 
L 241.079008 54.270657 
L 244.358347 54.270657 
L 247.637686 54.144 
L 250.917025 54.144 
L 254.196364 54.270657 
L 257.475702 54.270657 
L 260.755041 54.270657 
L 264.03438 54.270657 
L 267.313719 54.270657 
L 270.593058 54.270657 
L 273.872397 54.397313 
L 277.151736 54.270657 
L 280.431074 54.270657 
L 283.710413 54.397313 
L 286.989752 54.397313 
L 290.269091 54.270657 
L 293.54843 54.397313 
L 296.827769 56.550477 
L 300.107107 64.909817 
L 303.386446 80.741901 
L 306.665785 152.176264 
L 309.945124 145.210147 
L 313.224463 141.537103 
L 316.503802 152.682891 
L 319.78314 188.020102 
L 323.062479 165.348558 
L 326.341818 194.352936 
L 329.621157 227.28367 
L 332.900496 214.618003 
L 336.179835 194.352936 
L 339.459174 232.349937 
L 342.738512 208.031856 
L 346.017851 236.149637 
L 349.29719 216.64451 
L 352.576529 263.507478 
L 355.855868 259.834435 
L 359.135207 247.042111 
L 362.414545 238.302801 
L 365.693884 210.56499 
L 368.973223 249.321931 
L 372.252562 274.399952 
L 375.531901 284.785799 
L 378.81124 254.514855 
L 382.090579 269.333685 
L 385.369917 264.394075 
L 388.649256 255.908078 
L 391.928595 287.952216 
L 395.207934 296.56487 
L 398.487273 284.532486 
L 398.487273 267.687148 
L 398.487273 267.687148 
L 395.207934 286.179022 
L 391.928595 261.480972 
L 388.649256 203.852186 
L 385.369917 199.925829 
L 382.090579 233.869817 
L 378.81124 224.877193 
L 375.531901 255.781421 
L 372.252562 257.554615 
L 368.973223 197.266039 
L 365.693884 175.734405 
L 362.414545 214.111376 
L 359.135207 211.831556 
L 355.855868 225.637133 
L 352.576529 184.980342 
L 349.29719 195.112876 
L 346.017851 216.391196 
L 342.738512 188.780042 
L 339.459174 217.657763 
L 336.179835 173.961211 
L 332.900496 193.592996 
L 329.621157 177.507598 
L 326.341818 159.395694 
L 323.062479 119.625499 
L 319.78314 87.581361 
L 316.503802 84.414945 
L 313.224463 98.980462 
L 309.945124 98.727148 
L 306.665785 127.098243 
L 303.386446 65.669757 
L 300.107107 54.144 
L 296.827769 54.270657 
L 293.54843 54.397313 
L 290.269091 54.270657 
L 286.989752 54.397313 
L 283.710413 54.397313 
L 280.431074 54.270657 
L 277.151736 54.270657 
L 273.872397 54.397313 
L 270.593058 54.270657 
L 267.313719 54.270657 
L 264.03438 54.270657 
L 260.755041 54.270657 
L 257.475702 54.270657 
L 254.196364 54.270657 
L 250.917025 54.144 
L 247.637686 54.144 
L 244.358347 54.270657 
L 241.079008 54.270657 
L 237.799669 54.270657 
L 234.520331 54.144 
L 231.240992 54.270657 
L 227.961653 54.270657 
L 224.682314 54.397313 
L 221.402975 54.270657 
L 218.123636 54.397313 
L 214.844298 54.397313 
L 211.564959 54.270657 
L 208.28562 54.397313 
L 205.006281 54.397313 
L 201.726942 54.397313 
L 198.447603 54.270657 
L 195.168264 54.144 
L 191.888926 54.270657 
L 188.609587 54.397313 
L 185.330248 54.270657 
L 182.050909 54.270657 
L 178.77157 54.397313 
L 175.492231 54.397313 
L 172.212893 54.270657 
L 168.933554 54.270657 
L 165.654215 54.270657 
L 162.374876 54.270657 
L 159.095537 54.270657 
L 155.816198 54.270657 
L 152.53686 54.270657 
L 149.257521 54.270657 
L 145.978182 54.270657 
L 142.698843 54.397313 
L 139.419504 54.397313 
L 136.140165 54.270657 
L 132.860826 54.270657 
L 129.581488 54.270657 
L 126.302149 54.270657 
L 123.02281 54.270657 
L 119.743471 54.270657 
L 116.464132 54.270657 
L 113.184793 54.270657 
L 109.905455 54.270657 
L 106.626116 54.270657 
L 103.346777 54.270657 
L 100.067438 54.270657 
L 96.788099 54.270657 
L 93.50876 54.270657 
L 90.229421 54.270657 
L 86.950083 54.270657 
L 83.670744 54.270657 
L 80.391405 54.270657 
L 77.112066 54.270657 
L 73.832727 54.270657 
z
" clip-path="url(#pc212a3ac69)" style="fill: #e377c2"/>
   </g>
   <g id="PolyCollection_8">
    <path d="M 73.832727 54.270657 
L 73.832727 54.270657 
L 77.112066 54.270657 
L 80.391405 54.270657 
L 83.670744 54.270657 
L 86.950083 54.270657 
L 90.229421 54.270657 
L 93.50876 54.270657 
L 96.788099 54.270657 
L 100.067438 54.270657 
L 103.346777 54.270657 
L 106.626116 54.270657 
L 109.905455 54.270657 
L 113.184793 54.270657 
L 116.464132 54.270657 
L 119.743471 54.270657 
L 123.02281 54.270657 
L 126.302149 54.270657 
L 129.581488 54.270657 
L 132.860826 54.270657 
L 136.140165 54.270657 
L 139.419504 54.397313 
L 142.698843 54.397313 
L 145.978182 54.270657 
L 149.257521 54.270657 
L 152.53686 54.270657 
L 155.816198 54.270657 
L 159.095537 54.270657 
L 162.374876 54.270657 
L 165.654215 54.270657 
L 168.933554 54.270657 
L 172.212893 54.270657 
L 175.492231 54.397313 
L 178.77157 54.397313 
L 182.050909 54.270657 
L 185.330248 54.270657 
L 188.609587 54.397313 
L 191.888926 54.270657 
L 195.168264 54.144 
L 198.447603 54.270657 
L 201.726942 54.397313 
L 205.006281 54.397313 
L 208.28562 54.397313 
L 211.564959 54.270657 
L 214.844298 54.397313 
L 218.123636 54.397313 
L 221.402975 54.270657 
L 224.682314 54.397313 
L 227.961653 54.270657 
L 231.240992 54.270657 
L 234.520331 54.144 
L 237.799669 54.270657 
L 241.079008 54.270657 
L 244.358347 54.270657 
L 247.637686 54.144 
L 250.917025 54.144 
L 254.196364 54.270657 
L 257.475702 54.270657 
L 260.755041 54.270657 
L 264.03438 54.270657 
L 267.313719 54.270657 
L 270.593058 54.270657 
L 273.872397 54.397313 
L 277.151736 54.270657 
L 280.431074 54.270657 
L 283.710413 54.397313 
L 286.989752 54.397313 
L 290.269091 54.270657 
L 293.54843 54.397313 
L 296.827769 54.270657 
L 300.107107 54.144 
L 303.386446 65.669757 
L 306.665785 127.098243 
L 309.945124 98.727148 
L 313.224463 98.980462 
L 316.503802 84.414945 
L 319.78314 87.581361 
L 323.062479 119.625499 
L 326.341818 159.395694 
L 329.621157 177.507598 
L 332.900496 193.592996 
L 336.179835 173.961211 
L 339.459174 217.657763 
L 342.738512 188.780042 
L 346.017851 216.391196 
L 349.29719 195.112876 
L 352.576529 184.980342 
L 355.855868 225.637133 
L 359.135207 211.831556 
L 362.414545 214.111376 
L 365.693884 175.734405 
L 368.973223 197.266039 
L 372.252562 257.554615 
L 375.531901 255.781421 
L 378.81124 224.877193 
L 382.090579 233.869817 
L 385.369917 199.925829 
L 388.649256 203.852186 
L 391.928595 261.480972 
L 395.207934 286.179022 
L 398.487273 267.687148 
L 398.487273 225.130507 
L 398.487273 225.130507 
L 395.207934 241.595874 
L 391.928595 239.949337 
L 388.649256 184.980342 
L 385.369917 190.426579 
L 382.090579 224.877193 
L 378.81124 195.239532 
L 375.531901 225.637133 
L 372.252562 221.077493 
L 368.973223 171.681391 
L 365.693884 141.410447 
L 362.414545 159.649007 
L 359.135207 172.947958 
L 355.855868 188.273415 
L 352.576529 163.955334 
L 349.29719 157.242531 
L 346.017851 163.575364 
L 342.738512 130.26466 
L 339.459174 166.488468 
L 336.179835 110.886189 
L 332.900496 97.460582 
L 329.621157 98.347178 
L 326.341818 106.199892 
L 323.062479 57.18376 
L 319.78314 54.397313 
L 316.503802 54.397313 
L 313.224463 54.270657 
L 309.945124 54.270657 
L 306.665785 54.270657 
L 303.386446 54.144 
L 300.107107 54.144 
L 296.827769 54.270657 
L 293.54843 54.397313 
L 290.269091 54.270657 
L 286.989752 54.397313 
L 283.710413 54.397313 
L 280.431074 54.270657 
L 277.151736 54.270657 
L 273.872397 54.397313 
L 270.593058 54.270657 
L 267.313719 54.270657 
L 264.03438 54.270657 
L 260.755041 54.270657 
L 257.475702 54.270657 
L 254.196364 54.270657 
L 250.917025 54.144 
L 247.637686 54.144 
L 244.358347 54.270657 
L 241.079008 54.270657 
L 237.799669 54.270657 
L 234.520331 54.144 
L 231.240992 54.270657 
L 227.961653 54.270657 
L 224.682314 54.397313 
L 221.402975 54.270657 
L 218.123636 54.397313 
L 214.844298 54.397313 
L 211.564959 54.270657 
L 208.28562 54.397313 
L 205.006281 54.397313 
L 201.726942 54.397313 
L 198.447603 54.270657 
L 195.168264 54.144 
L 191.888926 54.270657 
L 188.609587 54.397313 
L 185.330248 54.270657 
L 182.050909 54.270657 
L 178.77157 54.397313 
L 175.492231 54.397313 
L 172.212893 54.270657 
L 168.933554 54.270657 
L 165.654215 54.270657 
L 162.374876 54.270657 
L 159.095537 54.270657 
L 155.816198 54.270657 
L 152.53686 54.270657 
L 149.257521 54.270657 
L 145.978182 54.270657 
L 142.698843 54.397313 
L 139.419504 54.397313 
L 136.140165 54.270657 
L 132.860826 54.270657 
L 129.581488 54.270657 
L 126.302149 54.270657 
L 123.02281 54.270657 
L 119.743471 54.270657 
L 116.464132 54.270657 
L 113.184793 54.270657 
L 109.905455 54.270657 
L 106.626116 54.270657 
L 103.346777 54.270657 
L 100.067438 54.270657 
L 96.788099 54.270657 
L 93.50876 54.270657 
L 90.229421 54.270657 
L 86.950083 54.270657 
L 83.670744 54.270657 
L 80.391405 54.270657 
L 77.112066 54.270657 
L 73.832727 54.270657 
z
" clip-path="url(#pc212a3ac69)" style="fill: #7f7f7f"/>
   </g>
   <g id="PolyCollection_9">
    <path d="M 73.832727 54.270657 
L 73.832727 54.270657 
L 77.112066 54.270657 
L 80.391405 54.270657 
L 83.670744 54.270657 
L 86.950083 54.270657 
L 90.229421 54.270657 
L 93.50876 54.270657 
L 96.788099 54.270657 
L 100.067438 54.270657 
L 103.346777 54.270657 
L 106.626116 54.270657 
L 109.905455 54.270657 
L 113.184793 54.270657 
L 116.464132 54.270657 
L 119.743471 54.270657 
L 123.02281 54.270657 
L 126.302149 54.270657 
L 129.581488 54.270657 
L 132.860826 54.270657 
L 136.140165 54.270657 
L 139.419504 54.397313 
L 142.698843 54.397313 
L 145.978182 54.270657 
L 149.257521 54.270657 
L 152.53686 54.270657 
L 155.816198 54.270657 
L 159.095537 54.270657 
L 162.374876 54.270657 
L 165.654215 54.270657 
L 168.933554 54.270657 
L 172.212893 54.270657 
L 175.492231 54.397313 
L 178.77157 54.397313 
L 182.050909 54.270657 
L 185.330248 54.270657 
L 188.609587 54.397313 
L 191.888926 54.270657 
L 195.168264 54.144 
L 198.447603 54.270657 
L 201.726942 54.397313 
L 205.006281 54.397313 
L 208.28562 54.397313 
L 211.564959 54.270657 
L 214.844298 54.397313 
L 218.123636 54.397313 
L 221.402975 54.270657 
L 224.682314 54.397313 
L 227.961653 54.270657 
L 231.240992 54.270657 
L 234.520331 54.144 
L 237.799669 54.270657 
L 241.079008 54.270657 
L 244.358347 54.270657 
L 247.637686 54.144 
L 250.917025 54.144 
L 254.196364 54.270657 
L 257.475702 54.270657 
L 260.755041 54.270657 
L 264.03438 54.270657 
L 267.313719 54.270657 
L 270.593058 54.270657 
L 273.872397 54.397313 
L 277.151736 54.270657 
L 280.431074 54.270657 
L 283.710413 54.397313 
L 286.989752 54.397313 
L 290.269091 54.270657 
L 293.54843 54.397313 
L 296.827769 54.270657 
L 300.107107 54.144 
L 303.386446 54.144 
L 306.665785 54.270657 
L 309.945124 54.270657 
L 313.224463 54.270657 
L 316.503802 54.397313 
L 319.78314 54.397313 
L 323.062479 57.18376 
L 326.341818 106.199892 
L 329.621157 98.347178 
L 332.900496 97.460582 
L 336.179835 110.886189 
L 339.459174 166.488468 
L 342.738512 130.26466 
L 346.017851 163.575364 
L 349.29719 157.242531 
L 352.576529 163.955334 
L 355.855868 188.273415 
L 359.135207 172.947958 
L 362.414545 159.649007 
L 365.693884 141.410447 
L 368.973223 171.681391 
L 372.252562 221.077493 
L 375.531901 225.637133 
L 378.81124 195.239532 
L 382.090579 224.877193 
L 385.369917 190.426579 
L 388.649256 184.980342 
L 391.928595 239.949337 
L 395.207934 241.595874 
L 398.487273 225.130507 
L 398.487273 211.831556 
L 398.487273 211.831556 
L 395.207934 226.397073 
L 391.928595 219.430957 
L 388.649256 174.974465 
L 385.369917 165.348558 
L 382.090579 206.638633 
L 378.81124 173.961211 
L 375.531901 203.218903 
L 372.252562 197.772666 
L 368.973223 146.2234 
L 365.693884 119.625499 
L 362.414545 139.890567 
L 359.135207 154.456084 
L 355.855868 158.509097 
L 352.576529 138.117373 
L 349.29719 144.956834 
L 346.017851 144.070237 
L 342.738512 114.432576 
L 339.459174 144.576864 
L 336.179835 80.741901 
L 332.900496 77.448828 
L 329.621157 68.076234 
L 326.341818 63.26328 
L 323.062479 54.270657 
L 319.78314 54.397313 
L 316.503802 54.397313 
L 313.224463 54.270657 
L 309.945124 54.270657 
L 306.665785 54.270657 
L 303.386446 54.144 
L 300.107107 54.144 
L 296.827769 54.270657 
L 293.54843 54.397313 
L 290.269091 54.270657 
L 286.989752 54.397313 
L 283.710413 54.397313 
L 280.431074 54.270657 
L 277.151736 54.270657 
L 273.872397 54.397313 
L 270.593058 54.270657 
L 267.313719 54.270657 
L 264.03438 54.270657 
L 260.755041 54.270657 
L 257.475702 54.270657 
L 254.196364 54.270657 
L 250.917025 54.144 
L 247.637686 54.144 
L 244.358347 54.270657 
L 241.079008 54.270657 
L 237.799669 54.270657 
L 234.520331 54.144 
L 231.240992 54.270657 
L 227.961653 54.270657 
L 224.682314 54.397313 
L 221.402975 54.270657 
L 218.123636 54.397313 
L 214.844298 54.397313 
L 211.564959 54.270657 
L 208.28562 54.397313 
L 205.006281 54.397313 
L 201.726942 54.397313 
L 198.447603 54.270657 
L 195.168264 54.144 
L 191.888926 54.270657 
L 188.609587 54.397313 
L 185.330248 54.270657 
L 182.050909 54.270657 
L 178.77157 54.397313 
L 175.492231 54.397313 
L 172.212893 54.270657 
L 168.933554 54.270657 
L 165.654215 54.270657 
L 162.374876 54.270657 
L 159.095537 54.270657 
L 155.816198 54.270657 
L 152.53686 54.270657 
L 149.257521 54.270657 
L 145.978182 54.270657 
L 142.698843 54.397313 
L 139.419504 54.397313 
L 136.140165 54.270657 
L 132.860826 54.270657 
L 129.581488 54.270657 
L 126.302149 54.270657 
L 123.02281 54.270657 
L 119.743471 54.270657 
L 116.464132 54.270657 
L 113.184793 54.270657 
L 109.905455 54.270657 
L 106.626116 54.270657 
L 103.346777 54.270657 
L 100.067438 54.270657 
L 96.788099 54.270657 
L 93.50876 54.270657 
L 90.229421 54.270657 
L 86.950083 54.270657 
L 83.670744 54.270657 
L 80.391405 54.270657 
L 77.112066 54.270657 
L 73.832727 54.270657 
z
" clip-path="url(#pc212a3ac69)" style="fill: #bcbd22"/>
   </g>
   <g id="PolyCollection_10">
    <path d="M 73.832727 54.270657 
L 73.832727 54.270657 
L 77.112066 54.270657 
L 80.391405 54.270657 
L 83.670744 54.270657 
L 86.950083 54.270657 
L 90.229421 54.270657 
L 93.50876 54.270657 
L 96.788099 54.270657 
L 100.067438 54.270657 
L 103.346777 54.270657 
L 106.626116 54.270657 
L 109.905455 54.270657 
L 113.184793 54.270657 
L 116.464132 54.270657 
L 119.743471 54.270657 
L 123.02281 54.270657 
L 126.302149 54.270657 
L 129.581488 54.270657 
L 132.860826 54.270657 
L 136.140165 54.270657 
L 139.419504 54.397313 
L 142.698843 54.397313 
L 145.978182 54.270657 
L 149.257521 54.270657 
L 152.53686 54.270657 
L 155.816198 54.270657 
L 159.095537 54.270657 
L 162.374876 54.270657 
L 165.654215 54.270657 
L 168.933554 54.270657 
L 172.212893 54.270657 
L 175.492231 54.397313 
L 178.77157 54.397313 
L 182.050909 54.270657 
L 185.330248 54.270657 
L 188.609587 54.397313 
L 191.888926 54.270657 
L 195.168264 54.144 
L 198.447603 54.270657 
L 201.726942 54.397313 
L 205.006281 54.397313 
L 208.28562 54.397313 
L 211.564959 54.270657 
L 214.844298 54.397313 
L 218.123636 54.397313 
L 221.402975 54.270657 
L 224.682314 54.397313 
L 227.961653 54.270657 
L 231.240992 54.270657 
L 234.520331 54.144 
L 237.799669 54.270657 
L 241.079008 54.270657 
L 244.358347 54.270657 
L 247.637686 54.144 
L 250.917025 54.144 
L 254.196364 54.270657 
L 257.475702 54.270657 
L 260.755041 54.270657 
L 264.03438 54.270657 
L 267.313719 54.270657 
L 270.593058 54.270657 
L 273.872397 54.397313 
L 277.151736 54.270657 
L 280.431074 54.270657 
L 283.710413 54.397313 
L 286.989752 54.397313 
L 290.269091 54.270657 
L 293.54843 54.397313 
L 296.827769 54.270657 
L 300.107107 54.144 
L 303.386446 54.144 
L 306.665785 54.270657 
L 309.945124 54.270657 
L 313.224463 54.270657 
L 316.503802 54.397313 
L 319.78314 54.397313 
L 323.062479 54.270657 
L 326.341818 63.26328 
L 329.621157 68.076234 
L 332.900496 77.448828 
L 336.179835 80.741901 
L 339.459174 144.576864 
L 342.738512 114.432576 
L 346.017851 144.070237 
L 349.29719 144.956834 
L 352.576529 138.117373 
L 355.855868 158.509097 
L 359.135207 154.456084 
L 362.414545 139.890567 
L 365.693884 119.625499 
L 368.973223 146.2234 
L 372.252562 197.772666 
L 375.531901 203.218903 
L 378.81124 173.961211 
L 382.090579 206.638633 
L 385.369917 165.348558 
L 388.649256 174.974465 
L 391.928595 219.430957 
L 395.207934 226.397073 
L 398.487273 211.831556 
L 398.487273 196.506099 
L 398.487273 196.506099 
L 395.207934 198.659262 
L 391.928595 186.120252 
L 388.649256 150.276414 
L 385.369917 146.096744 
L 382.090579 188.400072 
L 378.81124 141.537103 
L 375.531901 174.467838 
L 372.252562 170.414825 
L 368.973223 119.752156 
L 365.693884 95.434075 
L 362.414545 114.685889 
L 359.135207 129.251406 
L 355.855868 129.12475 
L 352.576529 122.158633 
L 349.29719 112.912696 
L 346.017851 114.559232 
L 342.738512 79.728648 
L 339.459174 102.400192 
L 336.179835 58.070357 
L 332.900496 55.28391 
L 329.621157 54.650627 
L 326.341818 54.144 
L 323.062479 54.270657 
L 319.78314 54.397313 
L 316.503802 54.397313 
L 313.224463 54.270657 
L 309.945124 54.270657 
L 306.665785 54.270657 
L 303.386446 54.144 
L 300.107107 54.144 
L 296.827769 54.270657 
L 293.54843 54.397313 
L 290.269091 54.270657 
L 286.989752 54.397313 
L 283.710413 54.397313 
L 280.431074 54.270657 
L 277.151736 54.270657 
L 273.872397 54.397313 
L 270.593058 54.270657 
L 267.313719 54.270657 
L 264.03438 54.270657 
L 260.755041 54.270657 
L 257.475702 54.270657 
L 254.196364 54.270657 
L 250.917025 54.144 
L 247.637686 54.144 
L 244.358347 54.270657 
L 241.079008 54.270657 
L 237.799669 54.270657 
L 234.520331 54.144 
L 231.240992 54.270657 
L 227.961653 54.270657 
L 224.682314 54.397313 
L 221.402975 54.270657 
L 218.123636 54.397313 
L 214.844298 54.397313 
L 211.564959 54.270657 
L 208.28562 54.397313 
L 205.006281 54.397313 
L 201.726942 54.397313 
L 198.447603 54.270657 
L 195.168264 54.144 
L 191.888926 54.270657 
L 188.609587 54.397313 
L 185.330248 54.270657 
L 182.050909 54.270657 
L 178.77157 54.397313 
L 175.492231 54.397313 
L 172.212893 54.270657 
L 168.933554 54.270657 
L 165.654215 54.270657 
L 162.374876 54.270657 
L 159.095537 54.270657 
L 155.816198 54.270657 
L 152.53686 54.270657 
L 149.257521 54.270657 
L 145.978182 54.270657 
L 142.698843 54.397313 
L 139.419504 54.397313 
L 136.140165 54.270657 
L 132.860826 54.270657 
L 129.581488 54.270657 
L 126.302149 54.270657 
L 123.02281 54.270657 
L 119.743471 54.270657 
L 116.464132 54.270657 
L 113.184793 54.270657 
L 109.905455 54.270657 
L 106.626116 54.270657 
L 103.346777 54.270657 
L 100.067438 54.270657 
L 96.788099 54.270657 
L 93.50876 54.270657 
L 90.229421 54.270657 
L 86.950083 54.270657 
L 83.670744 54.270657 
L 80.391405 54.270657 
L 77.112066 54.270657 
L 73.832727 54.270657 
z
" clip-path="url(#pc212a3ac69)" style="fill: #17becf"/>
   </g>
   <g id="PolyCollection_11">
    <path d="M 73.832727 54.270657 
L 73.832727 54.270657 
L 77.112066 54.270657 
L 80.391405 54.270657 
L 83.670744 54.270657 
L 86.950083 54.270657 
L 90.229421 54.270657 
L 93.50876 54.270657 
L 96.788099 54.270657 
L 100.067438 54.270657 
L 103.346777 54.270657 
L 106.626116 54.270657 
L 109.905455 54.270657 
L 113.184793 54.270657 
L 116.464132 54.270657 
L 119.743471 54.270657 
L 123.02281 54.270657 
L 126.302149 54.270657 
L 129.581488 54.270657 
L 132.860826 54.270657 
L 136.140165 54.270657 
L 139.419504 54.397313 
L 142.698843 54.397313 
L 145.978182 54.270657 
L 149.257521 54.270657 
L 152.53686 54.270657 
L 155.816198 54.270657 
L 159.095537 54.270657 
L 162.374876 54.270657 
L 165.654215 54.270657 
L 168.933554 54.270657 
L 172.212893 54.270657 
L 175.492231 54.397313 
L 178.77157 54.397313 
L 182.050909 54.270657 
L 185.330248 54.270657 
L 188.609587 54.397313 
L 191.888926 54.270657 
L 195.168264 54.144 
L 198.447603 54.270657 
L 201.726942 54.397313 
L 205.006281 54.397313 
L 208.28562 54.397313 
L 211.564959 54.270657 
L 214.844298 54.397313 
L 218.123636 54.397313 
L 221.402975 54.270657 
L 224.682314 54.397313 
L 227.961653 54.270657 
L 231.240992 54.270657 
L 234.520331 54.144 
L 237.799669 54.270657 
L 241.079008 54.270657 
L 244.358347 54.270657 
L 247.637686 54.144 
L 250.917025 54.144 
L 254.196364 54.270657 
L 257.475702 54.270657 
L 260.755041 54.270657 
L 264.03438 54.270657 
L 267.313719 54.270657 
L 270.593058 54.270657 
L 273.872397 54.397313 
L 277.151736 54.270657 
L 280.431074 54.270657 
L 283.710413 54.397313 
L 286.989752 54.397313 
L 290.269091 54.270657 
L 293.54843 54.397313 
L 296.827769 54.270657 
L 300.107107 54.144 
L 303.386446 54.144 
L 306.665785 54.270657 
L 309.945124 54.270657 
L 313.224463 54.270657 
L 316.503802 54.397313 
L 319.78314 54.397313 
L 323.062479 54.270657 
L 326.341818 54.144 
L 329.621157 54.650627 
L 332.900496 55.28391 
L 336.179835 58.070357 
L 339.459174 102.400192 
L 342.738512 79.728648 
L 346.017851 114.559232 
L 349.29719 112.912696 
L 352.576529 122.158633 
L 355.855868 129.12475 
L 359.135207 129.251406 
L 362.414545 114.685889 
L 365.693884 95.434075 
L 368.973223 119.752156 
L 372.252562 170.414825 
L 375.531901 174.467838 
L 378.81124 141.537103 
L 382.090579 188.400072 
L 385.369917 146.096744 
L 388.649256 150.276414 
L 391.928595 186.120252 
L 395.207934 198.659262 
L 398.487273 196.506099 
L 398.487273 141.030477 
L 398.487273 141.030477 
L 395.207934 131.657883 
L 391.928595 159.902321 
L 388.649256 132.54448 
L 385.369917 120.385439 
L 382.090579 162.688768 
L 378.81124 133.557733 
L 375.531901 120.258783 
L 372.252562 111.392816 
L 368.973223 107.213145 
L 365.693884 87.328048 
L 362.414545 102.906819 
L 359.135207 120.132126 
L 355.855868 119.878813 
L 352.576529 111.392816 
L 349.29719 106.579862 
L 346.017851 107.213145 
L 342.738512 74.029097 
L 339.459174 98.727148 
L 336.179835 55.410567 
L 332.900496 54.270657 
L 329.621157 54.270657 
L 326.341818 54.144 
L 323.062479 54.270657 
L 319.78314 54.397313 
L 316.503802 54.397313 
L 313.224463 54.270657 
L 309.945124 54.270657 
L 306.665785 54.270657 
L 303.386446 54.144 
L 300.107107 54.144 
L 296.827769 54.270657 
L 293.54843 54.397313 
L 290.269091 54.270657 
L 286.989752 54.397313 
L 283.710413 54.397313 
L 280.431074 54.270657 
L 277.151736 54.270657 
L 273.872397 54.397313 
L 270.593058 54.270657 
L 267.313719 54.270657 
L 264.03438 54.270657 
L 260.755041 54.270657 
L 257.475702 54.270657 
L 254.196364 54.270657 
L 250.917025 54.144 
L 247.637686 54.144 
L 244.358347 54.270657 
L 241.079008 54.270657 
L 237.799669 54.270657 
L 234.520331 54.144 
L 231.240992 54.270657 
L 227.961653 54.270657 
L 224.682314 54.397313 
L 221.402975 54.270657 
L 218.123636 54.397313 
L 214.844298 54.397313 
L 211.564959 54.270657 
L 208.28562 54.397313 
L 205.006281 54.397313 
L 201.726942 54.397313 
L 198.447603 54.270657 
L 195.168264 54.144 
L 191.888926 54.270657 
L 188.609587 54.397313 
L 185.330248 54.270657 
L 182.050909 54.270657 
L 178.77157 54.397313 
L 175.492231 54.397313 
L 172.212893 54.270657 
L 168.933554 54.270657 
L 165.654215 54.270657 
L 162.374876 54.270657 
L 159.095537 54.270657 
L 155.816198 54.270657 
L 152.53686 54.270657 
L 149.257521 54.270657 
L 145.978182 54.270657 
L 142.698843 54.397313 
L 139.419504 54.397313 
L 136.140165 54.270657 
L 132.860826 54.270657 
L 129.581488 54.270657 
L 126.302149 54.270657 
L 123.02281 54.270657 
L 119.743471 54.270657 
L 116.464132 54.270657 
L 113.184793 54.270657 
L 109.905455 54.270657 
L 106.626116 54.270657 
L 103.346777 54.270657 
L 100.067438 54.270657 
L 96.788099 54.270657 
L 93.50876 54.270657 
L 90.229421 54.270657 
L 86.950083 54.270657 
L 83.670744 54.270657 
L 80.391405 54.270657 
L 77.112066 54.270657 
L 73.832727 54.270657 
z
" clip-path="url(#pc212a3ac69)" style="fill: #1f77b4"/>
   </g>
   <g id="PolyCollection_12">
    <path d="M 73.832727 54.270657 
L 73.832727 54.270657 
L 77.112066 54.270657 
L 80.391405 54.270657 
L 83.670744 54.270657 
L 86.950083 54.270657 
L 90.229421 54.270657 
L 93.50876 54.270657 
L 96.788099 54.270657 
L 100.067438 54.270657 
L 103.346777 54.270657 
L 106.626116 54.270657 
L 109.905455 54.270657 
L 113.184793 54.270657 
L 116.464132 54.270657 
L 119.743471 54.270657 
L 123.02281 54.270657 
L 126.302149 54.270657 
L 129.581488 54.270657 
L 132.860826 54.270657 
L 136.140165 54.270657 
L 139.419504 54.397313 
L 142.698843 54.397313 
L 145.978182 54.270657 
L 149.257521 54.270657 
L 152.53686 54.270657 
L 155.816198 54.270657 
L 159.095537 54.270657 
L 162.374876 54.270657 
L 165.654215 54.270657 
L 168.933554 54.270657 
L 172.212893 54.270657 
L 175.492231 54.397313 
L 178.77157 54.397313 
L 182.050909 54.270657 
L 185.330248 54.270657 
L 188.609587 54.397313 
L 191.888926 54.270657 
L 195.168264 54.144 
L 198.447603 54.270657 
L 201.726942 54.397313 
L 205.006281 54.397313 
L 208.28562 54.397313 
L 211.564959 54.270657 
L 214.844298 54.397313 
L 218.123636 54.397313 
L 221.402975 54.270657 
L 224.682314 54.397313 
L 227.961653 54.270657 
L 231.240992 54.270657 
L 234.520331 54.144 
L 237.799669 54.270657 
L 241.079008 54.270657 
L 244.358347 54.270657 
L 247.637686 54.144 
L 250.917025 54.144 
L 254.196364 54.270657 
L 257.475702 54.270657 
L 260.755041 54.270657 
L 264.03438 54.270657 
L 267.313719 54.270657 
L 270.593058 54.270657 
L 273.872397 54.397313 
L 277.151736 54.270657 
L 280.431074 54.270657 
L 283.710413 54.397313 
L 286.989752 54.397313 
L 290.269091 54.270657 
L 293.54843 54.397313 
L 296.827769 54.270657 
L 300.107107 54.144 
L 303.386446 54.144 
L 306.665785 54.270657 
L 309.945124 54.270657 
L 313.224463 54.270657 
L 316.503802 54.397313 
L 319.78314 54.397313 
L 323.062479 54.270657 
L 326.341818 54.144 
L 329.621157 54.270657 
L 332.900496 54.270657 
L 336.179835 55.410567 
L 339.459174 98.727148 
L 342.738512 74.029097 
L 346.017851 107.213145 
L 349.29719 106.579862 
L 352.576529 111.392816 
L 355.855868 119.878813 
L 359.135207 120.132126 
L 362.414545 102.906819 
L 365.693884 87.328048 
L 368.973223 107.213145 
L 372.252562 111.392816 
L 375.531901 120.258783 
L 378.81124 133.557733 
L 382.090579 162.688768 
L 385.369917 120.385439 
L 388.649256 132.54448 
L 391.928595 159.902321 
L 395.207934 131.657883 
L 398.487273 141.030477 
L 398.487273 115.699142 
L 398.487273 115.699142 
L 395.207934 103.413445 
L 391.928595 97.713895 
L 388.649256 86.821421 
L 385.369917 94.167508 
L 382.090579 148.88319 
L 378.81124 114.559232 
L 375.531901 105.819922 
L 372.252562 99.107118 
L 368.973223 91.254405 
L 365.693884 82.515094 
L 362.414545 83.528348 
L 359.135207 91.634375 
L 355.855868 66.176384 
L 352.576529 61.490087 
L 349.29719 59.08361 
L 346.017851 54.270657 
L 342.738512 54.397313 
L 339.459174 54.144 
L 336.179835 54.144 
L 332.900496 54.270657 
L 329.621157 54.270657 
L 326.341818 54.144 
L 323.062479 54.270657 
L 319.78314 54.397313 
L 316.503802 54.397313 
L 313.224463 54.270657 
L 309.945124 54.270657 
L 306.665785 54.270657 
L 303.386446 54.144 
L 300.107107 54.144 
L 296.827769 54.270657 
L 293.54843 54.397313 
L 290.269091 54.270657 
L 286.989752 54.397313 
L 283.710413 54.397313 
L 280.431074 54.270657 
L 277.151736 54.270657 
L 273.872397 54.397313 
L 270.593058 54.270657 
L 267.313719 54.270657 
L 264.03438 54.270657 
L 260.755041 54.270657 
L 257.475702 54.270657 
L 254.196364 54.270657 
L 250.917025 54.144 
L 247.637686 54.144 
L 244.358347 54.270657 
L 241.079008 54.270657 
L 237.799669 54.270657 
L 234.520331 54.144 
L 231.240992 54.270657 
L 227.961653 54.270657 
L 224.682314 54.397313 
L 221.402975 54.270657 
L 218.123636 54.397313 
L 214.844298 54.397313 
L 211.564959 54.270657 
L 208.28562 54.397313 
L 205.006281 54.397313 
L 201.726942 54.397313 
L 198.447603 54.270657 
L 195.168264 54.144 
L 191.888926 54.270657 
L 188.609587 54.397313 
L 185.330248 54.270657 
L 182.050909 54.270657 
L 178.77157 54.397313 
L 175.492231 54.397313 
L 172.212893 54.270657 
L 168.933554 54.270657 
L 165.654215 54.270657 
L 162.374876 54.270657 
L 159.095537 54.270657 
L 155.816198 54.270657 
L 152.53686 54.270657 
L 149.257521 54.270657 
L 145.978182 54.270657 
L 142.698843 54.397313 
L 139.419504 54.397313 
L 136.140165 54.270657 
L 132.860826 54.270657 
L 129.581488 54.270657 
L 126.302149 54.270657 
L 123.02281 54.270657 
L 119.743471 54.270657 
L 116.464132 54.270657 
L 113.184793 54.270657 
L 109.905455 54.270657 
L 106.626116 54.270657 
L 103.346777 54.270657 
L 100.067438 54.270657 
L 96.788099 54.270657 
L 93.50876 54.270657 
L 90.229421 54.270657 
L 86.950083 54.270657 
L 83.670744 54.270657 
L 80.391405 54.270657 
L 77.112066 54.270657 
L 73.832727 54.270657 
z
" clip-path="url(#pc212a3ac69)" style="fill: #ff7f0e"/>
   </g>
   <g id="PolyCollection_13">
    <path d="M 73.832727 54.270657 
L 73.832727 54.270657 
L 77.112066 54.270657 
L 80.391405 54.270657 
L 83.670744 54.270657 
L 86.950083 54.270657 
L 90.229421 54.270657 
L 93.50876 54.270657 
L 96.788099 54.270657 
L 100.067438 54.270657 
L 103.346777 54.270657 
L 106.626116 54.270657 
L 109.905455 54.270657 
L 113.184793 54.270657 
L 116.464132 54.270657 
L 119.743471 54.270657 
L 123.02281 54.270657 
L 126.302149 54.270657 
L 129.581488 54.270657 
L 132.860826 54.270657 
L 136.140165 54.270657 
L 139.419504 54.397313 
L 142.698843 54.397313 
L 145.978182 54.270657 
L 149.257521 54.270657 
L 152.53686 54.270657 
L 155.816198 54.270657 
L 159.095537 54.270657 
L 162.374876 54.270657 
L 165.654215 54.270657 
L 168.933554 54.270657 
L 172.212893 54.270657 
L 175.492231 54.397313 
L 178.77157 54.397313 
L 182.050909 54.270657 
L 185.330248 54.270657 
L 188.609587 54.397313 
L 191.888926 54.270657 
L 195.168264 54.144 
L 198.447603 54.270657 
L 201.726942 54.397313 
L 205.006281 54.397313 
L 208.28562 54.397313 
L 211.564959 54.270657 
L 214.844298 54.397313 
L 218.123636 54.397313 
L 221.402975 54.270657 
L 224.682314 54.397313 
L 227.961653 54.270657 
L 231.240992 54.270657 
L 234.520331 54.144 
L 237.799669 54.270657 
L 241.079008 54.270657 
L 244.358347 54.270657 
L 247.637686 54.144 
L 250.917025 54.144 
L 254.196364 54.270657 
L 257.475702 54.270657 
L 260.755041 54.270657 
L 264.03438 54.270657 
L 267.313719 54.270657 
L 270.593058 54.270657 
L 273.872397 54.397313 
L 277.151736 54.270657 
L 280.431074 54.270657 
L 283.710413 54.397313 
L 286.989752 54.397313 
L 290.269091 54.270657 
L 293.54843 54.397313 
L 296.827769 54.270657 
L 300.107107 54.144 
L 303.386446 54.144 
L 306.665785 54.270657 
L 309.945124 54.270657 
L 313.224463 54.270657 
L 316.503802 54.397313 
L 319.78314 54.397313 
L 323.062479 54.270657 
L 326.341818 54.144 
L 329.621157 54.270657 
L 332.900496 54.270657 
L 336.179835 54.144 
L 339.459174 54.144 
L 342.738512 54.397313 
L 346.017851 54.270657 
L 349.29719 59.08361 
L 352.576529 61.490087 
L 355.855868 66.176384 
L 359.135207 91.634375 
L 362.414545 83.528348 
L 365.693884 82.515094 
L 368.973223 91.254405 
L 372.252562 99.107118 
L 375.531901 105.819922 
L 378.81124 114.559232 
L 382.090579 148.88319 
L 385.369917 94.167508 
L 388.649256 86.821421 
L 391.928595 97.713895 
L 395.207934 103.413445 
L 398.487273 115.699142 
L 398.487273 85.048228 
L 398.487273 85.048228 
L 395.207934 73.395814 
L 391.928595 70.482711 
L 388.649256 62.12337 
L 385.369917 72.002591 
L 382.090579 123.931826 
L 378.81124 89.734525 
L 375.531901 95.180762 
L 372.252562 90.494465 
L 368.973223 81.375184 
L 365.693884 71.242651 
L 362.414545 74.282411 
L 359.135207 81.755154 
L 355.855868 56.297163 
L 352.576529 54.270657 
L 349.29719 54.270657 
L 346.017851 54.270657 
L 342.738512 54.397313 
L 339.459174 54.144 
L 336.179835 54.144 
L 332.900496 54.270657 
L 329.621157 54.270657 
L 326.341818 54.144 
L 323.062479 54.270657 
L 319.78314 54.397313 
L 316.503802 54.397313 
L 313.224463 54.270657 
L 309.945124 54.270657 
L 306.665785 54.270657 
L 303.386446 54.144 
L 300.107107 54.144 
L 296.827769 54.270657 
L 293.54843 54.397313 
L 290.269091 54.270657 
L 286.989752 54.397313 
L 283.710413 54.397313 
L 280.431074 54.270657 
L 277.151736 54.270657 
L 273.872397 54.397313 
L 270.593058 54.270657 
L 267.313719 54.270657 
L 264.03438 54.270657 
L 260.755041 54.270657 
L 257.475702 54.270657 
L 254.196364 54.270657 
L 250.917025 54.144 
L 247.637686 54.144 
L 244.358347 54.270657 
L 241.079008 54.270657 
L 237.799669 54.270657 
L 234.520331 54.144 
L 231.240992 54.270657 
L 227.961653 54.270657 
L 224.682314 54.397313 
L 221.402975 54.270657 
L 218.123636 54.397313 
L 214.844298 54.397313 
L 211.564959 54.270657 
L 208.28562 54.397313 
L 205.006281 54.397313 
L 201.726942 54.397313 
L 198.447603 54.270657 
L 195.168264 54.144 
L 191.888926 54.270657 
L 188.609587 54.397313 
L 185.330248 54.270657 
L 182.050909 54.270657 
L 178.77157 54.397313 
L 175.492231 54.397313 
L 172.212893 54.270657 
L 168.933554 54.270657 
L 165.654215 54.270657 
L 162.374876 54.270657 
L 159.095537 54.270657 
L 155.816198 54.270657 
L 152.53686 54.270657 
L 149.257521 54.270657 
L 145.978182 54.270657 
L 142.698843 54.397313 
L 139.419504 54.397313 
L 136.140165 54.270657 
L 132.860826 54.270657 
L 129.581488 54.270657 
L 126.302149 54.270657 
L 123.02281 54.270657 
L 119.743471 54.270657 
L 116.464132 54.270657 
L 113.184793 54.270657 
L 109.905455 54.270657 
L 106.626116 54.270657 
L 103.346777 54.270657 
L 100.067438 54.270657 
L 96.788099 54.270657 
L 93.50876 54.270657 
L 90.229421 54.270657 
L 86.950083 54.270657 
L 83.670744 54.270657 
L 80.391405 54.270657 
L 77.112066 54.270657 
L 73.832727 54.270657 
z
" clip-path="url(#pc212a3ac69)" style="fill: #2ca02c"/>
   </g>
   <g id="PolyCollection_14">
    <path d="M 73.832727 54.270657 
L 73.832727 54.270657 
L 77.112066 54.270657 
L 80.391405 54.270657 
L 83.670744 54.270657 
L 86.950083 54.270657 
L 90.229421 54.270657 
L 93.50876 54.270657 
L 96.788099 54.270657 
L 100.067438 54.270657 
L 103.346777 54.270657 
L 106.626116 54.270657 
L 109.905455 54.270657 
L 113.184793 54.270657 
L 116.464132 54.270657 
L 119.743471 54.270657 
L 123.02281 54.270657 
L 126.302149 54.270657 
L 129.581488 54.270657 
L 132.860826 54.270657 
L 136.140165 54.270657 
L 139.419504 54.397313 
L 142.698843 54.397313 
L 145.978182 54.270657 
L 149.257521 54.270657 
L 152.53686 54.270657 
L 155.816198 54.270657 
L 159.095537 54.270657 
L 162.374876 54.270657 
L 165.654215 54.270657 
L 168.933554 54.270657 
L 172.212893 54.270657 
L 175.492231 54.397313 
L 178.77157 54.397313 
L 182.050909 54.270657 
L 185.330248 54.270657 
L 188.609587 54.397313 
L 191.888926 54.270657 
L 195.168264 54.144 
L 198.447603 54.270657 
L 201.726942 54.397313 
L 205.006281 54.397313 
L 208.28562 54.397313 
L 211.564959 54.270657 
L 214.844298 54.397313 
L 218.123636 54.397313 
L 221.402975 54.270657 
L 224.682314 54.397313 
L 227.961653 54.270657 
L 231.240992 54.270657 
L 234.520331 54.144 
L 237.799669 54.270657 
L 241.079008 54.270657 
L 244.358347 54.270657 
L 247.637686 54.144 
L 250.917025 54.144 
L 254.196364 54.270657 
L 257.475702 54.270657 
L 260.755041 54.270657 
L 264.03438 54.270657 
L 267.313719 54.270657 
L 270.593058 54.270657 
L 273.872397 54.397313 
L 277.151736 54.270657 
L 280.431074 54.270657 
L 283.710413 54.397313 
L 286.989752 54.397313 
L 290.269091 54.270657 
L 293.54843 54.397313 
L 296.827769 54.270657 
L 300.107107 54.144 
L 303.386446 54.144 
L 306.665785 54.270657 
L 309.945124 54.270657 
L 313.224463 54.270657 
L 316.503802 54.397313 
L 319.78314 54.397313 
L 323.062479 54.270657 
L 326.341818 54.144 
L 329.621157 54.270657 
L 332.900496 54.270657 
L 336.179835 54.144 
L 339.459174 54.144 
L 342.738512 54.397313 
L 346.017851 54.270657 
L 349.29719 54.270657 
L 352.576529 54.270657 
L 355.855868 56.297163 
L 359.135207 81.755154 
L 362.414545 74.282411 
L 365.693884 71.242651 
L 368.973223 81.375184 
L 372.252562 90.494465 
L 375.531901 95.180762 
L 378.81124 89.734525 
L 382.090579 123.931826 
L 385.369917 72.002591 
L 388.649256 62.12337 
L 391.928595 70.482711 
L 395.207934 73.395814 
L 398.487273 85.048228 
L 398.487273 65.036474 
L 398.487273 65.036474 
L 395.207934 58.70364 
L 391.928595 56.80379 
L 388.649256 55.28391 
L 385.369917 57.817043 
L 382.090579 57.057103 
L 378.81124 57.9437 
L 375.531901 58.070357 
L 372.252562 59.46358 
L 368.973223 56.80379 
L 365.693884 55.157253 
L 362.414545 54.270657 
L 359.135207 54.144 
L 355.855868 54.397313 
L 352.576529 54.270657 
L 349.29719 54.270657 
L 346.017851 54.270657 
L 342.738512 54.397313 
L 339.459174 54.144 
L 336.179835 54.144 
L 332.900496 54.270657 
L 329.621157 54.270657 
L 326.341818 54.144 
L 323.062479 54.270657 
L 319.78314 54.397313 
L 316.503802 54.397313 
L 313.224463 54.270657 
L 309.945124 54.270657 
L 306.665785 54.270657 
L 303.386446 54.144 
L 300.107107 54.144 
L 296.827769 54.270657 
L 293.54843 54.397313 
L 290.269091 54.270657 
L 286.989752 54.397313 
L 283.710413 54.397313 
L 280.431074 54.270657 
L 277.151736 54.270657 
L 273.872397 54.397313 
L 270.593058 54.270657 
L 267.313719 54.270657 
L 264.03438 54.270657 
L 260.755041 54.270657 
L 257.475702 54.270657 
L 254.196364 54.270657 
L 250.917025 54.144 
L 247.637686 54.144 
L 244.358347 54.270657 
L 241.079008 54.270657 
L 237.799669 54.270657 
L 234.520331 54.144 
L 231.240992 54.270657 
L 227.961653 54.270657 
L 224.682314 54.397313 
L 221.402975 54.270657 
L 218.123636 54.397313 
L 214.844298 54.397313 
L 211.564959 54.270657 
L 208.28562 54.397313 
L 205.006281 54.397313 
L 201.726942 54.397313 
L 198.447603 54.270657 
L 195.168264 54.144 
L 191.888926 54.270657 
L 188.609587 54.397313 
L 185.330248 54.270657 
L 182.050909 54.270657 
L 178.77157 54.397313 
L 175.492231 54.397313 
L 172.212893 54.270657 
L 168.933554 54.270657 
L 165.654215 54.270657 
L 162.374876 54.270657 
L 159.095537 54.270657 
L 155.816198 54.270657 
L 152.53686 54.270657 
L 149.257521 54.270657 
L 145.978182 54.270657 
L 142.698843 54.397313 
L 139.419504 54.397313 
L 136.140165 54.270657 
L 132.860826 54.270657 
L 129.581488 54.270657 
L 126.302149 54.270657 
L 123.02281 54.270657 
L 119.743471 54.270657 
L 116.464132 54.270657 
L 113.184793 54.270657 
L 109.905455 54.270657 
L 106.626116 54.270657 
L 103.346777 54.270657 
L 100.067438 54.270657 
L 96.788099 54.270657 
L 93.50876 54.270657 
L 90.229421 54.270657 
L 86.950083 54.270657 
L 83.670744 54.270657 
L 80.391405 54.270657 
L 77.112066 54.270657 
L 73.832727 54.270657 
z
" clip-path="url(#pc212a3ac69)" style="fill: #d62728"/>
   </g>
   <g id="PolyCollection_15">
    <path d="M 73.832727 54.270657 
L 73.832727 54.270657 
L 77.112066 54.270657 
L 80.391405 54.270657 
L 83.670744 54.270657 
L 86.950083 54.270657 
L 90.229421 54.270657 
L 93.50876 54.270657 
L 96.788099 54.270657 
L 100.067438 54.270657 
L 103.346777 54.270657 
L 106.626116 54.270657 
L 109.905455 54.270657 
L 113.184793 54.270657 
L 116.464132 54.270657 
L 119.743471 54.270657 
L 123.02281 54.270657 
L 126.302149 54.270657 
L 129.581488 54.270657 
L 132.860826 54.270657 
L 136.140165 54.270657 
L 139.419504 54.397313 
L 142.698843 54.397313 
L 145.978182 54.270657 
L 149.257521 54.270657 
L 152.53686 54.270657 
L 155.816198 54.270657 
L 159.095537 54.270657 
L 162.374876 54.270657 
L 165.654215 54.270657 
L 168.933554 54.270657 
L 172.212893 54.270657 
L 175.492231 54.397313 
L 178.77157 54.397313 
L 182.050909 54.270657 
L 185.330248 54.270657 
L 188.609587 54.397313 
L 191.888926 54.270657 
L 195.168264 54.144 
L 198.447603 54.270657 
L 201.726942 54.397313 
L 205.006281 54.397313 
L 208.28562 54.397313 
L 211.564959 54.270657 
L 214.844298 54.397313 
L 218.123636 54.397313 
L 221.402975 54.270657 
L 224.682314 54.397313 
L 227.961653 54.270657 
L 231.240992 54.270657 
L 234.520331 54.144 
L 237.799669 54.270657 
L 241.079008 54.270657 
L 244.358347 54.270657 
L 247.637686 54.144 
L 250.917025 54.144 
L 254.196364 54.270657 
L 257.475702 54.270657 
L 260.755041 54.270657 
L 264.03438 54.270657 
L 267.313719 54.270657 
L 270.593058 54.270657 
L 273.872397 54.397313 
L 277.151736 54.270657 
L 280.431074 54.270657 
L 283.710413 54.397313 
L 286.989752 54.397313 
L 290.269091 54.270657 
L 293.54843 54.397313 
L 296.827769 54.270657 
L 300.107107 54.144 
L 303.386446 54.144 
L 306.665785 54.270657 
L 309.945124 54.270657 
L 313.224463 54.270657 
L 316.503802 54.397313 
L 319.78314 54.397313 
L 323.062479 54.270657 
L 326.341818 54.144 
L 329.621157 54.270657 
L 332.900496 54.270657 
L 336.179835 54.144 
L 339.459174 54.144 
L 342.738512 54.397313 
L 346.017851 54.270657 
L 349.29719 54.270657 
L 352.576529 54.270657 
L 355.855868 54.397313 
L 359.135207 54.144 
L 362.414545 54.270657 
L 365.693884 55.157253 
L 368.973223 56.80379 
L 372.252562 59.46358 
L 375.531901 58.070357 
L 378.81124 57.9437 
L 382.090579 57.057103 
L 385.369917 57.817043 
L 388.649256 55.28391 
L 391.928595 56.80379 
L 395.207934 58.70364 
L 398.487273 65.036474 
L 398.487273 59.336924 
L 398.487273 59.336924 
L 395.207934 56.170507 
L 391.928595 54.270657 
L 388.649256 54.270657 
L 385.369917 54.144 
L 382.090579 54.397313 
L 378.81124 54.52397 
L 375.531901 54.397313 
L 372.252562 54.144 
L 368.973223 54.144 
L 365.693884 54.397313 
L 362.414545 54.270657 
L 359.135207 54.144 
L 355.855868 54.397313 
L 352.576529 54.270657 
L 349.29719 54.270657 
L 346.017851 54.270657 
L 342.738512 54.397313 
L 339.459174 54.144 
L 336.179835 54.144 
L 332.900496 54.270657 
L 329.621157 54.270657 
L 326.341818 54.144 
L 323.062479 54.270657 
L 319.78314 54.397313 
L 316.503802 54.397313 
L 313.224463 54.270657 
L 309.945124 54.270657 
L 306.665785 54.270657 
L 303.386446 54.144 
L 300.107107 54.144 
L 296.827769 54.270657 
L 293.54843 54.397313 
L 290.269091 54.270657 
L 286.989752 54.397313 
L 283.710413 54.397313 
L 280.431074 54.270657 
L 277.151736 54.270657 
L 273.872397 54.397313 
L 270.593058 54.270657 
L 267.313719 54.270657 
L 264.03438 54.270657 
L 260.755041 54.270657 
L 257.475702 54.270657 
L 254.196364 54.270657 
L 250.917025 54.144 
L 247.637686 54.144 
L 244.358347 54.270657 
L 241.079008 54.270657 
L 237.799669 54.270657 
L 234.520331 54.144 
L 231.240992 54.270657 
L 227.961653 54.270657 
L 224.682314 54.397313 
L 221.402975 54.270657 
L 218.123636 54.397313 
L 214.844298 54.397313 
L 211.564959 54.270657 
L 208.28562 54.397313 
L 205.006281 54.397313 
L 201.726942 54.397313 
L 198.447603 54.270657 
L 195.168264 54.144 
L 191.888926 54.270657 
L 188.609587 54.397313 
L 185.330248 54.270657 
L 182.050909 54.270657 
L 178.77157 54.397313 
L 175.492231 54.397313 
L 172.212893 54.270657 
L 168.933554 54.270657 
L 165.654215 54.270657 
L 162.374876 54.270657 
L 159.095537 54.270657 
L 155.816198 54.270657 
L 152.53686 54.270657 
L 149.257521 54.270657 
L 145.978182 54.270657 
L 142.698843 54.397313 
L 139.419504 54.397313 
L 136.140165 54.270657 
L 132.860826 54.270657 
L 129.581488 54.270657 
L 126.302149 54.270657 
L 123.02281 54.270657 
L 119.743471 54.270657 
L 116.464132 54.270657 
L 113.184793 54.270657 
L 109.905455 54.270657 
L 106.626116 54.270657 
L 103.346777 54.270657 
L 100.067438 54.270657 
L 96.788099 54.270657 
L 93.50876 54.270657 
L 90.229421 54.270657 
L 86.950083 54.270657 
L 83.670744 54.270657 
L 80.391405 54.270657 
L 77.112066 54.270657 
L 73.832727 54.270657 
z
" clip-path="url(#pc212a3ac69)" style="fill: #9467bd"/>
   </g>
   <g id="PolyCollection_16">
    <path d="M 73.832727 54.270657 
L 73.832727 54.270657 
L 77.112066 54.270657 
L 80.391405 54.270657 
L 83.670744 54.270657 
L 86.950083 54.270657 
L 90.229421 54.270657 
L 93.50876 54.270657 
L 96.788099 54.270657 
L 100.067438 54.270657 
L 103.346777 54.270657 
L 106.626116 54.270657 
L 109.905455 54.270657 
L 113.184793 54.270657 
L 116.464132 54.270657 
L 119.743471 54.270657 
L 123.02281 54.270657 
L 126.302149 54.270657 
L 129.581488 54.270657 
L 132.860826 54.270657 
L 136.140165 54.270657 
L 139.419504 54.397313 
L 142.698843 54.397313 
L 145.978182 54.270657 
L 149.257521 54.270657 
L 152.53686 54.270657 
L 155.816198 54.270657 
L 159.095537 54.270657 
L 162.374876 54.270657 
L 165.654215 54.270657 
L 168.933554 54.270657 
L 172.212893 54.270657 
L 175.492231 54.397313 
L 178.77157 54.397313 
L 182.050909 54.270657 
L 185.330248 54.270657 
L 188.609587 54.397313 
L 191.888926 54.270657 
L 195.168264 54.144 
L 198.447603 54.270657 
L 201.726942 54.397313 
L 205.006281 54.397313 
L 208.28562 54.397313 
L 211.564959 54.270657 
L 214.844298 54.397313 
L 218.123636 54.397313 
L 221.402975 54.270657 
L 224.682314 54.397313 
L 227.961653 54.270657 
L 231.240992 54.270657 
L 234.520331 54.144 
L 237.799669 54.270657 
L 241.079008 54.270657 
L 244.358347 54.270657 
L 247.637686 54.144 
L 250.917025 54.144 
L 254.196364 54.270657 
L 257.475702 54.270657 
L 260.755041 54.270657 
L 264.03438 54.270657 
L 267.313719 54.270657 
L 270.593058 54.270657 
L 273.872397 54.397313 
L 277.151736 54.270657 
L 280.431074 54.270657 
L 283.710413 54.397313 
L 286.989752 54.397313 
L 290.269091 54.270657 
L 293.54843 54.397313 
L 296.827769 54.270657 
L 300.107107 54.144 
L 303.386446 54.144 
L 306.665785 54.270657 
L 309.945124 54.270657 
L 313.224463 54.270657 
L 316.503802 54.397313 
L 319.78314 54.397313 
L 323.062479 54.270657 
L 326.341818 54.144 
L 329.621157 54.270657 
L 332.900496 54.270657 
L 336.179835 54.144 
L 339.459174 54.144 
L 342.738512 54.397313 
L 346.017851 54.270657 
L 349.29719 54.270657 
L 352.576529 54.270657 
L 355.855868 54.397313 
L 359.135207 54.144 
L 362.414545 54.270657 
L 365.693884 54.397313 
L 368.973223 54.144 
L 372.252562 54.144 
L 375.531901 54.397313 
L 378.81124 54.52397 
L 382.090579 54.397313 
L 385.369917 54.144 
L 388.649256 54.270657 
L 391.928595 54.270657 
L 395.207934 56.170507 
L 398.487273 59.336924 
L 398.487273 54.270657 
L 398.487273 54.270657 
L 395.207934 54.270657 
L 391.928595 54.270657 
L 388.649256 54.270657 
L 385.369917 54.144 
L 382.090579 54.397313 
L 378.81124 54.52397 
L 375.531901 54.397313 
L 372.252562 54.144 
L 368.973223 54.144 
L 365.693884 54.397313 
L 362.414545 54.270657 
L 359.135207 54.144 
L 355.855868 54.397313 
L 352.576529 54.270657 
L 349.29719 54.270657 
L 346.017851 54.270657 
L 342.738512 54.397313 
L 339.459174 54.144 
L 336.179835 54.144 
L 332.900496 54.270657 
L 329.621157 54.270657 
L 326.341818 54.144 
L 323.062479 54.270657 
L 319.78314 54.397313 
L 316.503802 54.397313 
L 313.224463 54.270657 
L 309.945124 54.270657 
L 306.665785 54.270657 
L 303.386446 54.144 
L 300.107107 54.144 
L 296.827769 54.270657 
L 293.54843 54.397313 
L 290.269091 54.270657 
L 286.989752 54.397313 
L 283.710413 54.397313 
L 280.431074 54.270657 
L 277.151736 54.270657 
L 273.872397 54.397313 
L 270.593058 54.270657 
L 267.313719 54.270657 
L 264.03438 54.270657 
L 260.755041 54.270657 
L 257.475702 54.270657 
L 254.196364 54.270657 
L 250.917025 54.144 
L 247.637686 54.144 
L 244.358347 54.270657 
L 241.079008 54.270657 
L 237.799669 54.270657 
L 234.520331 54.144 
L 231.240992 54.270657 
L 227.961653 54.270657 
L 224.682314 54.397313 
L 221.402975 54.270657 
L 218.123636 54.397313 
L 214.844298 54.397313 
L 211.564959 54.270657 
L 208.28562 54.397313 
L 205.006281 54.397313 
L 201.726942 54.397313 
L 198.447603 54.270657 
L 195.168264 54.144 
L 191.888926 54.270657 
L 188.609587 54.397313 
L 185.330248 54.270657 
L 182.050909 54.270657 
L 178.77157 54.397313 
L 175.492231 54.397313 
L 172.212893 54.270657 
L 168.933554 54.270657 
L 165.654215 54.270657 
L 162.374876 54.270657 
L 159.095537 54.270657 
L 155.816198 54.270657 
L 152.53686 54.270657 
L 149.257521 54.270657 
L 145.978182 54.270657 
L 142.698843 54.397313 
L 139.419504 54.397313 
L 136.140165 54.270657 
L 132.860826 54.270657 
L 129.581488 54.270657 
L 126.302149 54.270657 
L 123.02281 54.270657 
L 119.743471 54.270657 
L 116.464132 54.270657 
L 113.184793 54.270657 
L 109.905455 54.270657 
L 106.626116 54.270657 
L 103.346777 54.270657 
L 100.067438 54.270657 
L 96.788099 54.270657 
L 93.50876 54.270657 
L 90.229421 54.270657 
L 86.950083 54.270657 
L 83.670744 54.270657 
L 80.391405 54.270657 
L 77.112066 54.270657 
L 73.832727 54.270657 
z
" clip-path="url(#pc212a3ac69)" style="fill: #8c564b"/>
   </g>
   <g id="matplotlib.axis_1">
    <g id="xtick_1">
     <g id="line2d_1">
      <defs>
       <path id="mf5e8c72718" d="M 0 0 
L 0 3.5 
" style="stroke: #000000; stroke-width: 0.8"/>
      </defs>
      <g>
       <use xlink:href="#mf5e8c72718" x="73.832727" y="307.584" style="stroke: #000000; stroke-width: 0.8"/>
      </g>
     </g>
     <g id="text_1">
      <!-- 0 -->
      <g transform="translate(70.651477 322.182437)scale(0.1 -0.1)">
       <defs>
        <path id="DejaVuSans-30" d="M 2034 4250 
Q 1547 4250 1301 3770 
Q 1056 3291 1056 2328 
Q 1056 1369 1301 889 
Q 1547 409 2034 409 
Q 2525 409 2770 889 
Q 3016 1369 3016 2328 
Q 3016 3291 2770 3770 
Q 2525 4250 2034 4250 
z
M 2034 4750 
Q 2819 4750 3233 4129 
Q 3647 3509 3647 2328 
Q 3647 1150 3233 529 
Q 2819 -91 2034 -91 
Q 1250 -91 836 529 
Q 422 1150 422 2328 
Q 422 3509 836 4129 
Q 1250 4750 2034 4750 
z
" transform="scale(0.015625)"/>
       </defs>
       <use xlink:href="#DejaVuSans-30"/>
      </g>
     </g>
    </g>
    <g id="xtick_2">
     <g id="line2d_2">
      <g>
       <use xlink:href="#mf5e8c72718" x="139.419504" y="307.584" style="stroke: #000000; stroke-width: 0.8"/>
      </g>
     </g>
     <g id="text_2">
      <!-- 20 -->
      <g transform="translate(133.057004 322.182437)scale(0.1 -0.1)">
       <defs>
        <path id="DejaVuSans-32" d="M 1228 531 
L 3431 531 
L 3431 0 
L 469 0 
L 469 531 
Q 828 903 1448 1529 
Q 2069 2156 2228 2338 
Q 2531 2678 2651 2914 
Q 2772 3150 2772 3378 
Q 2772 3750 2511 3984 
Q 2250 4219 1831 4219 
Q 1534 4219 1204 4116 
Q 875 4013 500 3803 
L 500 4441 
Q 881 4594 1212 4672 
Q 1544 4750 1819 4750 
Q 2544 4750 2975 4387 
Q 3406 4025 3406 3419 
Q 3406 3131 3298 2873 
Q 3191 2616 2906 2266 
Q 2828 2175 2409 1742 
Q 1991 1309 1228 531 
z
" transform="scale(0.015625)"/>
       </defs>
       <use xlink:href="#DejaVuSans-32"/>
       <use xlink:href="#DejaVuSans-30" x="63.623047"/>
      </g>
     </g>
    </g>
    <g id="xtick_3">
     <g id="line2d_3">
      <g>
       <use xlink:href="#mf5e8c72718" x="205.006281" y="307.584" style="stroke: #000000; stroke-width: 0.8"/>
      </g>
     </g>
     <g id="text_3">
      <!-- 40 -->
      <g transform="translate(198.643781 322.182437)scale(0.1 -0.1)">
       <defs>
        <path id="DejaVuSans-34" d="M 2419 4116 
L 825 1625 
L 2419 1625 
L 2419 4116 
z
M 2253 4666 
L 3047 4666 
L 3047 1625 
L 3713 1625 
L 3713 1100 
L 3047 1100 
L 3047 0 
L 2419 0 
L 2419 1100 
L 313 1100 
L 313 1709 
L 2253 4666 
z
" transform="scale(0.015625)"/>
       </defs>
       <use xlink:href="#DejaVuSans-34"/>
       <use xlink:href="#DejaVuSans-30" x="63.623047"/>
      </g>
     </g>
    </g>
    <g id="xtick_4">
     <g id="line2d_4">
      <g>
       <use xlink:href="#mf5e8c72718" x="270.593058" y="307.584" style="stroke: #000000; stroke-width: 0.8"/>
      </g>
     </g>
     <g id="text_4">
      <!-- 60 -->
      <g transform="translate(264.230558 322.182437)scale(0.1 -0.1)">
       <defs>
        <path id="DejaVuSans-36" d="M 2113 2584 
Q 1688 2584 1439 2293 
Q 1191 2003 1191 1497 
Q 1191 994 1439 701 
Q 1688 409 2113 409 
Q 2538 409 2786 701 
Q 3034 994 3034 1497 
Q 3034 2003 2786 2293 
Q 2538 2584 2113 2584 
z
M 3366 4563 
L 3366 3988 
Q 3128 4100 2886 4159 
Q 2644 4219 2406 4219 
Q 1781 4219 1451 3797 
Q 1122 3375 1075 2522 
Q 1259 2794 1537 2939 
Q 1816 3084 2150 3084 
Q 2853 3084 3261 2657 
Q 3669 2231 3669 1497 
Q 3669 778 3244 343 
Q 2819 -91 2113 -91 
Q 1303 -91 875 529 
Q 447 1150 447 2328 
Q 447 3434 972 4092 
Q 1497 4750 2381 4750 
Q 2619 4750 2861 4703 
Q 3103 4656 3366 4563 
z
" transform="scale(0.015625)"/>
       </defs>
       <use xlink:href="#DejaVuSans-36"/>
       <use xlink:href="#DejaVuSans-30" x="63.623047"/>
      </g>
     </g>
    </g>
    <g id="xtick_5">
     <g id="line2d_5">
      <g>
       <use xlink:href="#mf5e8c72718" x="336.179835" y="307.584" style="stroke: #000000; stroke-width: 0.8"/>
      </g>
     </g>
     <g id="text_5">
      <!-- 80 -->
      <g transform="translate(329.817335 322.182437)scale(0.1 -0.1)">
       <defs>
        <path id="DejaVuSans-38" d="M 2034 2216 
Q 1584 2216 1326 1975 
Q 1069 1734 1069 1313 
Q 1069 891 1326 650 
Q 1584 409 2034 409 
Q 2484 409 2743 651 
Q 3003 894 3003 1313 
Q 3003 1734 2745 1975 
Q 2488 2216 2034 2216 
z
M 1403 2484 
Q 997 2584 770 2862 
Q 544 3141 544 3541 
Q 544 4100 942 4425 
Q 1341 4750 2034 4750 
Q 2731 4750 3128 4425 
Q 3525 4100 3525 3541 
Q 3525 3141 3298 2862 
Q 3072 2584 2669 2484 
Q 3125 2378 3379 2068 
Q 3634 1759 3634 1313 
Q 3634 634 3220 271 
Q 2806 -91 2034 -91 
Q 1263 -91 848 271 
Q 434 634 434 1313 
Q 434 1759 690 2068 
Q 947 2378 1403 2484 
z
M 1172 3481 
Q 1172 3119 1398 2916 
Q 1625 2713 2034 2713 
Q 2441 2713 2670 2916 
Q 2900 3119 2900 3481 
Q 2900 3844 2670 4047 
Q 2441 4250 2034 4250 
Q 1625 4250 1398 4047 
Q 1172 3844 1172 3481 
z
" transform="scale(0.015625)"/>
       </defs>
       <use xlink:href="#DejaVuSans-38"/>
       <use xlink:href="#DejaVuSans-30" x="63.623047"/>
      </g>
     </g>
    </g>
    <g id="xtick_6">
     <g id="line2d_6">
      <g>
       <use xlink:href="#mf5e8c72718" x="401.766612" y="307.584" style="stroke: #000000; stroke-width: 0.8"/>
      </g>
     </g>
     <g id="text_6">
      <!-- 100 -->
      <g transform="translate(392.222862 322.182437)scale(0.1 -0.1)">
       <defs>
        <path id="DejaVuSans-31" d="M 794 531 
L 1825 531 
L 1825 4091 
L 703 3866 
L 703 4441 
L 1819 4666 
L 2450 4666 
L 2450 531 
L 3481 531 
L 3481 0 
L 794 0 
L 794 531 
z
" transform="scale(0.015625)"/>
       </defs>
       <use xlink:href="#DejaVuSans-31"/>
       <use xlink:href="#DejaVuSans-30" x="63.623047"/>
       <use xlink:href="#DejaVuSans-30" x="127.246094"/>
      </g>
     </g>
    </g>
    <g id="text_7">
     <!-- Generations -->
     <g transform="translate(205.662344 335.860562)scale(0.1 -0.1)">
      <defs>
       <path id="DejaVuSans-47" d="M 3809 666 
L 3809 1919 
L 2778 1919 
L 2778 2438 
L 4434 2438 
L 4434 434 
Q 4069 175 3628 42 
Q 3188 -91 2688 -91 
Q 1594 -91 976 548 
Q 359 1188 359 2328 
Q 359 3472 976 4111 
Q 1594 4750 2688 4750 
Q 3144 4750 3555 4637 
Q 3966 4525 4313 4306 
L 4313 3634 
Q 3963 3931 3569 4081 
Q 3175 4231 2741 4231 
Q 1884 4231 1454 3753 
Q 1025 3275 1025 2328 
Q 1025 1384 1454 906 
Q 1884 428 2741 428 
Q 3075 428 3337 486 
Q 3600 544 3809 666 
z
" transform="scale(0.015625)"/>
       <path id="DejaVuSans-65" d="M 3597 1894 
L 3597 1613 
L 953 1613 
Q 991 1019 1311 708 
Q 1631 397 2203 397 
Q 2534 397 2845 478 
Q 3156 559 3463 722 
L 3463 178 
Q 3153 47 2828 -22 
Q 2503 -91 2169 -91 
Q 1331 -91 842 396 
Q 353 884 353 1716 
Q 353 2575 817 3079 
Q 1281 3584 2069 3584 
Q 2775 3584 3186 3129 
Q 3597 2675 3597 1894 
z
M 3022 2063 
Q 3016 2534 2758 2815 
Q 2500 3097 2075 3097 
Q 1594 3097 1305 2825 
Q 1016 2553 972 2059 
L 3022 2063 
z
" transform="scale(0.015625)"/>
       <path id="DejaVuSans-6e" d="M 3513 2113 
L 3513 0 
L 2938 0 
L 2938 2094 
Q 2938 2591 2744 2837 
Q 2550 3084 2163 3084 
Q 1697 3084 1428 2787 
Q 1159 2491 1159 1978 
L 1159 0 
L 581 0 
L 581 3500 
L 1159 3500 
L 1159 2956 
Q 1366 3272 1645 3428 
Q 1925 3584 2291 3584 
Q 2894 3584 3203 3211 
Q 3513 2838 3513 2113 
z
" transform="scale(0.015625)"/>
       <path id="DejaVuSans-72" d="M 2631 2963 
Q 2534 3019 2420 3045 
Q 2306 3072 2169 3072 
Q 1681 3072 1420 2755 
Q 1159 2438 1159 1844 
L 1159 0 
L 581 0 
L 581 3500 
L 1159 3500 
L 1159 2956 
Q 1341 3275 1631 3429 
Q 1922 3584 2338 3584 
Q 2397 3584 2469 3576 
Q 2541 3569 2628 3553 
L 2631 2963 
z
" transform="scale(0.015625)"/>
       <path id="DejaVuSans-61" d="M 2194 1759 
Q 1497 1759 1228 1600 
Q 959 1441 959 1056 
Q 959 750 1161 570 
Q 1363 391 1709 391 
Q 2188 391 2477 730 
Q 2766 1069 2766 1631 
L 2766 1759 
L 2194 1759 
z
M 3341 1997 
L 3341 0 
L 2766 0 
L 2766 531 
Q 2569 213 2275 61 
Q 1981 -91 1556 -91 
Q 1019 -91 701 211 
Q 384 513 384 1019 
Q 384 1609 779 1909 
Q 1175 2209 1959 2209 
L 2766 2209 
L 2766 2266 
Q 2766 2663 2505 2880 
Q 2244 3097 1772 3097 
Q 1472 3097 1187 3025 
Q 903 2953 641 2809 
L 641 3341 
Q 956 3463 1253 3523 
Q 1550 3584 1831 3584 
Q 2591 3584 2966 3190 
Q 3341 2797 3341 1997 
z
" transform="scale(0.015625)"/>
       <path id="DejaVuSans-74" d="M 1172 4494 
L 1172 3500 
L 2356 3500 
L 2356 3053 
L 1172 3053 
L 1172 1153 
Q 1172 725 1289 603 
Q 1406 481 1766 481 
L 2356 481 
L 2356 0 
L 1766 0 
Q 1100 0 847 248 
Q 594 497 594 1153 
L 594 3053 
L 172 3053 
L 172 3500 
L 594 3500 
L 594 4494 
L 1172 4494 
z
" transform="scale(0.015625)"/>
       <path id="DejaVuSans-69" d="M 603 3500 
L 1178 3500 
L 1178 0 
L 603 0 
L 603 3500 
z
M 603 4863 
L 1178 4863 
L 1178 4134 
L 603 4134 
L 603 4863 
z
" transform="scale(0.015625)"/>
       <path id="DejaVuSans-6f" d="M 1959 3097 
Q 1497 3097 1228 2736 
Q 959 2375 959 1747 
Q 959 1119 1226 758 
Q 1494 397 1959 397 
Q 2419 397 2687 759 
Q 2956 1122 2956 1747 
Q 2956 2369 2687 2733 
Q 2419 3097 1959 3097 
z
M 1959 3584 
Q 2709 3584 3137 3096 
Q 3566 2609 3566 1747 
Q 3566 888 3137 398 
Q 2709 -91 1959 -91 
Q 1206 -91 779 398 
Q 353 888 353 1747 
Q 353 2609 779 3096 
Q 1206 3584 1959 3584 
z
" transform="scale(0.015625)"/>
       <path id="DejaVuSans-73" d="M 2834 3397 
L 2834 2853 
Q 2591 2978 2328 3040 
Q 2066 3103 1784 3103 
Q 1356 3103 1142 2972 
Q 928 2841 928 2578 
Q 928 2378 1081 2264 
Q 1234 2150 1697 2047 
L 1894 2003 
Q 2506 1872 2764 1633 
Q 3022 1394 3022 966 
Q 3022 478 2636 193 
Q 2250 -91 1575 -91 
Q 1294 -91 989 -36 
Q 684 19 347 128 
L 347 722 
Q 666 556 975 473 
Q 1284 391 1588 391 
Q 1994 391 2212 530 
Q 2431 669 2431 922 
Q 2431 1156 2273 1281 
Q 2116 1406 1581 1522 
L 1381 1569 
Q 847 1681 609 1914 
Q 372 2147 372 2553 
Q 372 3047 722 3315 
Q 1072 3584 1716 3584 
Q 2034 3584 2315 3537 
Q 2597 3491 2834 3397 
z
" transform="scale(0.015625)"/>
      </defs>
      <use xlink:href="#DejaVuSans-47"/>
      <use xlink:href="#DejaVuSans-65" x="77.490234"/>
      <use xlink:href="#DejaVuSans-6e" x="139.013672"/>
      <use xlink:href="#DejaVuSans-65" x="202.392578"/>
      <use xlink:href="#DejaVuSans-72" x="263.916016"/>
      <use xlink:href="#DejaVuSans-61" x="305.029297"/>
      <use xlink:href="#DejaVuSans-74" x="366.308594"/>
      <use xlink:href="#DejaVuSans-69" x="405.517578"/>
      <use xlink:href="#DejaVuSans-6f" x="433.300781"/>
      <use xlink:href="#DejaVuSans-6e" x="494.482422"/>
      <use xlink:href="#DejaVuSans-73" x="557.861328"/>
     </g>
    </g>
   </g>
   <g id="matplotlib.axis_2">
    <g id="ytick_1">
     <g id="line2d_7">
      <defs>
       <path id="mb280d0388a" d="M 0 0 
L -3.5 0 
" style="stroke: #000000; stroke-width: 0.8"/>
      </defs>
      <g>
       <use xlink:href="#mb280d0388a" x="57.6" y="307.584" style="stroke: #000000; stroke-width: 0.8"/>
      </g>
     </g>
     <g id="text_8">
      <!-- 0 -->
      <g transform="translate(44.2375 311.383219)scale(0.1 -0.1)">
       <use xlink:href="#DejaVuSans-30"/>
      </g>
     </g>
    </g>
    <g id="ytick_2">
     <g id="line2d_8">
      <g>
       <use xlink:href="#mb280d0388a" x="57.6" y="275.919832" style="stroke: #000000; stroke-width: 0.8"/>
      </g>
     </g>
     <g id="text_9">
      <!-- 250 -->
      <g transform="translate(31.5125 279.719051)scale(0.1 -0.1)">
       <defs>
        <path id="DejaVuSans-35" d="M 691 4666 
L 3169 4666 
L 3169 4134 
L 1269 4134 
L 1269 2991 
Q 1406 3038 1543 3061 
Q 1681 3084 1819 3084 
Q 2600 3084 3056 2656 
Q 3513 2228 3513 1497 
Q 3513 744 3044 326 
Q 2575 -91 1722 -91 
Q 1428 -91 1123 -41 
Q 819 9 494 109 
L 494 744 
Q 775 591 1075 516 
Q 1375 441 1709 441 
Q 2250 441 2565 725 
Q 2881 1009 2881 1497 
Q 2881 1984 2565 2268 
Q 2250 2553 1709 2553 
Q 1456 2553 1204 2497 
Q 953 2441 691 2322 
L 691 4666 
z
" transform="scale(0.015625)"/>
       </defs>
       <use xlink:href="#DejaVuSans-32"/>
       <use xlink:href="#DejaVuSans-35" x="63.623047"/>
       <use xlink:href="#DejaVuSans-30" x="127.246094"/>
      </g>
     </g>
    </g>
    <g id="ytick_3">
     <g id="line2d_9">
      <g>
       <use xlink:href="#mb280d0388a" x="57.6" y="244.255664" style="stroke: #000000; stroke-width: 0.8"/>
      </g>
     </g>
     <g id="text_10">
      <!-- 500 -->
      <g transform="translate(31.5125 248.054883)scale(0.1 -0.1)">
       <use xlink:href="#DejaVuSans-35"/>
       <use xlink:href="#DejaVuSans-30" x="63.623047"/>
       <use xlink:href="#DejaVuSans-30" x="127.246094"/>
      </g>
     </g>
    </g>
    <g id="ytick_4">
     <g id="line2d_10">
      <g>
       <use xlink:href="#mb280d0388a" x="57.6" y="212.591496" style="stroke: #000000; stroke-width: 0.8"/>
      </g>
     </g>
     <g id="text_11">
      <!-- 750 -->
      <g transform="translate(31.5125 216.390715)scale(0.1 -0.1)">
       <defs>
        <path id="DejaVuSans-37" d="M 525 4666 
L 3525 4666 
L 3525 4397 
L 1831 0 
L 1172 0 
L 2766 4134 
L 525 4134 
L 525 4666 
z
" transform="scale(0.015625)"/>
       </defs>
       <use xlink:href="#DejaVuSans-37"/>
       <use xlink:href="#DejaVuSans-35" x="63.623047"/>
       <use xlink:href="#DejaVuSans-30" x="127.246094"/>
      </g>
     </g>
    </g>
    <g id="ytick_5">
     <g id="line2d_11">
      <g>
       <use xlink:href="#mb280d0388a" x="57.6" y="180.927328" style="stroke: #000000; stroke-width: 0.8"/>
      </g>
     </g>
     <g id="text_12">
      <!-- 1000 -->
      <g transform="translate(25.15 184.726547)scale(0.1 -0.1)">
       <use xlink:href="#DejaVuSans-31"/>
       <use xlink:href="#DejaVuSans-30" x="63.623047"/>
       <use xlink:href="#DejaVuSans-30" x="127.246094"/>
       <use xlink:href="#DejaVuSans-30" x="190.869141"/>
      </g>
     </g>
    </g>
    <g id="ytick_6">
     <g id="line2d_12">
      <g>
       <use xlink:href="#mb280d0388a" x="57.6" y="149.26316" style="stroke: #000000; stroke-width: 0.8"/>
      </g>
     </g>
     <g id="text_13">
      <!-- 1250 -->
      <g transform="translate(25.15 153.062379)scale(0.1 -0.1)">
       <use xlink:href="#DejaVuSans-31"/>
       <use xlink:href="#DejaVuSans-32" x="63.623047"/>
       <use xlink:href="#DejaVuSans-35" x="127.246094"/>
       <use xlink:href="#DejaVuSans-30" x="190.869141"/>
      </g>
     </g>
    </g>
    <g id="ytick_7">
     <g id="line2d_13">
      <g>
       <use xlink:href="#mb280d0388a" x="57.6" y="117.598993" style="stroke: #000000; stroke-width: 0.8"/>
      </g>
     </g>
     <g id="text_14">
      <!-- 1500 -->
      <g transform="translate(25.15 121.398211)scale(0.1 -0.1)">
       <use xlink:href="#DejaVuSans-31"/>
       <use xlink:href="#DejaVuSans-35" x="63.623047"/>
       <use xlink:href="#DejaVuSans-30" x="127.246094"/>
       <use xlink:href="#DejaVuSans-30" x="190.869141"/>
      </g>
     </g>
    </g>
    <g id="ytick_8">
     <g id="line2d_14">
      <g>
       <use xlink:href="#mb280d0388a" x="57.6" y="85.934825" style="stroke: #000000; stroke-width: 0.8"/>
      </g>
     </g>
     <g id="text_15">
      <!-- 1750 -->
      <g transform="translate(25.15 89.734043)scale(0.1 -0.1)">
       <use xlink:href="#DejaVuSans-31"/>
       <use xlink:href="#DejaVuSans-37" x="63.623047"/>
       <use xlink:href="#DejaVuSans-35" x="127.246094"/>
       <use xlink:href="#DejaVuSans-30" x="190.869141"/>
      </g>
     </g>
    </g>
    <g id="ytick_9">
     <g id="line2d_15">
      <g>
       <use xlink:href="#mb280d0388a" x="57.6" y="54.270657" style="stroke: #000000; stroke-width: 0.8"/>
      </g>
     </g>
     <g id="text_16">
      <!-- 2000 -->
      <g transform="translate(25.15 58.069875)scale(0.1 -0.1)">
       <use xlink:href="#DejaVuSans-32"/>
       <use xlink:href="#DejaVuSans-30" x="63.623047"/>
       <use xlink:href="#DejaVuSans-30" x="127.246094"/>
       <use xlink:href="#DejaVuSans-30" x="190.869141"/>
      </g>
     </g>
    </g>
    <g id="text_17">
     <!-- Size per Species -->
     <g transform="translate(19.070312 215.520969)rotate(-90)scale(0.1 -0.1)">
      <defs>
       <path id="DejaVuSans-53" d="M 3425 4513 
L 3425 3897 
Q 3066 4069 2747 4153 
Q 2428 4238 2131 4238 
Q 1616 4238 1336 4038 
Q 1056 3838 1056 3469 
Q 1056 3159 1242 3001 
Q 1428 2844 1947 2747 
L 2328 2669 
Q 3034 2534 3370 2195 
Q 3706 1856 3706 1288 
Q 3706 609 3251 259 
Q 2797 -91 1919 -91 
Q 1588 -91 1214 -16 
Q 841 59 441 206 
L 441 856 
Q 825 641 1194 531 
Q 1563 422 1919 422 
Q 2459 422 2753 634 
Q 3047 847 3047 1241 
Q 3047 1584 2836 1778 
Q 2625 1972 2144 2069 
L 1759 2144 
Q 1053 2284 737 2584 
Q 422 2884 422 3419 
Q 422 4038 858 4394 
Q 1294 4750 2059 4750 
Q 2388 4750 2728 4690 
Q 3069 4631 3425 4513 
z
" transform="scale(0.015625)"/>
       <path id="DejaVuSans-7a" d="M 353 3500 
L 3084 3500 
L 3084 2975 
L 922 459 
L 3084 459 
L 3084 0 
L 275 0 
L 275 525 
L 2438 3041 
L 353 3041 
L 353 3500 
z
" transform="scale(0.015625)"/>
       <path id="DejaVuSans-20" transform="scale(0.015625)"/>
       <path id="DejaVuSans-70" d="M 1159 525 
L 1159 -1331 
L 581 -1331 
L 581 3500 
L 1159 3500 
L 1159 2969 
Q 1341 3281 1617 3432 
Q 1894 3584 2278 3584 
Q 2916 3584 3314 3078 
Q 3713 2572 3713 1747 
Q 3713 922 3314 415 
Q 2916 -91 2278 -91 
Q 1894 -91 1617 61 
Q 1341 213 1159 525 
z
M 3116 1747 
Q 3116 2381 2855 2742 
Q 2594 3103 2138 3103 
Q 1681 3103 1420 2742 
Q 1159 2381 1159 1747 
Q 1159 1113 1420 752 
Q 1681 391 2138 391 
Q 2594 391 2855 752 
Q 3116 1113 3116 1747 
z
" transform="scale(0.015625)"/>
       <path id="DejaVuSans-63" d="M 3122 3366 
L 3122 2828 
Q 2878 2963 2633 3030 
Q 2388 3097 2138 3097 
Q 1578 3097 1268 2742 
Q 959 2388 959 1747 
Q 959 1106 1268 751 
Q 1578 397 2138 397 
Q 2388 397 2633 464 
Q 2878 531 3122 666 
L 3122 134 
Q 2881 22 2623 -34 
Q 2366 -91 2075 -91 
Q 1284 -91 818 406 
Q 353 903 353 1747 
Q 353 2603 823 3093 
Q 1294 3584 2113 3584 
Q 2378 3584 2631 3529 
Q 2884 3475 3122 3366 
z
" transform="scale(0.015625)"/>
      </defs>
      <use xlink:href="#DejaVuSans-53"/>
      <use xlink:href="#DejaVuSans-69" x="63.476562"/>
      <use xlink:href="#DejaVuSans-7a" x="91.259766"/>
      <use xlink:href="#DejaVuSans-65" x="143.75"/>
      <use xlink:href="#DejaVuSans-20" x="205.273438"/>
      <use xlink:href="#DejaVuSans-70" x="237.060547"/>
      <use xlink:href="#DejaVuSans-65" x="300.537109"/>
      <use xlink:href="#DejaVuSans-72" x="362.060547"/>
      <use xlink:href="#DejaVuSans-20" x="403.173828"/>
      <use xlink:href="#DejaVuSans-53" x="434.960938"/>
      <use xlink:href="#DejaVuSans-70" x="498.4375"/>
      <use xlink:href="#DejaVuSans-65" x="561.914062"/>
      <use xlink:href="#DejaVuSans-63" x="623.4375"/>
      <use xlink:href="#DejaVuSans-69" x="678.417969"/>
      <use xlink:href="#DejaVuSans-65" x="706.201172"/>
      <use xlink:href="#DejaVuSans-73" x="767.724609"/>
     </g>
    </g>
   </g>
   <g id="patch_3">
    <path d="M 57.6 307.584 
L 57.6 41.472 
" style="fill: none; stroke: #000000; stroke-width: 0.8; stroke-linejoin: miter; stroke-linecap: square"/>
   </g>
   <g id="patch_4">
    <path d="M 414.72 307.584 
L 414.72 41.472 
" style="fill: none; stroke: #000000; stroke-width: 0.8; stroke-linejoin: miter; stroke-linecap: square"/>
   </g>
   <g id="patch_5">
    <path d="M 57.6 307.584 
L 414.72 307.584 
" style="fill: none; stroke: #000000; stroke-width: 0.8; stroke-linejoin: miter; stroke-linecap: square"/>
   </g>
   <g id="patch_6">
    <path d="M 57.6 41.472 
L 414.72 41.472 
" style="fill: none; stroke: #000000; stroke-width: 0.8; stroke-linejoin: miter; stroke-linecap: square"/>
   </g>
   <g id="text_18">
    <!-- Speciation -->
    <g transform="translate(204.714375 35.472)scale(0.12 -0.12)">
     <use xlink:href="#DejaVuSans-53"/>
     <use xlink:href="#DejaVuSans-70" x="63.476562"/>
     <use xlink:href="#DejaVuSans-65" x="126.953125"/>
     <use xlink:href="#DejaVuSans-63" x="188.476562"/>
     <use xlink:href="#DejaVuSans-69" x="243.457031"/>
     <use xlink:href="#DejaVuSans-61" x="271.240234"/>
     <use xlink:href="#DejaVuSans-74" x="332.519531"/>
     <use xlink:href="#DejaVuSans-69" x="371.728516"/>
     <use xlink:href="#DejaVuSans-6f" x="399.511719"/>
     <use xlink:href="#DejaVuSans-6e" x="460.693359"/>
    </g>
   </g>
  </g>
 </g>
 <defs>
  <clipPath id="pc212a3ac69">
   <rect x="57.6" y="41.472" width="357.12" height="266.112"/>
  </clipPath>
 </defs>
</svg>
