<?xml version="1.0" encoding="UTF-8" standalone="no"?>
<!DOCTYPE svg PUBLIC "-//W3C//DTD SVG 1.1//EN"
 "http://www.w3.org/Graphics/SVG/1.1/DTD/svg11.dtd">
<!-- Generated by graphviz version 10.0.1 (20240210.2158)
 -->
<!-- Pages: 1 -->
<svg width="735pt" height="117pt"
 viewBox="0.00 0.00 735.38 116.95" xmlns="http://www.w3.org/2000/svg" xmlns:xlink="http://www.w3.org/1999/xlink">
<g id="graph0" class="graph" transform="scale(1 1) rotate(0) translate(4 112.95)">
<polygon fill="white" stroke="none" points="-4,4 -4,-112.95 731.38,-112.95 731.38,4 -4,4"/>
<!-- Wall_N -->
<g id="node1" class="node">
<title>Wall_N</title>
<polygon fill="lightgray" stroke="black" points="112.12,-108.95 68.38,-108.95 68.38,-90.45 112.12,-90.45 112.12,-108.95"/>
<text text-anchor="middle" x="90.25" y="-96.4" font-family="Times,serif" font-size="9.00">Wall_N</text>
</g>
<!-- Left -->
<g id="node14" class="node">
<title>Left</title>
<ellipse fill="lightblue" stroke="black" cx="90.25" cy="-27.22" rx="21.39" ry="21.39"/>
<text text-anchor="middle" x="90.25" y="-23.92" font-family="Times,serif" font-size="9.00">Left</text>
</g>
<!-- Wall_N&#45;&gt;Left -->
<g id="edge1" class="edge">
<title>Wall_N&#45;&gt;Left</title>
<path fill="none" stroke="green" stroke-width="0.3" d="M90.25,-90.06C90.25,-82.37 90.25,-70.64 90.25,-59.46"/>
<polygon fill="green" stroke="green" stroke-width="0.3" points="93.75,-59.51 90.25,-49.51 86.75,-59.51 93.75,-59.51"/>
</g>
<!-- Right -->
<g id="node16" class="node">
<title>Right</title>
<ellipse fill="lightblue" stroke="black" cx="214.25" cy="-27.22" rx="25.1" ry="25.1"/>
<text text-anchor="middle" x="214.25" y="-23.92" font-family="Times,serif" font-size="9.00">Right</text>
</g>
<!-- Wall_N&#45;&gt;Right -->
<g id="edge10" class="edge">
<title>Wall_N&#45;&gt;Right</title>
<path fill="none" stroke="red" stroke-width="0.83" d="M105.45,-90.06C124.67,-79.14 158.21,-60.07 182.99,-45.99"/>
<polygon fill="red" stroke="red" stroke-width="0.83" points="184.61,-49.1 191.57,-41.11 181.15,-43.01 184.61,-49.1"/>
</g>
<!-- Wall_S -->
<g id="node2" class="node">
<title>Wall_S</title>
<polygon fill="lightgray" stroke="black" points="295.38,-108.95 253.12,-108.95 253.12,-90.45 295.38,-90.45 295.38,-108.95"/>
<text text-anchor="middle" x="274.25" y="-96.4" font-family="Times,serif" font-size="9.00">Wall_S</text>
</g>
<!-- Down -->
<g id="node15" class="node">
<title>Down</title>
<ellipse fill="lightblue" stroke="black" cx="423.25" cy="-27.22" rx="27.22" ry="27.22"/>
<text text-anchor="middle" x="423.25" y="-23.92" font-family="Times,serif" font-size="9.00">Down</text>
</g>
<!-- Wall_S&#45;&gt;Down -->
<g id="edge13" class="edge">
<title>Wall_S&#45;&gt;Down</title>
<path fill="none" stroke="red" stroke-width="0.38" d="M292.52,-90.06C316.57,-78.68 359.32,-58.46 389.37,-44.25"/>
<polygon fill="red" stroke="red" stroke-width="0.38" points="390.57,-47.55 398.11,-40.11 387.58,-41.22 390.57,-47.55"/>
</g>
<!-- Wall_S&#45;&gt;Right -->
<g id="edge2" class="edge">
<title>Wall_S&#45;&gt;Right</title>
<path fill="none" stroke="green" stroke-width="1.42" d="M266.89,-90.06C259.66,-81.56 248.23,-68.14 237.87,-55.97"/>
<polygon fill="green" stroke="green" stroke-width="1.42" points="240.78,-53.99 231.63,-48.64 235.45,-58.52 240.78,-53.99"/>
</g>
<!-- Wall_E -->
<g id="node3" class="node">
<title>Wall_E</title>
<polygon fill="lightgray" stroke="black" points="355.38,-108.95 313.12,-108.95 313.12,-90.45 355.38,-90.45 355.38,-108.95"/>
<text text-anchor="middle" x="334.25" y="-96.4" font-family="Times,serif" font-size="9.00">Wall_E</text>
</g>
<!-- Up -->
<g id="node13" class="node">
<title>Up</title>
<ellipse fill="lightblue" stroke="black" cx="552.25" cy="-27.22" rx="19.27" ry="19.27"/>
<text text-anchor="middle" x="552.25" y="-23.92" font-family="Times,serif" font-size="9.00">Up</text>
</g>
<!-- Wall_E&#45;&gt;Up -->
<g id="edge7" class="edge">
<title>Wall_E&#45;&gt;Up</title>
<path fill="none" stroke="green" stroke-width="1.51" d="M355.55,-91.81C394.62,-79.18 477.84,-52.28 522.48,-37.85"/>
<polygon fill="green" stroke="green" stroke-width="1.51" points="523.37,-41.24 531.81,-34.83 521.22,-34.58 523.37,-41.24"/>
</g>
<!-- Wall_E&#45;&gt;Right -->
<g id="edge6" class="edge">
<title>Wall_E&#45;&gt;Right</title>
<path fill="none" stroke="green" stroke-width="0.1" d="M319.54,-90.06C300.89,-79.11 268.29,-59.96 244.29,-45.87"/>
<polygon fill="green" stroke="green" stroke-width="0.1" points="246.1,-42.87 235.7,-40.82 242.55,-48.9 246.1,-42.87"/>
</g>
<!-- Wall_W -->
<g id="node4" class="node">
<title>Wall_W</title>
<polygon fill="lightgray" stroke="black" points="607.88,-108.95 562.62,-108.95 562.62,-90.45 607.88,-90.45 607.88,-108.95"/>
<text text-anchor="middle" x="585.25" y="-96.4" font-family="Times,serif" font-size="9.00">Wall_W</text>
</g>
<!-- Wall_W&#45;&gt;Up -->
<g id="edge5" class="edge">
<title>Wall_W&#45;&gt;Up</title>
<path fill="none" stroke="red" stroke-width="0.24" stroke-dasharray="1,5" d="M581.2,-90.06C577.06,-81.21 570.42,-67.02 564.54,-54.46"/>
<polygon fill="red" stroke="red" stroke-width="0.24" points="567.81,-53.19 560.4,-45.62 561.47,-56.16 567.81,-53.19"/>
</g>
<!-- Wall_W&#45;&gt;Down -->
<g id="edge11" class="edge">
<title>Wall_W&#45;&gt;Down</title>
<path fill="none" stroke="green" stroke-width="0.83" d="M565.39,-90.06C538.7,-78.45 490.86,-57.63 458.11,-43.39"/>
<polygon fill="green" stroke="green" stroke-width="0.83" points="459.77,-40.29 449.2,-39.51 456.98,-46.71 459.77,-40.29"/>
</g>
<!-- Tail_N -->
<g id="node5" class="node">
<title>Tail_N</title>
<polygon fill="lightgray" stroke="black" points="666.62,-108.95 625.88,-108.95 625.88,-90.45 666.62,-90.45 666.62,-108.95"/>
<text text-anchor="middle" x="646.25" y="-96.4" font-family="Times,serif" font-size="9.00">Tail_N</text>
</g>
<!-- Tail_N&#45;&gt;Up -->
<g id="edge12" class="edge">
<title>Tail_N&#45;&gt;Up</title>
<path fill="none" stroke="red" stroke-width="0.49" d="M634.72,-90.06C620.08,-79.08 594.45,-59.86 575.64,-45.76"/>
<polygon fill="red" stroke="red" stroke-width="0.49" points="577.98,-43.14 567.88,-39.94 573.78,-48.74 577.98,-43.14"/>
</g>
<!-- Tail_S -->
<g id="node6" class="node">
<title>Tail_S</title>
<polygon fill="lightgray" stroke="black" points="234.88,-108.95 195.62,-108.95 195.62,-90.45 234.88,-90.45 234.88,-108.95"/>
<text text-anchor="middle" x="215.25" y="-96.4" font-family="Times,serif" font-size="9.00">Tail_S</text>
</g>
<!-- Tail_S&#45;&gt;Left -->
<g id="edge15" class="edge">
<title>Tail_S&#45;&gt;Left</title>
<path fill="none" stroke="green" stroke-width="0.79" d="M199.92,-90.06C179.64,-78.62 143.51,-58.25 118.28,-44.03"/>
<polygon fill="green" stroke="green" stroke-width="0.79" points="120.01,-40.99 109.58,-39.12 116.57,-47.08 120.01,-40.99"/>
</g>
<!-- Tail_S&#45;&gt;Down -->
<g id="edge17" class="edge">
<title>Tail_S&#45;&gt;Down</title>
<path fill="none" stroke="red" stroke-width="0.65" d="M235.19,-91.94C270.23,-80.07 343.29,-55.32 387.32,-40.4"/>
<polygon fill="red" stroke="red" stroke-width="0.65" points="388.31,-43.76 396.65,-37.23 386.06,-37.13 388.31,-43.76"/>
</g>
<!-- Tail_E -->
<g id="node7" class="node">
<title>Tail_E</title>
<polygon fill="lightgray" stroke="black" points="412.88,-108.95 373.62,-108.95 373.62,-90.45 412.88,-90.45 412.88,-108.95"/>
<text text-anchor="middle" x="393.25" y="-96.4" font-family="Times,serif" font-size="9.00">Tail_E</text>
</g>
<!-- Tail_E&#45;&gt;Down -->
<g id="edge8" class="edge">
<title>Tail_E&#45;&gt;Down</title>
<path fill="none" stroke="red" stroke-width="0.35" d="M396.93,-90.06C399.92,-83.04 404.34,-72.65 408.71,-62.39"/>
<polygon fill="red" stroke="red" stroke-width="0.35" points="411.93,-63.76 412.62,-53.19 405.49,-61.02 411.93,-63.76"/>
</g>
<!-- Tail_W -->
<g id="node8" class="node">
<title>Tail_W</title>
<polygon fill="lightgray" stroke="black" points="727.38,-108.95 685.12,-108.95 685.12,-90.45 727.38,-90.45 727.38,-108.95"/>
<text text-anchor="middle" x="706.25" y="-96.4" font-family="Times,serif" font-size="9.00">Tail_W</text>
</g>
<!-- Apple_N -->
<g id="node9" class="node">
<title>Apple_N</title>
<polygon fill="lightgray" stroke="black" points="544.75,-108.95 495.75,-108.95 495.75,-90.45 544.75,-90.45 544.75,-108.95"/>
<text text-anchor="middle" x="520.25" y="-96.4" font-family="Times,serif" font-size="9.00">Apple_N</text>
</g>
<!-- Apple_N&#45;&gt;Up -->
<g id="edge3" class="edge">
<title>Apple_N&#45;&gt;Up</title>
<path fill="none" stroke="green" stroke-width="0.19" d="M524.17,-90.06C528.19,-81.21 534.63,-67.02 540.34,-54.46"/>
<polygon fill="green" stroke="green" stroke-width="0.19" points="543.43,-56.11 544.38,-45.55 537.06,-53.21 543.43,-56.11"/>
</g>
<!-- Apple_N&#45;&gt;Down -->
<g id="edge16" class="edge">
<title>Apple_N&#45;&gt;Down</title>
<path fill="none" stroke="green" stroke-width="0.25" d="M508.36,-90.06C494.67,-80.11 471.68,-63.41 453.04,-49.87"/>
<polygon fill="green" stroke="green" stroke-width="0.25" points="455.29,-47.18 445.14,-44.13 451.18,-52.84 455.29,-47.18"/>
</g>
<!-- Apple_S -->
<g id="node10" class="node">
<title>Apple_S</title>
<polygon fill="lightgray" stroke="black" points="478,-108.95 430.5,-108.95 430.5,-90.45 478,-90.45 478,-108.95"/>
<text text-anchor="middle" x="454.25" y="-96.4" font-family="Times,serif" font-size="9.00">Apple_S</text>
</g>
<!-- Apple_S&#45;&gt;Down -->
<g id="edge4" class="edge">
<title>Apple_S&#45;&gt;Down</title>
<path fill="none" stroke="green" stroke-width="0.3" d="M450.45,-90.06C447.33,-82.96 442.7,-72.44 438.14,-62.07"/>
<polygon fill="green" stroke="green" stroke-width="0.3" points="441.43,-60.85 434.2,-53.11 435.02,-63.67 441.43,-60.85"/>
</g>
<!-- Apple_E -->
<g id="node11" class="node">
<title>Apple_E</title>
<polygon fill="lightgray" stroke="black" points="178,-108.95 130.5,-108.95 130.5,-90.45 178,-90.45 178,-108.95"/>
<text text-anchor="middle" x="154.25" y="-96.4" font-family="Times,serif" font-size="9.00">Apple_E</text>
</g>
<!-- Apple_E&#45;&gt;Right -->
<g id="edge14" class="edge">
<title>Apple_E&#45;&gt;Right</title>
<path fill="none" stroke="red" stroke-width="0.14" d="M161.61,-90.06C169.12,-81.23 181.17,-67.08 191.84,-54.54"/>
<polygon fill="red" stroke="red" stroke-width="0.14" points="194.31,-57.04 198.13,-47.16 188.98,-52.51 194.31,-57.04"/>
</g>
<!-- Apple_W -->
<g id="node12" class="node">
<title>Apple_W</title>
<polygon fill="lightgray" stroke="black" points="50.5,-108.95 0,-108.95 0,-90.45 50.5,-90.45 50.5,-108.95"/>
<text text-anchor="middle" x="25.25" y="-96.4" font-family="Times,serif" font-size="9.00">Apple_W</text>
</g>
<!-- Apple_W&#45;&gt;Left -->
<g id="edge9" class="edge">
<title>Apple_W&#45;&gt;Left</title>
<path fill="none" stroke="green" stroke-width="1.68" d="M33.22,-90.06C41.79,-80.77 55.79,-65.59 67.77,-52.6"/>
<polygon fill="green" stroke="green" stroke-width="1.68" points="70.11,-55.22 74.31,-45.5 64.96,-50.48 70.11,-55.22"/>
</g>
</g>
</svg>
