<?xml version="1.0" encoding="UTF-8" standalone="no"?>
<!DOCTYPE svg PUBLIC "-//W3C//DTD SVG 1.1//EN"
 "http://www.w3.org/Graphics/SVG/1.1/DTD/svg11.dtd">
<!-- Generated by graphviz version 10.0.1 (20240210.2158)
 -->
<!-- Pages: 1 -->
<svg width="736pt" height="117pt"
 viewBox="0.00 0.00 735.75 116.95" xmlns="http://www.w3.org/2000/svg" xmlns:xlink="http://www.w3.org/1999/xlink">
<g id="graph0" class="graph" transform="scale(1 1) rotate(0) translate(4 112.95)">
<polygon fill="white" stroke="none" points="-4,4 -4,-112.95 731.75,-112.95 731.75,4 -4,4"/>
<!-- Wall_N -->
<g id="node1" class="node">
<title>Wall_N</title>
<polygon fill="lightgray" stroke="black" points="482.5,-108.95 438.75,-108.95 438.75,-90.45 482.5,-90.45 482.5,-108.95"/>
<text text-anchor="middle" x="460.62" y="-96.4" font-family="Times,serif" font-size="9.00">Wall_N</text>
</g>
<!-- Left -->
<g id="node14" class="node">
<title>Left</title>
<ellipse fill="lightblue" stroke="black" cx="330.62" cy="-27.22" rx="21.39" ry="21.39"/>
<text text-anchor="middle" x="330.62" y="-23.92" font-family="Times,serif" font-size="9.00">Left</text>
</g>
<!-- Wall_N&#45;&gt;Left -->
<g id="edge7" class="edge">
<title>Wall_N&#45;&gt;Left</title>
<path fill="none" stroke="green" stroke-width="0.91" stroke-dasharray="1,5" d="M444.68,-90.06C423.38,-78.5 385.25,-57.84 358.98,-43.6"/>
<polygon fill="green" stroke="green" stroke-width="0.91" points="360.88,-40.65 350.43,-38.96 357.55,-46.8 360.88,-40.65"/>
</g>
<!-- Wall_S -->
<g id="node2" class="node">
<title>Wall_S</title>
<polygon fill="lightgray" stroke="black" points="105.75,-108.95 63.5,-108.95 63.5,-90.45 105.75,-90.45 105.75,-108.95"/>
<text text-anchor="middle" x="84.62" y="-96.4" font-family="Times,serif" font-size="9.00">Wall_S</text>
</g>
<!-- Down -->
<g id="node15" class="node">
<title>Down</title>
<ellipse fill="lightblue" stroke="black" cx="263.62" cy="-27.22" rx="27.22" ry="27.22"/>
<text text-anchor="middle" x="263.62" y="-23.92" font-family="Times,serif" font-size="9.00">Down</text>
</g>
<!-- Wall_S&#45;&gt;Down -->
<g id="edge17" class="edge">
<title>Wall_S&#45;&gt;Down</title>
<path fill="none" stroke="green" stroke-width="0.11" d="M106.22,-90.2C136.69,-78.2 192.64,-56.17 228.97,-41.87"/>
<polygon fill="green" stroke="green" stroke-width="0.11" points="230.02,-45.21 238.05,-38.29 227.46,-38.7 230.02,-45.21"/>
</g>
<!-- Right -->
<g id="node16" class="node">
<title>Right</title>
<ellipse fill="lightblue" stroke="black" cx="116.62" cy="-27.22" rx="25.1" ry="25.1"/>
<text text-anchor="middle" x="116.62" y="-23.92" font-family="Times,serif" font-size="9.00">Right</text>
</g>
<!-- Wall_S&#45;&gt;Right -->
<g id="edge10" class="edge">
<title>Wall_S&#45;&gt;Right</title>
<path fill="none" stroke="green" stroke-width="0.34" d="M88.55,-90.06C91.98,-82.49 97.19,-71.03 102.19,-60.01"/>
<polygon fill="green" stroke="green" stroke-width="0.34" points="105.32,-61.59 106.27,-51.03 98.95,-58.69 105.32,-61.59"/>
</g>
<!-- Wall_E -->
<g id="node3" class="node">
<title>Wall_E</title>
<polygon fill="lightgray" stroke="black" points="231.75,-108.95 189.5,-108.95 189.5,-90.45 231.75,-90.45 231.75,-108.95"/>
<text text-anchor="middle" x="210.62" y="-96.4" font-family="Times,serif" font-size="9.00">Wall_E</text>
</g>
<!-- Wall_E&#45;&gt;Left -->
<g id="edge15" class="edge">
<title>Wall_E&#45;&gt;Left</title>
<path fill="none" stroke="green" stroke-width="0.15" d="M231.54,-90.02C250.08,-81.93 277.57,-68.95 299.62,-54.45 302.28,-52.7 304.95,-50.76 307.56,-48.75"/>
<polygon fill="green" stroke="green" stroke-width="0.15" points="309.39,-51.78 314.93,-42.75 304.97,-46.35 309.39,-51.78"/>
</g>
<!-- Wall_E&#45;&gt;Down -->
<g id="edge8" class="edge">
<title>Wall_E&#45;&gt;Down</title>
<path fill="none" stroke="green" stroke-width="0.43" d="M217.12,-90.06C223.17,-82.01 232.55,-69.54 241.3,-57.91"/>
<polygon fill="green" stroke="green" stroke-width="0.43" points="243.9,-60.27 247.11,-50.18 238.31,-56.07 243.9,-60.27"/>
</g>
<!-- Wall_W -->
<g id="node4" class="node">
<title>Wall_W</title>
<polygon fill="lightgray" stroke="black" points="45.25,-108.95 0,-108.95 0,-90.45 45.25,-90.45 45.25,-108.95"/>
<text text-anchor="middle" x="22.62" y="-96.4" font-family="Times,serif" font-size="9.00">Wall_W</text>
</g>
<!-- Wall_W&#45;&gt;Right -->
<g id="edge3" class="edge">
<title>Wall_W&#45;&gt;Right</title>
<path fill="none" stroke="green" stroke-width="0.14" d="M34.15,-90.06C47.67,-79.92 70.55,-62.77 88.79,-49.09"/>
<polygon fill="green" stroke="green" stroke-width="0.14" points="90.72,-52.02 96.62,-43.22 86.52,-46.42 90.72,-52.02"/>
</g>
<!-- Tail_N -->
<g id="node5" class="node">
<title>Tail_N</title>
<polygon fill="lightgray" stroke="black" points="667,-108.95 626.25,-108.95 626.25,-90.45 667,-90.45 667,-108.95"/>
<text text-anchor="middle" x="646.62" y="-96.4" font-family="Times,serif" font-size="9.00">Tail_N</text>
</g>
<!-- Up -->
<g id="node13" class="node">
<title>Up</title>
<ellipse fill="lightblue" stroke="black" cx="525.62" cy="-27.22" rx="19.27" ry="19.27"/>
<text text-anchor="middle" x="525.62" y="-23.92" font-family="Times,serif" font-size="9.00">Up</text>
</g>
<!-- Tail_N&#45;&gt;Up -->
<g id="edge9" class="edge">
<title>Tail_N&#45;&gt;Up</title>
<path fill="none" stroke="red" stroke-width="0.78" d="M631.79,-90.06C611.82,-78.43 575.99,-57.56 551.53,-43.31"/>
<polygon fill="red" stroke="red" stroke-width="0.78" points="553.55,-40.44 543.15,-38.43 550.03,-46.49 553.55,-40.44"/>
</g>
<!-- Tail_S -->
<g id="node6" class="node">
<title>Tail_S</title>
<polygon fill="lightgray" stroke="black" points="608.25,-108.95 569,-108.95 569,-90.45 608.25,-90.45 608.25,-108.95"/>
<text text-anchor="middle" x="588.62" y="-96.4" font-family="Times,serif" font-size="9.00">Tail_S</text>
</g>
<!-- Tail_S&#45;&gt;Up -->
<g id="edge4" class="edge">
<title>Tail_S&#45;&gt;Up</title>
<path fill="none" stroke="green" stroke-width="0.37" d="M580.9,-90.06C572,-80.1 557.05,-63.38 544.94,-49.83"/>
<polygon fill="green" stroke="green" stroke-width="0.37" points="547.85,-47.83 538.57,-42.71 542.63,-52.49 547.85,-47.83"/>
</g>
<!-- Tail_E -->
<g id="node7" class="node">
<title>Tail_E</title>
<polygon fill="lightgray" stroke="black" points="289.25,-108.95 250,-108.95 250,-90.45 289.25,-90.45 289.25,-108.95"/>
<text text-anchor="middle" x="269.62" y="-96.4" font-family="Times,serif" font-size="9.00">Tail_E</text>
</g>
<!-- Tail_E&#45;&gt;Left -->
<g id="edge19" class="edge">
<title>Tail_E&#45;&gt;Left</title>
<path fill="none" stroke="green" stroke-width="0.46" d="M277.1,-90.06C285.27,-80.62 298.7,-65.1 310.07,-51.97"/>
<polygon fill="green" stroke="green" stroke-width="0.46" points="312.45,-54.56 316.35,-44.71 307.16,-49.98 312.45,-54.56"/>
</g>
<!-- Tail_E&#45;&gt;Down -->
<g id="edge12" class="edge">
<title>Tail_E&#45;&gt;Down</title>
<path fill="none" stroke="green" stroke-width="0.14" d="M268.89,-90.06C268.33,-83.51 267.53,-74.03 266.71,-64.46"/>
<polygon fill="green" stroke="green" stroke-width="0.14" points="270.22,-64.45 265.89,-54.78 263.25,-65.04 270.22,-64.45"/>
</g>
<!-- Tail_W -->
<g id="node8" class="node">
<title>Tail_W</title>
<polygon fill="lightgray" stroke="black" points="727.75,-108.95 685.5,-108.95 685.5,-90.45 727.75,-90.45 727.75,-108.95"/>
<text text-anchor="middle" x="706.62" y="-96.4" font-family="Times,serif" font-size="9.00">Tail_W</text>
</g>
<!-- Apple_N -->
<g id="node9" class="node">
<title>Apple_N</title>
<polygon fill="lightgray" stroke="black" points="421.12,-108.95 372.12,-108.95 372.12,-90.45 421.12,-90.45 421.12,-108.95"/>
<text text-anchor="middle" x="396.62" y="-96.4" font-family="Times,serif" font-size="9.00">Apple_N</text>
</g>
<!-- Apple_N&#45;&gt;Up -->
<g id="edge16" class="edge">
<title>Apple_N&#45;&gt;Up</title>
<path fill="none" stroke="green" stroke-width="0.92" d="M412.44,-90.06C433.97,-78.3 472.78,-57.09 498.88,-42.84"/>
<polygon fill="green" stroke="green" stroke-width="0.92" points="500.53,-45.92 507.63,-38.05 497.18,-39.78 500.53,-45.92"/>
</g>
<!-- Apple_N&#45;&gt;Down -->
<g id="edge2" class="edge">
<title>Apple_N&#45;&gt;Down</title>
<path fill="none" stroke="green" stroke-width="0.21" d="M374.7,-89.96C354.86,-81.73 325.09,-68.59 300.62,-54.45 298.2,-53.04 295.73,-51.52 293.28,-49.94"/>
<polygon fill="green" stroke="green" stroke-width="0.21" points="295.62,-47.3 285.36,-44.62 291.71,-53.11 295.62,-47.3"/>
</g>
<!-- Apple_S -->
<g id="node10" class="node">
<title>Apple_S</title>
<polygon fill="lightgray" stroke="black" points="354.38,-108.95 306.88,-108.95 306.88,-90.45 354.38,-90.45 354.38,-108.95"/>
<text text-anchor="middle" x="330.62" y="-96.4" font-family="Times,serif" font-size="9.00">Apple_S</text>
</g>
<!-- Apple_S&#45;&gt;Up -->
<g id="edge11" class="edge">
<title>Apple_S&#45;&gt;Up</title>
<path fill="none" stroke="red" stroke-width="0.65" d="M354.54,-90.06C390.7,-76.99 459.15,-52.25 497.6,-38.35"/>
<polygon fill="red" stroke="red" stroke-width="0.65" points="498.46,-41.76 506.67,-35.07 496.08,-35.18 498.46,-41.76"/>
</g>
<!-- Apple_S&#45;&gt;Left -->
<g id="edge13" class="edge">
<title>Apple_S&#45;&gt;Left</title>
<path fill="none" stroke="red" stroke-width="0.42" d="M330.62,-90.06C330.62,-82.37 330.62,-70.64 330.62,-59.46"/>
<polygon fill="red" stroke="red" stroke-width="0.42" points="334.13,-59.69 330.63,-49.69 327.13,-59.69 334.13,-59.69"/>
</g>
<!-- Apple_S&#45;&gt;Down -->
<g id="edge20" class="edge">
<title>Apple_S&#45;&gt;Down</title>
<path fill="none" stroke="green" stroke-width="0.81" d="M322.41,-90.06C314.21,-81.43 301.18,-67.73 289.47,-55.41"/>
<polygon fill="green" stroke="green" stroke-width="0.81" points="292.3,-53.31 282.87,-48.47 287.23,-58.13 292.3,-53.31"/>
</g>
<!-- Apple_S&#45;&gt;Right -->
<g id="edge6" class="edge">
<title>Apple_S&#45;&gt;Right</title>
<path fill="none" stroke="green" stroke-width="0.51" d="M306.49,-90.75C268.32,-78.18 193.9,-53.67 150.43,-39.35"/>
<polygon fill="green" stroke="green" stroke-width="0.51" points="151.66,-36.08 141.07,-36.27 149.47,-42.73 151.66,-36.08"/>
</g>
<!-- Apple_E -->
<g id="node11" class="node">
<title>Apple_E</title>
<polygon fill="lightgray" stroke="black" points="171.38,-108.95 123.88,-108.95 123.88,-90.45 171.38,-90.45 171.38,-108.95"/>
<text text-anchor="middle" x="147.62" y="-96.4" font-family="Times,serif" font-size="9.00">Apple_E</text>
</g>
<!-- Apple_E&#45;&gt;Left -->
<g id="edge5" class="edge">
<title>Apple_E&#45;&gt;Left</title>
<path fill="none" stroke="red" stroke-width="0.2" d="M171.69,-92.28C211.6,-81.56 288.24,-60.56 299.62,-54.45 302.39,-52.96 305.14,-51.2 307.78,-49.3"/>
<polygon fill="red" stroke="red" stroke-width="0.2" points="309.9,-52.09 315.56,-43.13 305.55,-46.6 309.9,-52.09"/>
</g>
<!-- Apple_E&#45;&gt;Right -->
<g id="edge14" class="edge">
<title>Apple_E&#45;&gt;Right</title>
<path fill="none" stroke="green" stroke-width="0.93" d="M143.82,-90.06C140.56,-82.65 135.66,-71.49 130.9,-60.68"/>
<polygon fill="green" stroke="green" stroke-width="0.93" points="134.25,-59.59 127.02,-51.85 127.84,-62.41 134.25,-59.59"/>
</g>
<!-- Apple_W -->
<g id="node12" class="node">
<title>Apple_W</title>
<polygon fill="lightgray" stroke="black" points="550.88,-108.95 500.38,-108.95 500.38,-90.45 550.88,-90.45 550.88,-108.95"/>
<text text-anchor="middle" x="525.62" y="-96.4" font-family="Times,serif" font-size="9.00">Apple_W</text>
</g>
<!-- Apple_W&#45;&gt;Up -->
<g id="edge18" class="edge">
<title>Apple_W&#45;&gt;Up</title>
<path fill="none" stroke="red" stroke-width="0.21" d="M525.62,-90.06C525.62,-81.75 525.62,-68.75 525.62,-56.8"/>
<polygon fill="red" stroke="red" stroke-width="0.21" points="529.13,-57.03 525.63,-47.03 522.13,-57.03 529.13,-57.03"/>
</g>
<!-- Apple_W&#45;&gt;Left -->
<g id="edge1" class="edge">
<title>Apple_W&#45;&gt;Left</title>
<path fill="none" stroke="green" stroke-width="0.43" d="M501.71,-90.06C466.05,-77.17 398.99,-52.93 360.26,-38.93"/>
<polygon fill="green" stroke="green" stroke-width="0.43" points="361.81,-35.77 351.22,-35.67 359.43,-42.36 361.81,-35.77"/>
</g>
</g>
</svg>
