<?xml version="1.0" encoding="UTF-8" standalone="no"?>
<!DOCTYPE svg PUBLIC "-//W3C//DTD SVG 1.1//EN"
 "http://www.w3.org/Graphics/SVG/1.1/DTD/svg11.dtd">
<!-- Generated by graphviz version 10.0.1 (20240210.2158)
 -->
<!-- Pages: 1 -->
<svg width="1217pt" height="201pt"
 viewBox="0.00 0.00 1216.62 201.03" xmlns="http://www.w3.org/2000/svg" xmlns:xlink="http://www.w3.org/1999/xlink">
<g id="graph0" class="graph" transform="scale(1 1) rotate(0) translate(4 197.03)">
<polygon fill="white" stroke="none" points="-4,4 -4,-197.03 1212.62,-197.03 1212.62,4 -4,4"/>
<!-- Wall_N -->
<g id="node1" class="node">
<title>Wall_N</title>
<polygon fill="lightgray" stroke="black" points="1088.5,-193.03 1044.75,-193.03 1044.75,-174.53 1088.5,-174.53 1088.5,-193.03"/>
<text text-anchor="middle" x="1066.62" y="-180.48" font-family="Times,serif" font-size="9.00">Wall_N</text>
</g>
<!-- Down -->
<g id="node23" class="node">
<title>Down</title>
<ellipse fill="lightblue" stroke="black" cx="858.62" cy="-27.22" rx="27.22" ry="27.22"/>
<text text-anchor="middle" x="858.62" y="-23.92" font-family="Times,serif" font-size="9.00">Down</text>
</g>
<!-- Wall_N&#45;&gt;Down -->
<g id="edge8" class="edge">
<title>Wall_N&#45;&gt;Down</title>
<path fill="none" stroke="green" stroke-width="0.53" d="M1075.64,-174.29C1083.69,-166.05 1094.92,-152.72 1099.62,-138.53 1106.36,-118.25 1112.71,-107.34 1099.62,-90.45 1074.85,-58.46 957.37,-39.98 896.07,-32.36"/>
<polygon fill="green" stroke="green" stroke-width="0.53" points="896.81,-28.92 886.46,-31.2 895.97,-35.87 896.81,-28.92"/>
</g>
<!-- Right -->
<g id="node24" class="node">
<title>Right</title>
<ellipse fill="lightblue" stroke="black" cx="266.62" cy="-27.22" rx="25.1" ry="25.1"/>
<text text-anchor="middle" x="266.62" y="-23.92" font-family="Times,serif" font-size="9.00">Right</text>
</g>
<!-- Wall_N&#45;&gt;Right -->
<g id="edge11" class="edge">
<title>Wall_N&#45;&gt;Right</title>
<path fill="none" stroke="green" stroke-width="0.49" d="M1044.37,-182.15C904.03,-178.12 146.92,-155.62 130.62,-138.53 115.87,-123.07 119.08,-108.43 130.62,-90.45 152.62,-56.19 198.68,-40.56 231.08,-33.58"/>
<polygon fill="green" stroke="green" stroke-width="0.49" points="231.63,-37.04 240.77,-31.68 230.28,-30.17 231.63,-37.04"/>
</g>
<!-- 2205 -->
<g id="node25" class="node">
<title>2205</title>
<ellipse fill="white" stroke="black" cx="1066.62" cy="-114.49" rx="24.04" ry="24.04"/>
<text text-anchor="middle" x="1066.62" y="-111.19" font-family="Times,serif" font-size="9.00">2205</text>
</g>
<!-- Wall_N&#45;&gt;2205 -->
<g id="edge41" class="edge">
<title>Wall_N&#45;&gt;2205</title>
<path fill="none" stroke="red" stroke-width="0.24" d="M1066.62,-174.26C1066.62,-167.83 1066.62,-158.57 1066.62,-149.29"/>
<polygon fill="red" stroke="red" stroke-width="0.24" points="1070.13,-149.33 1066.63,-139.33 1063.13,-149.33 1070.13,-149.33"/>
</g>
<!-- Wall_S -->
<g id="node2" class="node">
<title>Wall_S</title>
<polygon fill="lightgray" stroke="black" points="1162.75,-193.03 1120.5,-193.03 1120.5,-174.53 1162.75,-174.53 1162.75,-193.03"/>
<text text-anchor="middle" x="1141.62" y="-180.48" font-family="Times,serif" font-size="9.00">Wall_S</text>
</g>
<!-- Wall_S&#45;&gt;Down -->
<g id="edge1" class="edge">
<title>Wall_S&#45;&gt;Down</title>
<path fill="none" stroke="red" stroke-width="0.38" d="M1141.99,-174.24C1142.26,-156.07 1140.2,-113.37 1116.62,-90.45 1085.48,-60.15 960.21,-40.73 896.39,-32.59"/>
<polygon fill="red" stroke="red" stroke-width="0.38" points="896.89,-29.13 886.54,-31.37 896.03,-36.08 896.89,-29.13"/>
</g>
<!-- Wall_S&#45;&gt;2205 -->
<g id="edge38" class="edge">
<title>Wall_S&#45;&gt;2205</title>
<path fill="none" stroke="red" stroke-width="0.39" d="M1132.13,-174.26C1122.11,-165.27 1105.9,-150.73 1092.11,-138.36"/>
<polygon fill="red" stroke="red" stroke-width="0.39" points="1094.56,-135.85 1084.78,-131.77 1089.88,-141.06 1094.56,-135.85"/>
</g>
<!-- Wall_E -->
<g id="node3" class="node">
<title>Wall_E</title>
<polygon fill="lightgray" stroke="black" points="904.75,-123.74 862.5,-123.74 862.5,-105.24 904.75,-105.24 904.75,-123.74"/>
<text text-anchor="middle" x="883.62" y="-111.19" font-family="Times,serif" font-size="9.00">Wall_E</text>
</g>
<!-- Wall_E&#45;&gt;Down -->
<g id="edge26" class="edge">
<title>Wall_E&#45;&gt;Down</title>
<path fill="none" stroke="green" stroke-width="0.37" d="M881.14,-105C878.28,-95.26 873.41,-78.65 868.93,-63.36"/>
<polygon fill="green" stroke="green" stroke-width="0.37" points="872.39,-62.75 866.22,-54.13 865.68,-64.72 872.39,-62.75"/>
</g>
<!-- Wall_W -->
<g id="node4" class="node">
<title>Wall_W</title>
<polygon fill="lightgray" stroke="black" points="45.25,-123.74 0,-123.74 0,-105.24 45.25,-105.24 45.25,-123.74"/>
<text text-anchor="middle" x="22.62" y="-111.19" font-family="Times,serif" font-size="9.00">Wall_W</text>
</g>
<!-- Wall_W&#45;&gt;Right -->
<g id="edge34" class="edge">
<title>Wall_W&#45;&gt;Right</title>
<path fill="none" stroke="green" stroke-width="0.28" d="M34.51,-104.96C41.55,-100.2 50.8,-94.44 59.62,-90.45 117.79,-64.16 190.04,-45.34 231.98,-35.66"/>
<polygon fill="green" stroke="green" stroke-width="0.28" points="232.58,-39.12 241.56,-33.49 231.03,-32.29 232.58,-39.12"/>
</g>
<!-- Tail_N -->
<g id="node5" class="node">
<title>Tail_N</title>
<polygon fill="lightgray" stroke="black" points="964,-123.74 923.25,-123.74 923.25,-105.24 964,-105.24 964,-123.74"/>
<text text-anchor="middle" x="943.62" y="-111.19" font-family="Times,serif" font-size="9.00">Tail_N</text>
</g>
<!-- Tail_N&#45;&gt;Down -->
<g id="edge9" class="edge">
<title>Tail_N&#45;&gt;Down</title>
<path fill="none" stroke="red" stroke-width="0.24" d="M935.16,-105C923.48,-93.28 901.89,-71.62 884.61,-54.29"/>
<polygon fill="red" stroke="red" stroke-width="0.24" points="887.31,-52.04 877.77,-47.43 882.35,-56.98 887.31,-52.04"/>
</g>
<!-- Tail_S -->
<g id="node6" class="node">
<title>Tail_S</title>
<polygon fill="lightgray" stroke="black" points="755.25,-193.03 716,-193.03 716,-174.53 755.25,-174.53 755.25,-193.03"/>
<text text-anchor="middle" x="735.62" y="-180.48" font-family="Times,serif" font-size="9.00">Tail_S</text>
</g>
<!-- Up -->
<g id="node21" class="node">
<title>Up</title>
<ellipse fill="lightblue" stroke="black" cx="594.62" cy="-27.22" rx="19.27" ry="19.27"/>
<text text-anchor="middle" x="594.62" y="-23.92" font-family="Times,serif" font-size="9.00">Up</text>
</g>
<!-- Tail_S&#45;&gt;Up -->
<g id="edge4" class="edge">
<title>Tail_S&#45;&gt;Up</title>
<path fill="none" stroke="green" stroke-width="0.13" d="M715.53,-175.39C698.02,-168.15 672.8,-155.7 655.62,-138.53 631.69,-114.59 614.41,-79.31 604.48,-55.13"/>
<polygon fill="green" stroke="green" stroke-width="0.13" points="607.8,-54.02 600.87,-46.01 601.29,-56.59 607.8,-54.02"/>
</g>
<!-- Tail_S&#45;&gt;Down -->
<g id="edge13" class="edge">
<title>Tail_S&#45;&gt;Down</title>
<path fill="none" stroke="green" stroke-width="0.67" d="M755.59,-176.2C773.52,-169.36 799.43,-157.05 815.62,-138.53 833.97,-117.56 844.94,-87.88 851.2,-64.58"/>
<polygon fill="green" stroke="green" stroke-width="0.67" points="854.56,-65.6 853.59,-55.05 847.77,-63.9 854.56,-65.6"/>
</g>
<!-- Tail_S&#45;&gt;Right -->
<g id="edge33" class="edge">
<title>Tail_S&#45;&gt;Right</title>
<path fill="none" stroke="red" stroke-width="0.13" d="M715.61,-182.97C612.1,-183.75 140.75,-184.75 97.62,-138.53 83.05,-122.91 85.4,-107.98 97.62,-90.45 127.67,-47.37 191.06,-34.03 231.09,-29.95"/>
<polygon fill="red" stroke="red" stroke-width="0.13" points="231.37,-33.44 241.02,-29.09 230.76,-26.47 231.37,-33.44"/>
</g>
<!-- Tail_S&#45;&gt;2205 -->
<g id="edge40" class="edge">
<title>Tail_S&#45;&gt;2205</title>
<path fill="none" stroke="red" stroke-width="0.45" d="M755.6,-182.92C804.75,-182.62 934.72,-177.86 1033.62,-138.53 1035.52,-137.78 1037.42,-136.89 1039.29,-135.92"/>
<polygon fill="red" stroke="red" stroke-width="0.45" points="1040.95,-139 1047.71,-130.84 1037.34,-133.01 1040.95,-139"/>
</g>
<!-- Tail_E -->
<g id="node7" class="node">
<title>Tail_E</title>
<polygon fill="lightgray" stroke="black" points="225.25,-123.74 186,-123.74 186,-105.24 225.25,-105.24 225.25,-123.74"/>
<text text-anchor="middle" x="205.62" y="-111.19" font-family="Times,serif" font-size="9.00">Tail_E</text>
</g>
<!-- Left -->
<g id="node22" class="node">
<title>Left</title>
<ellipse fill="lightblue" stroke="black" cx="383.62" cy="-27.22" rx="21.39" ry="21.39"/>
<text text-anchor="middle" x="383.62" y="-23.92" font-family="Times,serif" font-size="9.00">Left</text>
</g>
<!-- Tail_E&#45;&gt;Left -->
<g id="edge5" class="edge">
<title>Tail_E&#45;&gt;Left</title>
<path fill="none" stroke="red" stroke-width="0.33" d="M214.69,-104.86C219.94,-100.18 226.83,-94.53 233.62,-90.45 272.6,-67.04 322,-48.43 353.22,-37.86"/>
<polygon fill="red" stroke="red" stroke-width="0.33" points="354.2,-41.22 362.59,-34.75 352,-34.58 354.2,-41.22"/>
</g>
<!-- Tail_E&#45;&gt;Right -->
<g id="edge2" class="edge">
<title>Tail_E&#45;&gt;Right</title>
<path fill="none" stroke="red" stroke-width="0.24" d="M211.7,-105C219.78,-93.71 234.46,-73.19 246.61,-56.2"/>
<polygon fill="red" stroke="red" stroke-width="0.24" points="249.15,-58.67 252.12,-48.5 243.45,-54.6 249.15,-58.67"/>
</g>
<!-- Tail_W -->
<g id="node8" class="node">
<title>Tail_W</title>
<polygon fill="lightgray" stroke="black" points="1024.75,-123.74 982.5,-123.74 982.5,-105.24 1024.75,-105.24 1024.75,-123.74"/>
<text text-anchor="middle" x="1003.62" y="-111.19" font-family="Times,serif" font-size="9.00">Tail_W</text>
</g>
<!-- Tail_W&#45;&gt;Down -->
<g id="edge24" class="edge">
<title>Tail_W&#45;&gt;Down</title>
<path fill="none" stroke="red" stroke-width="0.41" d="M992.7,-104.78C986.88,-100.3 979.52,-94.86 972.62,-90.45 946.37,-73.64 915.23,-56.84 892.13,-44.94"/>
<polygon fill="red" stroke="red" stroke-width="0.41" points="893.82,-41.87 883.32,-40.44 890.63,-48.1 893.82,-41.87"/>
</g>
<!-- Apple_N -->
<g id="node9" class="node">
<title>Apple_N</title>
<polygon fill="lightgray" stroke="black" points="714.12,-123.74 665.12,-123.74 665.12,-105.24 714.12,-105.24 714.12,-123.74"/>
<text text-anchor="middle" x="689.62" y="-111.19" font-family="Times,serif" font-size="9.00">Apple_N</text>
</g>
<!-- Apple_N&#45;&gt;Up -->
<g id="edge29" class="edge">
<title>Apple_N&#45;&gt;Up</title>
<path fill="none" stroke="red" stroke-width="0.23" d="M680.17,-105C665.34,-91.69 636.22,-65.56 616.11,-47.5"/>
<polygon fill="red" stroke="red" stroke-width="0.23" points="618.66,-45.1 608.88,-41.02 613.99,-50.31 618.66,-45.1"/>
</g>
<!-- Apple_S -->
<g id="node10" class="node">
<title>Apple_S</title>
<polygon fill="lightgray" stroke="black" points="562.38,-123.74 514.88,-123.74 514.88,-105.24 562.38,-105.24 562.38,-123.74"/>
<text text-anchor="middle" x="538.62" y="-111.19" font-family="Times,serif" font-size="9.00">Apple_S</text>
</g>
<!-- Apple_S&#45;&gt;Up -->
<g id="edge7" class="edge">
<title>Apple_S&#45;&gt;Up</title>
<path fill="none" stroke="green" stroke-width="0.33" d="M544.2,-105C552.16,-92.88 567.11,-70.12 578.67,-52.52"/>
<polygon fill="green" stroke="green" stroke-width="0.33" points="581.52,-54.56 584.08,-44.28 575.67,-50.72 581.52,-54.56"/>
</g>
<!-- Apple_S&#45;&gt;Left -->
<g id="edge32" class="edge">
<title>Apple_S&#45;&gt;Left</title>
<path fill="none" stroke="red" stroke-width="0.19" d="M526.97,-104.76C520.77,-100.27 512.93,-94.83 505.62,-90.45 474.53,-71.78 437.19,-53.27 412.07,-41.36"/>
<polygon fill="red" stroke="red" stroke-width="0.19" points="413.89,-38.34 403.35,-37.25 410.91,-44.68 413.89,-38.34"/>
</g>
<!-- Apple_S&#45;&gt;Down -->
<g id="edge27" class="edge">
<title>Apple_S&#45;&gt;Down</title>
<path fill="none" stroke="red" stroke-width="0.19" d="M548.69,-104.88C554.92,-99.97 563.3,-94.08 571.62,-90.45 656.35,-53.47 765.03,-37.66 821.23,-31.58"/>
<polygon fill="red" stroke="red" stroke-width="0.19" points="821.55,-35.07 831.13,-30.55 820.82,-28.1 821.55,-35.07"/>
</g>
<!-- Apple_S&#45;&gt;Right -->
<g id="edge3" class="edge">
<title>Apple_S&#45;&gt;Right</title>
<path fill="none" stroke="green" stroke-width="0.37" d="M528.54,-104.94C522.3,-100.04 513.92,-94.16 505.62,-90.45 442.26,-62.07 420.67,-72.47 353.62,-54.45 336,-49.71 316.55,-43.9 300.51,-38.95"/>
<polygon fill="green" stroke="green" stroke-width="0.37" points="301.64,-35.64 291.05,-36.01 299.56,-42.32 301.64,-35.64"/>
</g>
<!-- Apple_E -->
<g id="node11" class="node">
<title>Apple_E</title>
<polygon fill="lightgray" stroke="black" points="290.38,-123.74 242.88,-123.74 242.88,-105.24 290.38,-105.24 290.38,-123.74"/>
<text text-anchor="middle" x="266.62" y="-111.19" font-family="Times,serif" font-size="9.00">Apple_E</text>
</g>
<!-- Apple_E&#45;&gt;Left -->
<g id="edge6" class="edge">
<title>Apple_E&#45;&gt;Left</title>
<path fill="none" stroke="green" stroke-width="0.7" stroke-dasharray="1,5" d="M278.27,-105C296.72,-91.56 333.12,-65.03 357.91,-46.96"/>
<polygon fill="green" stroke="green" stroke-width="0.7" points="359.91,-49.84 365.93,-41.12 355.78,-44.18 359.91,-49.84"/>
</g>
<!-- Apple_E&#45;&gt;Right -->
<g id="edge14" class="edge">
<title>Apple_E&#45;&gt;Right</title>
<path fill="none" stroke="green" stroke-width="0.4" stroke-dasharray="1,5" d="M266.62,-105C266.62,-95.14 266.62,-78.26 266.62,-62.83"/>
<polygon fill="green" stroke="green" stroke-width="0.4" points="270.13,-63.09 266.63,-53.09 263.13,-63.09 270.13,-63.09"/>
</g>
<!-- Apple_W -->
<g id="node12" class="node">
<title>Apple_W</title>
<polygon fill="lightgray" stroke="black" points="404.88,-123.74 354.38,-123.74 354.38,-105.24 404.88,-105.24 404.88,-123.74"/>
<text text-anchor="middle" x="379.62" y="-111.19" font-family="Times,serif" font-size="9.00">Apple_W</text>
</g>
<!-- Apple_W&#45;&gt;Up -->
<g id="edge20" class="edge">
<title>Apple_W&#45;&gt;Up</title>
<path fill="none" stroke="red" stroke-width="0.39" stroke-dasharray="1,5" d="M390.81,-104.8C397.23,-100.11 405.59,-94.46 413.62,-90.45 464.89,-64.83 529.24,-45.49 565.77,-35.59"/>
<polygon fill="red" stroke="red" stroke-width="0.39" points="566.4,-39.05 575.16,-33.09 564.6,-32.28 566.4,-39.05"/>
</g>
<!-- Apple_W&#45;&gt;Right -->
<g id="edge31" class="edge">
<title>Apple_W&#45;&gt;Right</title>
<path fill="none" stroke="green" stroke-width="0.15" d="M368.38,-105C351.3,-92.11 318.3,-67.22 294.51,-49.26"/>
<polygon fill="green" stroke="green" stroke-width="0.15" points="296.79,-46.6 286.69,-43.37 292.57,-52.18 296.79,-46.6"/>
</g>
<!-- &#45;13 -->
<g id="node13" class="node">
<title>&#45;13</title>
<polygon fill="lightgray" stroke="black" points="496.62,-123.74 468.62,-123.74 468.62,-105.24 496.62,-105.24 496.62,-123.74"/>
<text text-anchor="middle" x="482.62" y="-111.19" font-family="Times,serif" font-size="9.00">&#45;13</text>
</g>
<!-- &#45;13&#45;&gt;Up -->
<g id="edge30" class="edge">
<title>&#45;13&#45;&gt;Up</title>
<path fill="none" stroke="green" stroke-width="0.75" d="M490.38,-105.02C494.69,-100.5 500.26,-94.95 505.62,-90.45 526.07,-73.29 551.12,-56.08 569.43,-44.12"/>
<polygon fill="green" stroke="green" stroke-width="0.75" points="571.12,-47.2 577.62,-38.83 567.32,-41.32 571.12,-47.2"/>
</g>
<!-- &#45;13&#45;&gt;Left -->
<g id="edge10" class="edge">
<title>&#45;13&#45;&gt;Left</title>
<path fill="none" stroke="green" stroke-width="0.52" d="M474.3,-104.75C470.02,-100.35 464.65,-95 459.62,-90.45 443.15,-75.52 423.73,-59.65 408.65,-47.68"/>
<polygon fill="green" stroke="green" stroke-width="0.52" points="410.97,-45.04 400.95,-41.6 406.63,-50.54 410.97,-45.04"/>
</g>
<!-- &#45;14 -->
<g id="node14" class="node">
<title>&#45;14</title>
<polygon fill="lightgray" stroke="black" points="608.62,-123.74 580.62,-123.74 580.62,-105.24 608.62,-105.24 608.62,-123.74"/>
<text text-anchor="middle" x="594.62" y="-111.19" font-family="Times,serif" font-size="9.00">&#45;14</text>
</g>
<!-- &#45;14&#45;&gt;Up -->
<g id="edge21" class="edge">
<title>&#45;14&#45;&gt;Up</title>
<path fill="none" stroke="red" stroke-width="0.4" d="M594.62,-105C594.62,-93.94 594.62,-74.04 594.62,-57.27"/>
<polygon fill="red" stroke="red" stroke-width="0.4" points="598.13,-57.44 594.63,-47.44 591.13,-57.44 598.13,-57.44"/>
</g>
<!-- &#45;14&#45;&gt;Down -->
<g id="edge15" class="edge">
<title>&#45;14&#45;&gt;Down</title>
<path fill="none" stroke="green" stroke-width="0.56" d="M609.07,-107.73C621.38,-102.91 639.56,-95.94 655.62,-90.45 713.42,-70.7 781.44,-50.45 822.24,-38.62"/>
<polygon fill="green" stroke="green" stroke-width="0.56" points="823.04,-42.03 831.68,-35.89 821.1,-35.3 823.04,-42.03"/>
</g>
<!-- &#45;14&#45;&gt;Right -->
<g id="edge19" class="edge">
<title>&#45;14&#45;&gt;Right</title>
<path fill="none" stroke="red" stroke-width="0.31" d="M588.33,-104.91C584.17,-99.88 578.26,-93.86 571.62,-90.45 484.29,-45.54 449.28,-76.66 353.62,-54.45 335.85,-50.32 316.38,-44.57 300.37,-39.5"/>
<polygon fill="red" stroke="red" stroke-width="0.31" points="301.44,-36.17 290.85,-36.44 299.3,-42.84 301.44,-36.17"/>
</g>
<!-- &#45;15 -->
<g id="node15" class="node">
<title>&#45;15</title>
<polygon fill="lightgray" stroke="black" points="450.62,-123.74 422.62,-123.74 422.62,-105.24 450.62,-105.24 450.62,-123.74"/>
<text text-anchor="middle" x="436.62" y="-111.19" font-family="Times,serif" font-size="9.00">&#45;15</text>
</g>
<!-- &#45;15&#45;&gt;Left -->
<g id="edge23" class="edge">
<title>&#45;15&#45;&gt;Left</title>
<path fill="none" stroke="red" stroke-width="0.37" d="M431.35,-105C424.08,-93.31 410.66,-71.72 399.9,-54.41"/>
<polygon fill="red" stroke="red" stroke-width="0.37" points="403.11,-52.95 394.86,-46.3 397.17,-56.64 403.11,-52.95"/>
</g>
<!-- &#45;15&#45;&gt;Down -->
<g id="edge12" class="edge">
<title>&#45;15&#45;&gt;Down</title>
<path fill="none" stroke="green" stroke-width="0.27" d="M442.91,-104.89C447.07,-99.85 452.97,-93.83 459.62,-90.45 491.67,-74.15 728.47,-44.03 821.37,-32.69"/>
<polygon fill="green" stroke="green" stroke-width="0.27" points="821.55,-36.2 831.05,-31.52 820.7,-29.25 821.55,-36.2"/>
</g>
<!-- &#45;15&#45;&gt;Right -->
<g id="edge35" class="edge">
<title>&#45;15&#45;&gt;Right</title>
<path fill="none" stroke="green" stroke-width="0.51" d="M429.62,-105C425.37,-100.25 419.62,-94.49 413.62,-90.45 378.02,-66.43 331.65,-48.69 300.6,-38.43"/>
<polygon fill="green" stroke="green" stroke-width="0.51" points="302.02,-35.21 291.43,-35.47 299.87,-41.87 302.02,-35.21"/>
</g>
<!-- &#45;16 -->
<g id="node16" class="node">
<title>&#45;16</title>
<polygon fill="lightgray" stroke="black" points="760.62,-123.74 732.62,-123.74 732.62,-105.24 760.62,-105.24 760.62,-123.74"/>
<text text-anchor="middle" x="746.62" y="-111.19" font-family="Times,serif" font-size="9.00">&#45;16</text>
</g>
<!-- &#45;16&#45;&gt;Left -->
<g id="edge25" class="edge">
<title>&#45;16&#45;&gt;Left</title>
<path fill="none" stroke="red" stroke-width="0.23" d="M739.96,-104.95C735.58,-99.94 729.41,-93.92 722.62,-90.45 695.23,-76.42 492.87,-44.74 414.5,-32.85"/>
<polygon fill="red" stroke="red" stroke-width="0.23" points="415.47,-29.46 405.06,-31.42 414.43,-36.38 415.47,-29.46"/>
</g>
<!-- &#45;16&#45;&gt;Down -->
<g id="edge36" class="edge">
<title>&#45;16&#45;&gt;Down</title>
<path fill="none" stroke="red" stroke-width="0.5" d="M754.38,-105.02C758.69,-100.5 764.26,-94.95 769.62,-90.45 787.83,-75.17 809.68,-59.86 827.17,-48.24"/>
<polygon fill="red" stroke="red" stroke-width="0.5" points="828.8,-51.36 835.24,-42.94 824.96,-45.5 828.8,-51.36"/>
</g>
<!-- &#45;17 -->
<g id="node17" class="node">
<title>&#45;17</title>
<polygon fill="lightgray" stroke="black" points="336.62,-123.74 308.62,-123.74 308.62,-105.24 336.62,-105.24 336.62,-123.74"/>
<text text-anchor="middle" x="322.62" y="-111.19" font-family="Times,serif" font-size="9.00">&#45;17</text>
</g>
<!-- &#45;17&#45;&gt;Left -->
<g id="edge18" class="edge">
<title>&#45;17&#45;&gt;Left</title>
<path fill="none" stroke="red" stroke-width="0.62" d="M328.7,-105C337.17,-93.16 352.88,-71.19 365.34,-53.78"/>
<polygon fill="red" stroke="red" stroke-width="0.62" points="367.99,-56.09 370.96,-45.92 362.3,-52.02 367.99,-56.09"/>
</g>
<!-- &#45;17&#45;&gt;Right -->
<g id="edge22" class="edge">
<title>&#45;17&#45;&gt;Right</title>
<path fill="none" stroke="green" stroke-width="0.32" d="M317.05,-105C309.79,-93.95 296.74,-74.08 285.73,-57.32"/>
<polygon fill="green" stroke="green" stroke-width="0.32" points="288.88,-55.74 280.47,-49.3 283.03,-59.58 288.88,-55.74"/>
</g>
<!-- &#45;18 -->
<g id="node18" class="node">
<title>&#45;18</title>
<polygon fill="lightgray" stroke="black" points="1208.62,-193.03 1180.62,-193.03 1180.62,-174.53 1208.62,-174.53 1208.62,-193.03"/>
<text text-anchor="middle" x="1194.62" y="-180.48" font-family="Times,serif" font-size="9.00">&#45;18</text>
</g>
<!-- &#45;19 -->
<g id="node19" class="node">
<title>&#45;19</title>
<polygon fill="lightgray" stroke="black" points="167.62,-123.74 139.62,-123.74 139.62,-105.24 167.62,-105.24 167.62,-123.74"/>
<text text-anchor="middle" x="153.62" y="-111.19" font-family="Times,serif" font-size="9.00">&#45;19</text>
</g>
<!-- &#45;19&#45;&gt;Left -->
<g id="edge28" class="edge">
<title>&#45;19&#45;&gt;Left</title>
<path fill="none" stroke="green" stroke-width="1.07" d="M160.07,-105.18C164.29,-100.25 170.2,-94.25 176.62,-90.45 226.01,-61.22 245.71,-71.09 300.62,-54.45 317.85,-49.23 337.01,-43.19 352.58,-38.22"/>
<polygon fill="green" stroke="green" stroke-width="1.07" points="353.2,-41.7 361.65,-35.32 351.06,-35.03 353.2,-41.7"/>
</g>
<!-- &#45;19&#45;&gt;Right -->
<g id="edge37" class="edge">
<title>&#45;19&#45;&gt;Right</title>
<path fill="none" stroke="red" stroke-width="0.23" d="M161.37,-105.01C165.68,-100.49 171.24,-94.94 176.62,-90.45 195.8,-74.44 219.02,-58.46 237.07,-46.71"/>
<polygon fill="red" stroke="red" stroke-width="0.23" points="238.67,-49.84 245.18,-41.48 234.88,-43.95 238.67,-49.84"/>
</g>
<!-- &#45;20 -->
<g id="node20" class="node">
<title>&#45;20</title>
<polygon fill="lightgray" stroke="black" points="806.62,-123.74 778.62,-123.74 778.62,-105.24 806.62,-105.24 806.62,-123.74"/>
<text text-anchor="middle" x="792.62" y="-111.19" font-family="Times,serif" font-size="9.00">&#45;20</text>
</g>
<!-- &#45;20&#45;&gt;Up -->
<g id="edge16" class="edge">
<title>&#45;20&#45;&gt;Up</title>
<path fill="none" stroke="green" stroke-width="0.44" d="M785.71,-104.87C781.49,-100.07 775.74,-94.31 769.62,-90.45 722.95,-60.92 660.39,-43.05 624.1,-34.46"/>
<polygon fill="green" stroke="green" stroke-width="0.44" points="624.9,-31.05 614.37,-32.23 623.34,-37.87 624.9,-31.05"/>
</g>
<!-- &#45;20&#45;&gt;Down -->
<g id="edge17" class="edge">
<title>&#45;20&#45;&gt;Down</title>
<path fill="none" stroke="red" stroke-width="0.19" d="M799.19,-105C807.77,-93.92 823.21,-73.97 836.21,-57.18"/>
<polygon fill="red" stroke="red" stroke-width="0.19" points="838.82,-59.53 842.17,-49.48 833.28,-55.24 838.82,-59.53"/>
</g>
<!-- 2205&#45;&gt;Down -->
<g id="edge39" class="edge">
<title>2205&#45;&gt;Down</title>
<path fill="none" stroke="red" stroke-width="0.2" d="M1047.98,-99.18C1043.43,-96.06 1038.47,-92.94 1033.62,-90.45 987.77,-66.83 930.89,-48.43 894.67,-37.95"/>
<polygon fill="red" stroke="red" stroke-width="0.2" points="895.9,-34.66 885.32,-35.29 893.98,-41.4 895.9,-34.66"/>
</g>
</g>
</svg>
