<?xml version="1.0" encoding="UTF-8" standalone="no"?>
<!DOCTYPE svg PUBLIC "-//W3C//DTD SVG 1.1//EN"
 "http://www.w3.org/Graphics/SVG/1.1/DTD/svg11.dtd">
<!-- Generated by graphviz version 10.0.1 (20240210.2158)
 -->
<!-- Pages: 1 -->
<svg width="817pt" height="280pt"
 viewBox="0.00 0.00 816.50 279.81" xmlns="http://www.w3.org/2000/svg" xmlns:xlink="http://www.w3.org/1999/xlink">
<g id="graph0" class="graph" transform="scale(1 1) rotate(0) translate(4 275.81)">
<polygon fill="white" stroke="none" points="-4,4 -4,-275.81 812.5,-275.81 812.5,4 -4,4"/>
<!-- Wall_N -->
<g id="node1" class="node">
<title>Wall_N</title>
<polygon fill="lightgray" stroke="black" points="400,-271.81 356.25,-271.81 356.25,-253.31 400,-253.31 400,-271.81"/>
<text text-anchor="middle" x="378.12" y="-259.26" font-family="Times,serif" font-size="9.00">Wall_N</text>
</g>
<!-- Down -->
<g id="node15" class="node">
<title>Down</title>
<ellipse fill="lightblue" stroke="black" cx="326.12" cy="-106" rx="27.22" ry="27.22"/>
<text text-anchor="middle" x="326.12" y="-102.7" font-family="Times,serif" font-size="9.00">Down</text>
</g>
<!-- Wall_N&#45;&gt;Down -->
<g id="edge7" class="edge">
<title>Wall_N&#45;&gt;Down</title>
<path fill="none" stroke="red" stroke-width="0.2" d="M369.65,-252.87C361.99,-244.47 351.02,-231.05 345.12,-217.31 335.06,-193.88 330.32,-165.49 328.09,-143.38"/>
<polygon fill="red" stroke="red" stroke-width="0.2" points="331.61,-143.35 327.24,-133.7 324.63,-143.97 331.61,-143.35"/>
</g>
<!-- Right -->
<g id="node16" class="node">
<title>Right</title>
<ellipse fill="lightblue" stroke="black" cx="571.12" cy="-106" rx="25.1" ry="25.1"/>
<text text-anchor="middle" x="571.12" y="-102.7" font-family="Times,serif" font-size="9.00">Right</text>
</g>
<!-- Wall_N&#45;&gt;Right -->
<g id="edge3" class="edge">
<title>Wall_N&#45;&gt;Right</title>
<path fill="none" stroke="green" stroke-width="0.3" d="M400.23,-260.58C451.28,-257.81 574.95,-248 600.12,-217.31 619.17,-194.1 605.48,-159.68 591.15,-135.48"/>
<polygon fill="green" stroke="green" stroke-width="0.3" points="594.2,-133.76 585.94,-127.14 588.27,-137.47 594.2,-133.76"/>
</g>
<!-- 3295 -->
<g id="node18" class="node">
<title>3295</title>
<ellipse fill="white" stroke="black" cx="378.12" cy="-193.27" rx="24.04" ry="24.04"/>
<text text-anchor="middle" x="378.12" y="-189.97" font-family="Times,serif" font-size="9.00">3295</text>
</g>
<!-- Wall_N&#45;&gt;3295 -->
<g id="edge25" class="edge">
<title>Wall_N&#45;&gt;3295</title>
<path fill="none" stroke="green" stroke-width="0.21" d="M378.12,-253.04C378.12,-246.54 378.12,-237.15 378.12,-227.77"/>
<polygon fill="green" stroke="green" stroke-width="0.21" points="381.63,-228.06 378.13,-218.06 374.63,-228.06 381.63,-228.06"/>
</g>
<!-- Wall_S -->
<g id="node2" class="node">
<title>Wall_S</title>
<polygon fill="lightgray" stroke="black" points="238.25,-202.52 196,-202.52 196,-184.02 238.25,-184.02 238.25,-202.52"/>
<text text-anchor="middle" x="217.12" y="-189.97" font-family="Times,serif" font-size="9.00">Wall_S</text>
</g>
<!-- Up -->
<g id="node13" class="node">
<title>Up</title>
<ellipse fill="lightblue" stroke="black" cx="153.12" cy="-106" rx="19.27" ry="19.27"/>
<text text-anchor="middle" x="153.12" y="-102.7" font-family="Times,serif" font-size="9.00">Up</text>
</g>
<!-- Wall_S&#45;&gt;Up -->
<g id="edge6" class="edge">
<title>Wall_S&#45;&gt;Up</title>
<path fill="none" stroke="red" stroke-width="0.12" d="M210.75,-183.78C201.38,-171.29 183.53,-147.51 170.17,-129.71"/>
<polygon fill="red" stroke="red" stroke-width="0.12" points="173.3,-128.05 164.5,-122.16 167.7,-132.26 173.3,-128.05"/>
</g>
<!-- Wall_S&#45;&gt;Down -->
<g id="edge24" class="edge">
<title>Wall_S&#45;&gt;Down</title>
<path fill="none" stroke="red" stroke-width="0.51" d="M227.97,-183.78C243.83,-171.38 273.9,-147.86 296.6,-130.1"/>
<polygon fill="red" stroke="red" stroke-width="0.51" points="298.56,-133.01 304.28,-124.09 294.24,-127.5 298.56,-133.01"/>
</g>
<!-- Wall_S&#45;&gt;Right -->
<g id="edge23" class="edge">
<title>Wall_S&#45;&gt;Right</title>
<path fill="none" stroke="green" stroke-width="0.27" stroke-dasharray="1,5" d="M225.78,-183.6C231.38,-178.54 239.1,-172.52 247.12,-169.23 367.29,-119.94 417.01,-182.63 537.12,-133.23 539.69,-132.17 542.22,-130.87 544.68,-129.42"/>
<polygon fill="green" stroke="green" stroke-width="0.27" points="546.53,-132.4 552.85,-123.89 542.6,-126.6 546.53,-132.4"/>
</g>
<!-- Wall_E -->
<g id="node3" class="node">
<title>Wall_E</title>
<polygon fill="lightgray" stroke="black" points="42.25,-202.52 0,-202.52 0,-184.02 42.25,-184.02 42.25,-202.52"/>
<text text-anchor="middle" x="21.12" y="-189.97" font-family="Times,serif" font-size="9.00">Wall_E</text>
</g>
<!-- Wall_E&#45;&gt;Up -->
<g id="edge11" class="edge">
<title>Wall_E&#45;&gt;Up</title>
<path fill="none" stroke="red" stroke-width="0.36" stroke-dasharray="1,5" d="M31.75,-183.66C37.4,-179.21 44.52,-173.76 51.12,-169.23 76.49,-151.82 106.69,-133.7 127.62,-121.54"/>
<polygon fill="red" stroke="red" stroke-width="0.36" points="129.15,-124.7 136.05,-116.67 125.64,-118.64 129.15,-124.7"/>
</g>
<!-- Wall_W -->
<g id="node4" class="node">
<title>Wall_W</title>
<polygon fill="lightgray" stroke="black" points="749.75,-202.52 704.5,-202.52 704.5,-184.02 749.75,-184.02 749.75,-202.52"/>
<text text-anchor="middle" x="727.12" y="-189.97" font-family="Times,serif" font-size="9.00">Wall_W</text>
</g>
<!-- Wall_W&#45;&gt;Right -->
<g id="edge20" class="edge">
<title>Wall_W&#45;&gt;Right</title>
<path fill="none" stroke="green" stroke-width="0.47" d="M716.55,-183.68C710.71,-179.12 703.21,-173.58 696.12,-169.23 665.85,-150.64 629.27,-132.94 603.53,-121.21"/>
<polygon fill="green" stroke="green" stroke-width="0.47" points="605.1,-118.08 594.55,-117.16 602.23,-124.46 605.1,-118.08"/>
</g>
<!-- Tail_N -->
<g id="node5" class="node">
<title>Tail_N</title>
<polygon fill="lightgray" stroke="black" points="808.5,-202.52 767.75,-202.52 767.75,-184.02 808.5,-184.02 808.5,-202.52"/>
<text text-anchor="middle" x="788.12" y="-189.97" font-family="Times,serif" font-size="9.00">Tail_N</text>
</g>
<!-- Left -->
<g id="node14" class="node">
<title>Left</title>
<ellipse fill="lightblue" stroke="black" cx="504.12" cy="-21.39" rx="21.39" ry="21.39"/>
<text text-anchor="middle" x="504.12" y="-18.09" font-family="Times,serif" font-size="9.00">Left</text>
</g>
<!-- Tail_N&#45;&gt;Left -->
<g id="edge19" class="edge">
<title>Tail_N&#45;&gt;Left</title>
<path fill="none" stroke="red" stroke-width="0.11" d="M777.92,-183.59C772.48,-179.11 765.59,-173.66 759.12,-169.23 679.94,-114.91 579.56,-61.19 531.8,-36.48"/>
<polygon fill="red" stroke="red" stroke-width="0.11" points="533.62,-33.48 523.13,-32.01 530.41,-39.7 533.62,-33.48"/>
</g>
<!-- Tail_N&#45;&gt;Right -->
<g id="edge5" class="edge">
<title>Tail_N&#45;&gt;Right</title>
<path fill="none" stroke="green" stroke-width="0.34" d="M779.06,-183.68C773.62,-178.9 766.37,-173.14 759.12,-169.23 708.73,-141.99 644.3,-123.85 605.45,-114.5"/>
<polygon fill="green" stroke="green" stroke-width="0.34" points="606.71,-111.2 596.18,-112.33 605.11,-118.02 606.71,-111.2"/>
</g>
<!-- Tail_S -->
<g id="node6" class="node">
<title>Tail_S</title>
<polygon fill="lightgray" stroke="black" points="590.75,-202.52 551.5,-202.52 551.5,-184.02 590.75,-184.02 590.75,-202.52"/>
<text text-anchor="middle" x="571.12" y="-189.97" font-family="Times,serif" font-size="9.00">Tail_S</text>
</g>
<!-- Tail_S&#45;&gt;Right -->
<g id="edge27" class="edge">
<title>Tail_S&#45;&gt;Right</title>
<path fill="none" stroke="green" stroke-width="0.35" d="M571.12,-183.78C571.12,-173.92 571.12,-157.04 571.12,-141.61"/>
<polygon fill="green" stroke="green" stroke-width="0.35" points="574.63,-141.8 571.13,-131.8 567.63,-141.8 574.63,-141.8"/>
</g>
<!-- Tail_E -->
<g id="node7" class="node">
<title>Tail_E</title>
<polygon fill="lightgray" stroke="black" points="686.75,-202.52 647.5,-202.52 647.5,-184.02 686.75,-184.02 686.75,-202.52"/>
<text text-anchor="middle" x="667.12" y="-189.97" font-family="Times,serif" font-size="9.00">Tail_E</text>
</g>
<!-- Tail_E&#45;&gt;Right -->
<g id="edge1" class="edge">
<title>Tail_E&#45;&gt;Right</title>
<path fill="none" stroke="red" stroke-width="0.14" d="M657.57,-183.78C643.59,-171.36 617.04,-147.78 597.04,-130.02"/>
<polygon fill="red" stroke="red" stroke-width="0.14" points="599.42,-127.45 589.62,-123.43 594.77,-132.69 599.42,-127.45"/>
</g>
<!-- Tail_W -->
<g id="node8" class="node">
<title>Tail_W</title>
<polygon fill="lightgray" stroke="black" points="298.25,-202.52 256,-202.52 256,-184.02 298.25,-184.02 298.25,-202.52"/>
<text text-anchor="middle" x="277.12" y="-189.97" font-family="Times,serif" font-size="9.00">Tail_W</text>
</g>
<!-- Tail_W&#45;&gt;Up -->
<g id="edge13" class="edge">
<title>Tail_W&#45;&gt;Up</title>
<path fill="none" stroke="green" stroke-width="0.47" d="M266.15,-183.55C260.53,-179.15 253.54,-173.81 247.12,-169.23 224.23,-152.89 197.42,-135.28 178.3,-122.98"/>
<polygon fill="green" stroke="green" stroke-width="0.47" points="180.23,-120.07 169.93,-117.62 176.46,-125.96 180.23,-120.07"/>
</g>
<!-- Tail_W&#45;&gt;Right -->
<g id="edge10" class="edge">
<title>Tail_W&#45;&gt;Right</title>
<path fill="none" stroke="red" stroke-width="0.3" d="M298.63,-184.11C311.89,-179.3 329.33,-173.36 345.12,-169.23 429.12,-147.24 457.89,-168.72 537.12,-133.23 539.51,-132.16 541.87,-130.9 544.18,-129.51"/>
<polygon fill="red" stroke="red" stroke-width="0.3" points="546.06,-132.46 552.35,-123.94 542.12,-126.68 546.06,-132.46"/>
</g>
<!-- Apple_N -->
<g id="node9" class="node">
<title>Apple_N</title>
<polygon fill="lightgray" stroke="black" points="177.62,-202.52 128.62,-202.52 128.62,-184.02 177.62,-184.02 177.62,-202.52"/>
<text text-anchor="middle" x="153.12" y="-189.97" font-family="Times,serif" font-size="9.00">Apple_N</text>
</g>
<!-- Apple_N&#45;&gt;Up -->
<g id="edge2" class="edge">
<title>Apple_N&#45;&gt;Up</title>
<path fill="none" stroke="green" stroke-width="0.76" d="M153.12,-183.78C153.12,-172.83 153.12,-153.2 153.12,-136.53"/>
<polygon fill="green" stroke="green" stroke-width="0.76" points="156.63,-136.76 153.13,-126.76 149.63,-136.76 156.63,-136.76"/>
</g>
<!-- Apple_N&#45;&gt;Down -->
<g id="edge17" class="edge">
<title>Apple_N&#45;&gt;Down</title>
<path fill="none" stroke="green" stroke-width="0.16" d="M164.76,-183.64C171.18,-179.07 179.4,-173.53 187.12,-169.23 221.47,-150.1 262.81,-132.2 291.43,-120.55"/>
<polygon fill="green" stroke="green" stroke-width="0.16" points="292.43,-123.92 300.4,-116.94 289.82,-117.43 292.43,-123.92"/>
</g>
<!-- Apple_N&#45;&gt;Right -->
<g id="edge15" class="edge">
<title>Apple_N&#45;&gt;Right</title>
<path fill="none" stroke="red" stroke-width="0.2" d="M163.1,-183.55C169.52,-178.47 178.28,-172.45 187.12,-169.23 334.07,-115.75 391.89,-191.19 537.12,-133.23 539.7,-132.2 542.24,-130.92 544.71,-129.48"/>
<polygon fill="red" stroke="red" stroke-width="0.2" points="546.64,-132.4 552.98,-123.91 542.73,-126.59 546.64,-132.4"/>
</g>
<!-- Apple_S -->
<g id="node10" class="node">
<title>Apple_S</title>
<polygon fill="lightgray" stroke="black" points="467.88,-202.52 420.38,-202.52 420.38,-184.02 467.88,-184.02 467.88,-202.52"/>
<text text-anchor="middle" x="444.12" y="-189.97" font-family="Times,serif" font-size="9.00">Apple_S</text>
</g>
<!-- Apple_S&#45;&gt;Left -->
<g id="edge8" class="edge">
<title>Apple_S&#45;&gt;Left</title>
<path fill="none" stroke="red" stroke-width="0.58" d="M445.27,-183.75C448.05,-164.5 456.04,-116.37 471.12,-78.78 475.26,-68.47 481.07,-57.79 486.65,-48.53"/>
<polygon fill="red" stroke="red" stroke-width="0.58" points="489.52,-50.56 491.86,-40.23 483.58,-46.84 489.52,-50.56"/>
</g>
<!-- Apple_S&#45;&gt;Down -->
<g id="edge4" class="edge">
<title>Apple_S&#45;&gt;Down</title>
<path fill="none" stroke="green" stroke-width="0.91" d="M432.38,-183.78C414.91,-171.16 381.48,-147 356.77,-129.14"/>
<polygon fill="green" stroke="green" stroke-width="0.91" points="359.04,-126.47 348.89,-123.45 354.94,-132.15 359.04,-126.47"/>
</g>
<!-- Apple_S&#45;&gt;Right -->
<g id="edge12" class="edge">
<title>Apple_S&#45;&gt;Right</title>
<path fill="none" stroke="green" stroke-width="0.22" d="M456.21,-183.53C462.4,-179.13 470.09,-173.79 477.12,-169.23 503.22,-152.32 511.44,-150.75 537.12,-133.23 539.43,-131.65 541.8,-129.98 544.15,-128.26"/>
<polygon fill="green" stroke="green" stroke-width="0.22" points="545.82,-131.38 551.73,-122.58 541.62,-125.78 545.82,-131.38"/>
</g>
<!-- Apple_E -->
<g id="node11" class="node">
<title>Apple_E</title>
<polygon fill="lightgray" stroke="black" points="533.88,-202.52 486.38,-202.52 486.38,-184.02 533.88,-184.02 533.88,-202.52"/>
<text text-anchor="middle" x="510.12" y="-189.97" font-family="Times,serif" font-size="9.00">Apple_E</text>
</g>
<!-- Apple_E&#45;&gt;Down -->
<g id="edge9" class="edge">
<title>Apple_E&#45;&gt;Down</title>
<path fill="none" stroke="red" stroke-width="0.52" d="M498.92,-183.52C492.71,-178.92 484.73,-173.38 477.12,-169.23 439.35,-148.58 393.26,-130.54 362.02,-119.27"/>
<polygon fill="red" stroke="red" stroke-width="0.52" points="363.36,-116.03 352.77,-115.98 361.02,-122.63 363.36,-116.03"/>
</g>
<!-- Apple_E&#45;&gt;Right -->
<g id="edge16" class="edge">
<title>Apple_E&#45;&gt;Right</title>
<path fill="none" stroke="green" stroke-width="0.87" d="M516.2,-183.78C524.13,-172.69 538.43,-152.71 550.44,-135.91"/>
<polygon fill="green" stroke="green" stroke-width="0.87" points="553.1,-138.22 556.07,-128.05 547.4,-134.14 553.1,-138.22"/>
</g>
<!-- 2115 -->
<g id="node17" class="node">
<title>2115</title>
<ellipse fill="white" stroke="black" cx="504.12" cy="-106" rx="24.04" ry="24.04"/>
<text text-anchor="middle" x="504.12" y="-102.7" font-family="Times,serif" font-size="9.00">2115</text>
</g>
<!-- Apple_E&#45;&gt;2115 -->
<g id="edge21" class="edge">
<title>Apple_E&#45;&gt;2115</title>
<path fill="none" stroke="green" stroke-width="0.35" d="M509.53,-183.78C508.82,-173.72 507.6,-156.33 506.49,-140.65"/>
<polygon fill="green" stroke="green" stroke-width="0.35" points="509.99,-140.44 505.79,-130.71 503,-140.93 509.99,-140.44"/>
</g>
<!-- Apple_W -->
<g id="node12" class="node">
<title>Apple_W</title>
<polygon fill="lightgray" stroke="black" points="110.38,-202.52 59.88,-202.52 59.88,-184.02 110.38,-184.02 110.38,-202.52"/>
<text text-anchor="middle" x="85.12" y="-189.97" font-family="Times,serif" font-size="9.00">Apple_W</text>
</g>
<!-- Apple_W&#45;&gt;Up -->
<g id="edge14" class="edge">
<title>Apple_W&#45;&gt;Up</title>
<path fill="none" stroke="green" stroke-width="0.4" d="M91.89,-183.78C101.82,-171.33 120.7,-147.66 134.88,-129.88"/>
<polygon fill="green" stroke="green" stroke-width="0.4" points="137.53,-132.17 141.03,-122.17 132.06,-127.8 137.53,-132.17"/>
</g>
<!-- Apple_W&#45;&gt;Down -->
<g id="edge18" class="edge">
<title>Apple_W&#45;&gt;Down</title>
<path fill="none" stroke="green" stroke-width="0.23" d="M95.94,-183.69C102.38,-178.91 110.88,-173.15 119.12,-169.23 175.95,-142.21 247.14,-123.89 289.5,-114.47"/>
<polygon fill="green" stroke="green" stroke-width="0.23" points="290,-117.94 299.02,-112.39 288.51,-111.1 290,-117.94"/>
</g>
<!-- 2115&#45;&gt;Left -->
<g id="edge22" class="edge">
<title>2115&#45;&gt;Left</title>
<path fill="none" stroke="green" stroke-width="0.29" d="M504.12,-81.55C504.12,-72.75 504.12,-62.6 504.12,-53.23"/>
<polygon fill="green" stroke="green" stroke-width="0.29" points="507.63,-53.52 504.13,-43.52 500.63,-53.52 507.63,-53.52"/>
</g>
<!-- 3295&#45;&gt;Down -->
<g id="edge26" class="edge">
<title>3295&#45;&gt;Down</title>
<path fill="none" stroke="red" stroke-width="0.21" d="M365.8,-172.06C359.69,-162.04 352.16,-149.7 345.32,-138.47"/>
<polygon fill="red" stroke="red" stroke-width="0.21" points="348.37,-136.76 340.18,-130.04 342.39,-140.4 348.37,-136.76"/>
</g>
</g>
</svg>
