<?xml version="1.0" encoding="UTF-8" standalone="no"?>
<!DOCTYPE svg PUBLIC "-//W3C//DTD SVG 1.1//EN"
 "http://www.w3.org/Graphics/SVG/1.1/DTD/svg11.dtd">
<!-- Generated by graphviz version 10.0.1 (20240210.2158)
 -->
<!-- Pages: 1 -->
<svg width="1822pt" height="207pt"
 viewBox="0.00 0.00 1822.38 207.39" xmlns="http://www.w3.org/2000/svg" xmlns:xlink="http://www.w3.org/1999/xlink">
<g id="graph0" class="graph" transform="scale(1 1) rotate(0) translate(4 203.39)">
<polygon fill="white" stroke="none" points="-4,4 -4,-203.39 1818.38,-203.39 1818.38,4 -4,4"/>
<!-- Wall_N -->
<g id="node1" class="node">
<title>Wall_N</title>
<polygon fill="lightgray" stroke="black" points="581.62,-126.92 537.88,-126.92 537.88,-108.42 581.62,-108.42 581.62,-126.92"/>
<text text-anchor="middle" x="559.75" y="-114.37" font-family="Times,serif" font-size="9.00">Wall_N</text>
</g>
<!-- Up -->
<g id="node29" class="node">
<title>Up</title>
<ellipse fill="lightblue" stroke="black" cx="1004.75" cy="-27.22" rx="19.27" ry="19.27"/>
<text text-anchor="middle" x="1004.75" y="-23.92" font-family="Times,serif" font-size="9.00">Up</text>
</g>
<!-- Wall_N&#45;&gt;Up -->
<g id="edge26" class="edge">
<title>Wall_N&#45;&gt;Up</title>
<path fill="none" stroke="red" stroke-width="0.82" stroke-dasharray="1,5" d="M567.29,-108.16C573.09,-102.2 581.63,-94.58 590.75,-90.45 659.75,-59.16 890.92,-37.57 974.37,-30.63"/>
<polygon fill="red" stroke="red" stroke-width="0.82" points="974.44,-34.13 984.12,-29.83 973.87,-27.16 974.44,-34.13"/>
</g>
<!-- Right -->
<g id="node32" class="node">
<title>Right</title>
<ellipse fill="lightblue" stroke="black" cx="395.75" cy="-27.22" rx="25.1" ry="25.1"/>
<text text-anchor="middle" x="395.75" y="-23.92" font-family="Times,serif" font-size="9.00">Right</text>
</g>
<!-- Wall_N&#45;&gt;Right -->
<g id="edge20" class="edge">
<title>Wall_N&#45;&gt;Right</title>
<path fill="none" stroke="green" stroke-width="0.36" d="M550.76,-107.95C544.82,-102.49 536.7,-95.54 528.75,-90.45 496.63,-69.87 456.63,-52.09 428.92,-40.87"/>
<polygon fill="green" stroke="green" stroke-width="0.36" points="430.4,-37.69 419.82,-37.24 427.81,-44.19 430.4,-37.69"/>
</g>
<!-- Wall_S -->
<g id="node2" class="node">
<title>Wall_S</title>
<polygon fill="lightgray" stroke="black" points="713.88,-126.92 671.62,-126.92 671.62,-108.42 713.88,-108.42 713.88,-126.92"/>
<text text-anchor="middle" x="692.75" y="-114.37" font-family="Times,serif" font-size="9.00">Wall_S</text>
</g>
<!-- Down -->
<g id="node31" class="node">
<title>Down</title>
<ellipse fill="lightblue" stroke="black" cx="659.75" cy="-27.22" rx="27.22" ry="27.22"/>
<text text-anchor="middle" x="659.75" y="-23.92" font-family="Times,serif" font-size="9.00">Down</text>
</g>
<!-- Wall_S&#45;&gt;Down -->
<g id="edge27" class="edge">
<title>Wall_S&#45;&gt;Down</title>
<path fill="none" stroke="red" stroke-width="0.12" stroke-dasharray="1,5" d="M689.59,-108.19C685.68,-97.71 678.78,-79.23 672.6,-62.67"/>
<polygon fill="red" stroke="red" stroke-width="0.12" points="675.91,-61.54 669.14,-53.39 669.36,-63.98 675.91,-61.54"/>
</g>
<!-- Wall_E -->
<g id="node3" class="node">
<title>Wall_E</title>
<polygon fill="lightgray" stroke="black" points="310.88,-126.92 268.62,-126.92 268.62,-108.42 310.88,-108.42 310.88,-126.92"/>
<text text-anchor="middle" x="289.75" y="-114.37" font-family="Times,serif" font-size="9.00">Wall_E</text>
</g>
<!-- Wall_E&#45;&gt;Right -->
<g id="edge40" class="edge">
<title>Wall_E&#45;&gt;Right</title>
<path fill="none" stroke="red" stroke-width="0.25" d="M299.41,-108.09C305.26,-102.93 312.88,-96.26 319.75,-90.45 335.9,-76.79 354.24,-61.76 368.86,-49.89"/>
<polygon fill="red" stroke="red" stroke-width="0.25" points="370.7,-52.9 376.27,-43.89 366.29,-47.46 370.7,-52.9"/>
</g>
<!-- Wall_W -->
<g id="node4" class="node">
<title>Wall_W</title>
<polygon fill="lightgray" stroke="black" points="1140.38,-126.92 1095.12,-126.92 1095.12,-108.42 1140.38,-108.42 1140.38,-126.92"/>
<text text-anchor="middle" x="1117.75" y="-114.37" font-family="Times,serif" font-size="9.00">Wall_W</text>
</g>
<!-- Wall_W&#45;&gt;Up -->
<g id="edge39" class="edge">
<title>Wall_W&#45;&gt;Up</title>
<path fill="none" stroke="green" stroke-width="0.11" d="M1107.44,-108.08C1101.2,-102.92 1093.06,-96.25 1085.75,-90.45 1066.35,-75.05 1044.01,-57.94 1027.71,-45.56"/>
<polygon fill="green" stroke="green" stroke-width="0.11" points="1030,-42.9 1019.92,-39.65 1025.77,-48.48 1030,-42.9"/>
</g>
<!-- Tail_N -->
<g id="node5" class="node">
<title>Tail_N</title>
<polygon fill="lightgray" stroke="black" points="1500.12,-126.92 1459.38,-126.92 1459.38,-108.42 1500.12,-108.42 1500.12,-126.92"/>
<text text-anchor="middle" x="1479.75" y="-114.37" font-family="Times,serif" font-size="9.00">Tail_N</text>
</g>
<!-- Tail_N&#45;&gt;Up -->
<g id="edge8" class="edge">
<title>Tail_N&#45;&gt;Up</title>
<path fill="none" stroke="red" stroke-width="0.45" stroke-dasharray="1,5" d="M1472.52,-108.13C1466.94,-102.15 1458.68,-94.53 1449.75,-90.45 1375.07,-56.32 1122.28,-36.24 1034.82,-30.19"/>
<polygon fill="red" stroke="red" stroke-width="0.45" points="1035.2,-26.7 1024.99,-29.52 1034.72,-33.69 1035.2,-26.7"/>
</g>
<!-- Left -->
<g id="node30" class="node">
<title>Left</title>
<ellipse fill="lightblue" stroke="black" cx="1479.75" cy="-27.22" rx="21.39" ry="21.39"/>
<text text-anchor="middle" x="1479.75" y="-23.92" font-family="Times,serif" font-size="9.00">Left</text>
</g>
<!-- Tail_N&#45;&gt;Left -->
<g id="edge28" class="edge">
<title>Tail_N&#45;&gt;Left</title>
<path fill="none" stroke="green" stroke-width="0.34" d="M1479.75,-108.19C1479.75,-96.95 1479.75,-76.5 1479.75,-59.09"/>
<polygon fill="green" stroke="green" stroke-width="0.34" points="1483.25,-59.27 1479.75,-49.27 1476.25,-59.27 1483.25,-59.27"/>
</g>
<!-- Tail_S -->
<g id="node6" class="node">
<title>Tail_S</title>
<polygon fill="lightgray" stroke="black" points="449.38,-126.92 410.12,-126.92 410.12,-108.42 449.38,-108.42 449.38,-126.92"/>
<text text-anchor="middle" x="429.75" y="-114.37" font-family="Times,serif" font-size="9.00">Tail_S</text>
</g>
<!-- Tail_S&#45;&gt;Down -->
<g id="edge35" class="edge">
<title>Tail_S&#45;&gt;Down</title>
<path fill="none" stroke="green" stroke-width="0.65" d="M437.13,-108.29C442.59,-102.55 450.49,-95.15 458.75,-90.45 511.49,-60.41 580.44,-43.15 622.34,-34.74"/>
<polygon fill="green" stroke="green" stroke-width="0.65" points="622.79,-38.22 631.94,-32.88 621.45,-31.34 622.79,-38.22"/>
</g>
<!-- Tail_S&#45;&gt;Right -->
<g id="edge10" class="edge">
<title>Tail_S&#45;&gt;Right</title>
<path fill="none" stroke="red" stroke-width="0.34" d="M426.49,-108.19C422.29,-97.27 414.76,-77.68 408.2,-60.62"/>
<polygon fill="red" stroke="red" stroke-width="0.34" points="411.53,-59.51 404.67,-51.43 404.99,-62.02 411.53,-59.51"/>
</g>
<!-- Tail_E -->
<g id="node7" class="node">
<title>Tail_E</title>
<polygon fill="lightgray" stroke="black" points="1814.38,-126.92 1775.12,-126.92 1775.12,-108.42 1814.38,-108.42 1814.38,-126.92"/>
<text text-anchor="middle" x="1794.75" y="-114.37" font-family="Times,serif" font-size="9.00">Tail_E</text>
</g>
<!-- Tail_E&#45;&gt;Left -->
<g id="edge11" class="edge">
<title>Tail_E&#45;&gt;Left</title>
<path fill="none" stroke="green" stroke-width="0.24" d="M1787.8,-108.07C1782.61,-102.22 1775.01,-94.78 1766.75,-90.45 1681.67,-45.82 1566.34,-33.18 1511.39,-29.61"/>
<polygon fill="green" stroke="green" stroke-width="0.24" points="1511.78,-26.13 1501.59,-29.04 1511.37,-33.12 1511.78,-26.13"/>
</g>
<!-- Tail_W -->
<g id="node8" class="node">
<title>Tail_W</title>
<polygon fill="lightgray" stroke="black" points="773.88,-126.92 731.62,-126.92 731.62,-108.42 773.88,-108.42 773.88,-126.92"/>
<text text-anchor="middle" x="752.75" y="-114.37" font-family="Times,serif" font-size="9.00">Tail_W</text>
</g>
<!-- Tail_W&#45;&gt;Up -->
<g id="edge21" class="edge">
<title>Tail_W&#45;&gt;Up</title>
<path fill="none" stroke="red" stroke-width="0.61" d="M760.4,-108.24C766.06,-102.47 774.23,-95.05 782.75,-90.45 846.39,-56.03 930.85,-39.19 974.99,-32.27"/>
<polygon fill="red" stroke="red" stroke-width="0.61" points="975.27,-35.77 984.64,-30.82 974.23,-28.84 975.27,-35.77"/>
</g>
<!-- Tail_W&#45;&gt;Down -->
<g id="edge32" class="edge">
<title>Tail_W&#45;&gt;Down</title>
<path fill="none" stroke="red" stroke-width="0.11" d="M743.83,-108.19C730.75,-95.75 705.81,-72.03 686.47,-53.64"/>
<polygon fill="red" stroke="red" stroke-width="0.11" points="688.89,-51.11 679.23,-46.75 684.07,-56.18 688.89,-51.11"/>
</g>
<!-- Apple_N -->
<g id="node9" class="node">
<title>Apple_N</title>
<polygon fill="lightgray" stroke="black" points="1738.25,-199.39 1689.25,-199.39 1689.25,-180.89 1738.25,-180.89 1738.25,-199.39"/>
<text text-anchor="middle" x="1713.75" y="-186.84" font-family="Times,serif" font-size="9.00">Apple_N</text>
</g>
<!-- Apple_S -->
<g id="node10" class="node">
<title>Apple_S</title>
<polygon fill="lightgray" stroke="black" points="47.5,-126.92 0,-126.92 0,-108.42 47.5,-108.42 47.5,-126.92"/>
<text text-anchor="middle" x="23.75" y="-114.37" font-family="Times,serif" font-size="9.00">Apple_S</text>
</g>
<!-- Apple_S&#45;&gt;Right -->
<g id="edge4" class="edge">
<title>Apple_S&#45;&gt;Right</title>
<path fill="none" stroke="red" stroke-width="0.14" stroke-dasharray="1,5" d="M32.19,-108.01C38.43,-102.13 47.42,-94.69 56.75,-90.45 160.22,-43.43 296.75,-31.93 360.34,-29.12"/>
<polygon fill="red" stroke="red" stroke-width="0.14" points="360.2,-32.63 370.05,-28.74 359.92,-25.64 360.2,-32.63"/>
</g>
<!-- Apple_E -->
<g id="node11" class="node">
<title>Apple_E</title>
<polygon fill="lightgray" stroke="black" points="113.5,-126.92 66,-126.92 66,-108.42 113.5,-108.42 113.5,-126.92"/>
<text text-anchor="middle" x="89.75" y="-114.37" font-family="Times,serif" font-size="9.00">Apple_E</text>
</g>
<!-- Apple_E&#45;&gt;Right -->
<g id="edge13" class="edge">
<title>Apple_E&#45;&gt;Right</title>
<path fill="none" stroke="red" stroke-width="0.62" d="M98.25,-108.13C104.51,-102.31 113.52,-94.88 122.75,-90.45 202.11,-52.33 305.83,-37 359.71,-31.3"/>
<polygon fill="red" stroke="red" stroke-width="0.62" points="359.9,-34.8 369.5,-30.31 359.2,-27.83 359.9,-34.8"/>
</g>
<!-- Apple_W -->
<g id="node12" class="node">
<title>Apple_W</title>
<polygon fill="lightgray" stroke="black" points="182,-126.92 131.5,-126.92 131.5,-108.42 182,-108.42 182,-126.92"/>
<text text-anchor="middle" x="156.75" y="-114.37" font-family="Times,serif" font-size="9.00">Apple_W</text>
</g>
<!-- Apple_W&#45;&gt;Right -->
<g id="edge9" class="edge">
<title>Apple_W&#45;&gt;Right</title>
<path fill="none" stroke="green" stroke-width="0.26" d="M166.25,-108.11C172.97,-102.44 182.41,-95.19 191.75,-90.45 247.76,-62.03 319.11,-43.95 360.88,-34.99"/>
<polygon fill="green" stroke="green" stroke-width="0.26" points="361.38,-38.46 370.45,-32.99 359.95,-31.61 361.38,-38.46"/>
</g>
<!-- Wall_NE -->
<g id="node13" class="node">
<title>Wall_NE</title>
<polygon fill="lightgray" stroke="black" points="1207.25,-126.92 1158.25,-126.92 1158.25,-108.42 1207.25,-108.42 1207.25,-126.92"/>
<text text-anchor="middle" x="1182.75" y="-114.37" font-family="Times,serif" font-size="9.00">Wall_NE</text>
</g>
<!-- Wall_NE&#45;&gt;Up -->
<g id="edge36" class="edge">
<title>Wall_NE&#45;&gt;Up</title>
<path fill="none" stroke="green" stroke-width="0.45" d="M1173.43,-108.15C1167.07,-102.63 1158.29,-95.55 1149.75,-90.45 1111.25,-67.45 1062.7,-48.42 1032.69,-37.69"/>
<polygon fill="green" stroke="green" stroke-width="0.45" points="1034.14,-34.49 1023.54,-34.47 1031.82,-41.09 1034.14,-34.49"/>
</g>
<!-- Wall_SE -->
<g id="node14" class="node">
<title>Wall_SE</title>
<polygon fill="lightgray" stroke="black" points="839.5,-126.92 792,-126.92 792,-108.42 839.5,-108.42 839.5,-126.92"/>
<text text-anchor="middle" x="815.75" y="-114.37" font-family="Times,serif" font-size="9.00">Wall_SE</text>
</g>
<!-- Wall_SE&#45;&gt;Up -->
<g id="edge30" class="edge">
<title>Wall_SE&#45;&gt;Up</title>
<path fill="none" stroke="green" stroke-width="0.43" stroke-dasharray="1,5" d="M825.03,-108.08C831.37,-102.53 840.14,-95.44 848.75,-90.45 890.68,-66.14 943.92,-47.16 976.11,-36.85"/>
<polygon fill="green" stroke="green" stroke-width="0.43" points="977.06,-40.22 985.55,-33.88 974.96,-33.54 977.06,-40.22"/>
</g>
<!-- Wall_SE&#45;&gt;Left -->
<g id="edge2" class="edge">
<title>Wall_SE&#45;&gt;Left</title>
<path fill="none" stroke="green" stroke-width="0.19" stroke-dasharray="1,5" d="M823.82,-108.02C830.02,-101.99 839.12,-94.35 848.75,-90.45 959.45,-45.6 1335.87,-32.08 1447.99,-28.99"/>
<polygon fill="green" stroke="green" stroke-width="0.19" points="1447.81,-32.5 1457.71,-28.73 1447.62,-25.5 1447.81,-32.5"/>
</g>
<!-- Wall_SE&#45;&gt;Down -->
<g id="edge25" class="edge">
<title>Wall_SE&#45;&gt;Down</title>
<path fill="none" stroke="red" stroke-width="0.16" d="M806.03,-108.09C799.66,-102.67 791.01,-95.74 782.75,-90.45 753.99,-72.01 719.05,-54.79 693.77,-43.16"/>
<polygon fill="red" stroke="red" stroke-width="0.16" points="695.37,-40.04 684.81,-39.08 692.47,-46.41 695.37,-40.04"/>
</g>
<!-- Wall_SE&#45;&gt;Right -->
<g id="edge43" class="edge">
<title>Wall_SE&#45;&gt;Right</title>
<path fill="none" stroke="red" stroke-width="0.21" d="M807.34,-107.94C801.11,-102.04 792.12,-94.58 782.75,-90.45 719.75,-62.66 514.5,-39.92 431.28,-31.61"/>
<polygon fill="red" stroke="red" stroke-width="0.21" points="431.67,-28.13 421.38,-30.63 430.99,-35.1 431.67,-28.13"/>
</g>
<!-- Wall_SW -->
<g id="node15" class="node">
<title>Wall_SW</title>
<polygon fill="lightgray" stroke="black" points="251,-126.92 200.5,-126.92 200.5,-108.42 251,-108.42 251,-126.92"/>
<text text-anchor="middle" x="225.75" y="-114.37" font-family="Times,serif" font-size="9.00">Wall_SW</text>
</g>
<!-- Wall_SW&#45;&gt;Right -->
<g id="edge12" class="edge">
<title>Wall_SW&#45;&gt;Right</title>
<path fill="none" stroke="green" stroke-width="2.74" d="M235.73,-108C242.28,-102.55 251.2,-95.61 259.75,-90.45 292.04,-70.96 331.46,-53.56 359.53,-42.15"/>
<polygon fill="green" stroke="green" stroke-width="2.74" points="360.48,-45.54 368.47,-38.58 357.89,-39.03 360.48,-45.54"/>
</g>
<!-- Wall_NW -->
<g id="node16" class="node">
<title>Wall_NW</title>
<polygon fill="lightgray" stroke="black" points="1569.75,-126.92 1517.75,-126.92 1517.75,-108.42 1569.75,-108.42 1569.75,-126.92"/>
<text text-anchor="middle" x="1543.75" y="-114.37" font-family="Times,serif" font-size="9.00">Wall_NW</text>
</g>
<!-- Wall_NW&#45;&gt;Left -->
<g id="edge24" class="edge">
<title>Wall_NW&#45;&gt;Left</title>
<path fill="none" stroke="green" stroke-width="2.52" d="M1537.61,-108.19C1529.04,-96.34 1513.07,-74.28 1500.08,-56.32"/>
<polygon fill="green" stroke="green" stroke-width="2.52" points="1503.01,-54.4 1494.32,-48.35 1497.34,-58.51 1503.01,-54.4"/>
</g>
<!-- Apple_NE -->
<g id="node17" class="node">
<title>Apple_NE</title>
<polygon fill="lightgray" stroke="black" points="653.88,-126.92 599.62,-126.92 599.62,-108.42 653.88,-108.42 653.88,-126.92"/>
<text text-anchor="middle" x="626.75" y="-114.37" font-family="Times,serif" font-size="9.00">Apple_NE</text>
</g>
<!-- Apple_NE&#45;&gt;Up -->
<g id="edge17" class="edge">
<title>Apple_NE&#45;&gt;Up</title>
<path fill="none" stroke="green" stroke-width="0.97" d="M636.1,-108.02C642.97,-102.15 652.8,-94.71 662.75,-90.45 770.92,-44.1 912.73,-32.26 974.18,-29.24"/>
<polygon fill="green" stroke="green" stroke-width="0.97" points="974.06,-32.75 983.89,-28.82 973.75,-25.76 974.06,-32.75"/>
</g>
<!-- Apple_NE&#45;&gt;Down -->
<g id="edge6" class="edge">
<title>Apple_NE&#45;&gt;Down</title>
<path fill="none" stroke="red" stroke-width="0.65" stroke-dasharray="1,5" d="M629.91,-108.19C633.79,-97.81 640.59,-79.57 646.73,-63.13"/>
<polygon fill="red" stroke="red" stroke-width="0.65" points="649.86,-64.74 650.08,-54.14 643.3,-62.29 649.86,-64.74"/>
</g>
<!-- Apple_NE&#45;&gt;Right -->
<g id="edge1" class="edge">
<title>Apple_NE&#45;&gt;Right</title>
<path fill="none" stroke="red" stroke-width="0.52" d="M616.62,-107.92C609.7,-102.31 600.13,-95.2 590.75,-90.45 537.76,-63.58 470.83,-45.27 430.75,-35.8"/>
<polygon fill="red" stroke="red" stroke-width="0.52" points="431.73,-32.43 421.2,-33.59 430.15,-39.25 431.73,-32.43"/>
</g>
<!-- Apple_SE -->
<g id="node18" class="node">
<title>Apple_SE</title>
<polygon fill="lightgray" stroke="black" points="520.12,-126.92 467.38,-126.92 467.38,-108.42 520.12,-108.42 520.12,-126.92"/>
<text text-anchor="middle" x="493.75" y="-114.37" font-family="Times,serif" font-size="9.00">Apple_SE</text>
</g>
<!-- Apple_SE&#45;&gt;Down -->
<g id="edge19" class="edge">
<title>Apple_SE&#45;&gt;Down</title>
<path fill="none" stroke="green" stroke-width="1.76" d="M504.09,-108.06C510.86,-102.64 520.04,-95.71 528.75,-90.45 559.4,-71.94 596.43,-54.79 623.29,-43.2"/>
<polygon fill="green" stroke="green" stroke-width="1.76" points="624.56,-46.47 632.39,-39.33 621.82,-40.02 624.56,-46.47"/>
</g>
<!-- Apple_SW -->
<g id="node19" class="node">
<title>Apple_SW</title>
<polygon fill="lightgray" stroke="black" points="1356.62,-126.92 1300.88,-126.92 1300.88,-108.42 1356.62,-108.42 1356.62,-126.92"/>
<text text-anchor="middle" x="1328.75" y="-114.37" font-family="Times,serif" font-size="9.00">Apple_SW</text>
</g>
<!-- Apple_SW&#45;&gt;Left -->
<g id="edge16" class="edge">
<title>Apple_SW&#45;&gt;Left</title>
<path fill="none" stroke="red" stroke-width="0.62" d="M1340.18,-108.05C1347.37,-102.75 1356.93,-95.95 1365.75,-90.45 1394.07,-72.76 1427.78,-54.72 1451.16,-42.65"/>
<polygon fill="red" stroke="red" stroke-width="0.62" points="1452.67,-45.8 1459.97,-38.13 1449.48,-39.57 1452.67,-45.8"/>
</g>
<!-- Apple_SW&#45;&gt;Down -->
<g id="edge5" class="edge">
<title>Apple_SW&#45;&gt;Down</title>
<path fill="none" stroke="green" stroke-width="1.92" d="M1319.5,-108.03C1312.46,-102 1302.22,-94.36 1291.75,-90.45 1263.91,-80.05 834.72,-43.03 699.93,-31.61"/>
<polygon fill="green" stroke="green" stroke-width="1.92" points="700.27,-28.12 690.01,-30.77 699.68,-35.1 700.27,-28.12"/>
</g>
<!-- Apple_NW -->
<g id="node20" class="node">
<title>Apple_NW</title>
<polygon fill="lightgray" stroke="black" points="1282.38,-126.92 1225.12,-126.92 1225.12,-108.42 1282.38,-108.42 1282.38,-126.92"/>
<text text-anchor="middle" x="1253.75" y="-114.37" font-family="Times,serif" font-size="9.00">Apple_NW</text>
</g>
<!-- Apple_NW&#45;&gt;Up -->
<g id="edge37" class="edge">
<title>Apple_NW&#45;&gt;Up</title>
<path fill="none" stroke="green" stroke-width="1.51" d="M1243.65,-108.11C1236.52,-102.43 1226.53,-95.18 1216.75,-90.45 1155.9,-60.98 1078.34,-42.59 1035.93,-34"/>
<polygon fill="green" stroke="green" stroke-width="1.51" points="1036.68,-30.58 1026.19,-32.08 1035.33,-37.44 1036.68,-30.58"/>
</g>
<!-- Apple_NW&#45;&gt;Left -->
<g id="edge7" class="edge">
<title>Apple_NW&#45;&gt;Left</title>
<path fill="none" stroke="green" stroke-width="0.21" d="M1264.54,-107.99C1271.88,-102.4 1281.99,-95.3 1291.75,-90.45 1344.36,-64.26 1410.53,-45.3 1448.7,-35.6"/>
<polygon fill="green" stroke="green" stroke-width="0.21" points="1449.51,-39 1458.37,-33.18 1447.82,-32.21 1449.51,-39"/>
</g>
<!-- Apple_NW&#45;&gt;Right -->
<g id="edge44" class="edge">
<title>Apple_NW&#45;&gt;Right</title>
<path fill="none" stroke="red" stroke-width="0.47" d="M1244.84,-108.17C1237.81,-102.04 1227.44,-94.21 1216.75,-90.45 1092.23,-46.59 755.26,-65.99 623.75,-54.45 555.36,-48.44 475.75,-38.64 431,-32.88"/>
<polygon fill="red" stroke="red" stroke-width="0.47" points="431.74,-29.44 421.37,-31.63 430.84,-36.38 431.74,-29.44"/>
</g>
<!-- Obstacle_N -->
<g id="node21" class="node">
<title>Obstacle_N</title>
<polygon fill="lightgray" stroke="black" points="1670.75,-199.39 1612.75,-199.39 1612.75,-180.89 1670.75,-180.89 1670.75,-199.39"/>
<text text-anchor="middle" x="1641.75" y="-186.84" font-family="Times,serif" font-size="9.00">Obstacle_N</text>
</g>
<!-- Obstacle_N&#45;&gt;Left -->
<g id="edge15" class="edge">
<title>Obstacle_N&#45;&gt;Left</title>
<path fill="none" stroke="green" stroke-width="0.54" d="M1645.94,-180.54C1654.22,-162.13 1670.29,-118.35 1650.75,-90.45 1619.36,-45.62 1552.16,-32.97 1511.98,-29.47"/>
<polygon fill="green" stroke="green" stroke-width="0.54" points="1512.46,-26 1502.24,-28.77 1511.96,-32.98 1512.46,-26"/>
</g>
<!-- 17318 -->
<g id="node33" class="node">
<title>17318</title>
<ellipse fill="white" stroke="black" cx="1614.75" cy="-117.67" rx="27.22" ry="27.22"/>
<text text-anchor="middle" x="1614.75" y="-114.37" font-family="Times,serif" font-size="9.00">17318</text>
</g>
<!-- Obstacle_N&#45;&gt;17318 -->
<g id="edge41" class="edge">
<title>Obstacle_N&#45;&gt;17318</title>
<path fill="none" stroke="red" stroke-width="0.3" d="M1638.44,-180.5C1635.77,-173.54 1631.83,-163.26 1627.93,-153.08"/>
<polygon fill="red" stroke="red" stroke-width="0.3" points="1631.25,-151.96 1624.41,-143.88 1624.72,-154.47 1631.25,-151.96"/>
</g>
<!-- Obstacle_S -->
<g id="node22" class="node">
<title>Obstacle_S</title>
<polygon fill="lightgray" stroke="black" points="1813,-199.39 1756.5,-199.39 1756.5,-180.89 1813,-180.89 1813,-199.39"/>
<text text-anchor="middle" x="1784.75" y="-186.84" font-family="Times,serif" font-size="9.00">Obstacle_S</text>
</g>
<!-- Obstacle_E -->
<g id="node23" class="node">
<title>Obstacle_E</title>
<polygon fill="lightgray" stroke="black" points="994,-126.92 937.5,-126.92 937.5,-108.42 994,-108.42 994,-126.92"/>
<text text-anchor="middle" x="965.75" y="-114.37" font-family="Times,serif" font-size="9.00">Obstacle_E</text>
</g>
<!-- Obstacle_E&#45;&gt;Up -->
<g id="edge22" class="edge">
<title>Obstacle_E&#45;&gt;Up</title>
<path fill="none" stroke="red" stroke-width="0.23" stroke-dasharray="1,5" d="M969.49,-108.19C974.89,-95.95 985.1,-72.79 993.15,-54.54"/>
<polygon fill="red" stroke="red" stroke-width="0.23" points="996.26,-56.14 997.1,-45.58 989.86,-53.32 996.26,-56.14"/>
</g>
<!-- Obstacle_W -->
<g id="node24" class="node">
<title>Obstacle_W</title>
<polygon fill="lightgray" stroke="black" points="1757.5,-126.92 1698,-126.92 1698,-108.42 1757.5,-108.42 1757.5,-126.92"/>
<text text-anchor="middle" x="1727.75" y="-114.37" font-family="Times,serif" font-size="9.00">Obstacle_W</text>
</g>
<!-- Obstacle_W&#45;&gt;Left -->
<g id="edge18" class="edge">
<title>Obstacle_W&#45;&gt;Left</title>
<path fill="none" stroke="red" stroke-width="0.82" d="M1715.1,-108.01C1706.54,-102.44 1694.81,-95.34 1683.75,-90.45 1625.07,-64.47 1552.35,-45.15 1511.49,-35.38"/>
<polygon fill="red" stroke="red" stroke-width="0.82" points="1512.35,-31.98 1501.82,-33.1 1510.75,-38.8 1512.35,-31.98"/>
</g>
<!-- Obstacle_NE -->
<g id="node25" class="node">
<title>Obstacle_NE</title>
<polygon fill="lightgray" stroke="black" points="392.38,-126.92 329.12,-126.92 329.12,-108.42 392.38,-108.42 392.38,-126.92"/>
<text text-anchor="middle" x="360.75" y="-114.37" font-family="Times,serif" font-size="9.00">Obstacle_NE</text>
</g>
<!-- Obstacle_NE&#45;&gt;Down -->
<g id="edge23" class="edge">
<title>Obstacle_NE&#45;&gt;Down</title>
<path fill="none" stroke="red" stroke-width="0.25" stroke-dasharray="1,5" d="M371.71,-107.99C379.43,-102.26 390.23,-94.99 400.75,-90.45 476,-57.91 571.24,-40.6 622.69,-33.03"/>
<polygon fill="red" stroke="red" stroke-width="0.25" points="622.91,-36.53 632.31,-31.65 621.92,-29.6 622.91,-36.53"/>
</g>
<!-- Obstacle_NE&#45;&gt;Right -->
<g id="edge34" class="edge">
<title>Obstacle_NE&#45;&gt;Right</title>
<path fill="none" stroke="green" stroke-width="0.45" d="M364.11,-108.19C368.43,-97.27 376.18,-77.68 382.93,-60.62"/>
<polygon fill="green" stroke="green" stroke-width="0.45" points="386.08,-62.18 386.5,-51.59 379.57,-59.6 386.08,-62.18"/>
</g>
<!-- Obstacle_SE -->
<g id="node26" class="node">
<title>Obstacle_SE</title>
<polygon fill="lightgray" stroke="black" points="919.62,-126.92 857.88,-126.92 857.88,-108.42 919.62,-108.42 919.62,-126.92"/>
<text text-anchor="middle" x="888.75" y="-114.37" font-family="Times,serif" font-size="9.00">Obstacle_SE</text>
</g>
<!-- Obstacle_SE&#45;&gt;Up -->
<g id="edge29" class="edge">
<title>Obstacle_SE&#45;&gt;Up</title>
<path fill="none" stroke="green" stroke-width="0.56" d="M899.87,-108.19C918.56,-93.94 956.64,-64.91 981.4,-46.02"/>
<polygon fill="green" stroke="green" stroke-width="0.56" points="983.36,-48.93 989.19,-40.08 979.12,-43.36 983.36,-48.93"/>
</g>
<!-- Obstacle_SE&#45;&gt;Left -->
<g id="edge31" class="edge">
<title>Obstacle_SE&#45;&gt;Left</title>
<path fill="none" stroke="red" stroke-width="0.25" stroke-dasharray="1,5" d="M898.88,-108.08C906.56,-102.08 917.66,-94.45 928.75,-90.45 1025.62,-55.49 1345.44,-35.5 1447.88,-29.88"/>
<polygon fill="red" stroke="red" stroke-width="0.25" points="1448.02,-33.38 1457.82,-29.34 1447.64,-26.39 1448.02,-33.38"/>
</g>
<!-- Obstacle_SE&#45;&gt;Right -->
<g id="edge14" class="edge">
<title>Obstacle_SE&#45;&gt;Right</title>
<path fill="none" stroke="green" stroke-width="0.47" stroke-dasharray="1,5" d="M878.59,-108.16C870.89,-102.2 859.79,-94.58 848.75,-90.45 809.83,-75.87 531.49,-43.51 431.45,-32.21"/>
<polygon fill="green" stroke="green" stroke-width="0.47" points="432,-28.75 421.67,-31.11 431.22,-35.71 432,-28.75"/>
</g>
<!-- Obstacle_SW -->
<g id="node27" class="node">
<title>Obstacle_SW</title>
<polygon fill="lightgray" stroke="black" points="1077.12,-126.92 1012.38,-126.92 1012.38,-108.42 1077.12,-108.42 1077.12,-126.92"/>
<text text-anchor="middle" x="1044.75" y="-114.37" font-family="Times,serif" font-size="9.00">Obstacle_SW</text>
</g>
<!-- Obstacle_SW&#45;&gt;Up -->
<g id="edge3" class="edge">
<title>Obstacle_SW&#45;&gt;Up</title>
<path fill="none" stroke="green" stroke-width="0.15" d="M1040.91,-108.19C1035.38,-95.95 1024.91,-72.79 1016.65,-54.54"/>
<polygon fill="green" stroke="green" stroke-width="0.15" points="1019.86,-53.13 1012.55,-45.46 1013.48,-56.02 1019.86,-53.13"/>
</g>
<!-- Obstacle_NW -->
<g id="node28" class="node">
<title>Obstacle_NW</title>
<polygon fill="lightgray" stroke="black" points="1440.88,-126.92 1374.62,-126.92 1374.62,-108.42 1440.88,-108.42 1440.88,-126.92"/>
<text text-anchor="middle" x="1407.75" y="-114.37" font-family="Times,serif" font-size="9.00">Obstacle_NW</text>
</g>
<!-- Obstacle_NW&#45;&gt;Up -->
<g id="edge33" class="edge">
<title>Obstacle_NW&#45;&gt;Up</title>
<path fill="none" stroke="red" stroke-width="0.22" d="M1396.62,-108.04C1388.5,-102.18 1376.99,-94.74 1365.75,-90.45 1248.35,-45.66 1097.14,-32.94 1034.24,-29.47"/>
<polygon fill="red" stroke="red" stroke-width="0.22" points="1034.72,-25.99 1024.56,-28.97 1034.36,-32.98 1034.72,-25.99"/>
</g>
<!-- Obstacle_NW&#45;&gt;Left -->
<g id="edge38" class="edge">
<title>Obstacle_NW&#45;&gt;Left</title>
<path fill="none" stroke="green" stroke-width="0.25" d="M1414.65,-108.19C1424.97,-95.52 1444.81,-71.15 1459.89,-52.62"/>
<polygon fill="green" stroke="green" stroke-width="0.25" points="1462.59,-54.85 1466.19,-44.89 1457.16,-50.43 1462.59,-54.85"/>
</g>
<!-- 17318&#45;&gt;Left -->
<g id="edge42" class="edge">
<title>17318&#45;&gt;Left</title>
<path fill="none" stroke="green" stroke-width="0.17" d="M1593.22,-100.62C1588.49,-97.2 1583.49,-93.66 1578.75,-90.45 1554.7,-74.16 1526.61,-56.64 1506.5,-44.35"/>
<polygon fill="green" stroke="green" stroke-width="0.17" points="1508.45,-41.44 1498.09,-39.23 1504.81,-47.42 1508.45,-41.44"/>
</g>
</g>
</svg>
